<?xml version="1.0" encoding="UTF-8" standalone="no"?>
<!-- Created with Inkscape (http://www.inkscape.org/) -->

<svg
   xmlns:dc="http://purl.org/dc/elements/1.1/"
   xmlns:cc="http://creativecommons.org/ns#"
   xmlns:rdf="http://www.w3.org/1999/02/22-rdf-syntax-ns#"
   xmlns:svg="http://www.w3.org/2000/svg"
   xmlns="http://www.w3.org/2000/svg"
   xmlns:sodipodi="http://sodipodi.sourceforge.net/DTD/sodipodi-0.dtd"
   xmlns:inkscape="http://www.inkscape.org/namespaces/inkscape"
   id="svg4170"
   version="1.1"
   inkscape:version="0.91 r13725"
   width="828.56281"
   height="828.56354"
   viewBox="0 0 828.5628 828.56355"
   sodipodi:docname="201610_JS_profile_v3_stamp_v2.svg">
  <metadata
     id="metadata4176">
    <rdf:RDF>
      <cc:Work
         rdf:about="">
        <dc:format>image/svg+xml</dc:format>
        <dc:type
           rdf:resource="http://purl.org/dc/dcmitype/StillImage" />
        <dc:title />
      </cc:Work>
    </rdf:RDF>
  </metadata>
  <defs
     id="defs4174">
    <clipPath
       id="clipPath4210"
       clipPathUnits="userSpaceOnUse">
      <path
         inkscape:connector-curvature="0"
         id="path4212"
         d="m 225.607,544.429 c 0,-0.688 0.193,-1.055 0.428,-1.499 l 0,0 c -0.373,-0.558 -0.931,-0.871 -1.347,-1.434 l 0,0 c -0.379,-0.51 -0.884,-1.104 -1.303,-1.589 l 0,0 c -0.622,-0.724 -1.926,-2.773 -2.486,-3.183 l 0,0 c -0.057,0.238 -0.108,0.245 -0.108,0.534 l 0,0 0,0.428 c 0,0.214 1.819,1.078 1.819,3.639 l 0,0 c 0,1.1 -0.728,3.555 -1.105,4.351 l 0,0 c -0.381,0.802 -1.765,3.096 -1.892,3.568 l 0,0 c -0.83,-0.609 -1.887,-4.754 -1.929,-6.097 l 0,0 c -0.078,-2.477 0.111,-5.149 2.573,-5.354 l 0,0 0,-1.497 c 0,-1.247 -1.524,-3.107 -1.994,-4.215 l 0,0 c -0.364,-0.855 -1.914,-3.588 -2.059,-4.268 l 0,0 -0.444,1.419 c 0.984,0.229 1.391,1.454 1.391,2.675 l 0,0 0,0.108 c 0,2.616 -2.803,7.107 -4.578,8.252 l 0,0 -0.778,-5.024 0.111,-0.018 0,-0.962 c 0,-2.396 1.181,-5.194 3.459,-5.24 l 0,0 0.289,-2.573 c 0.037,-0.282 -2.249,-6.374 -2.249,-8.133 l 0,0 -0.205,0.003 -0.33,1.067 c 0.455,0.165 0.75,0.885 0.75,1.498 l 0,0 0,0.75 c 0,1.756 -1.658,3.637 -2.597,4.574 l 0,0 c -0.319,0.321 -3.932,3.724 -3.932,2.702 l 0,0 0,-0.643 c 0,-2.632 0.543,-3.811 1.027,-5.821 l 0,0 c 0.32,-1.33 1.887,-3.488 3.36,-3.488 l 0,0 0.107,0 c 0.369,0 0.415,0.079 0.75,0.107 l 0,0 c 0.945,-1.786 0.666,-2.712 0.437,-4.824 l 0,0 c -0.203,-1.863 -0.223,-3.715 -0.223,-5.77 l 0,0 c -0.128,0.095 -0.643,0.8 -0.643,0.963 l 0,0 c 0,0.195 0.429,0.66 0.429,1.391 l 0,0 c 0,3.194 -5.538,6.54 -8.241,7.17 l 0,0 c 0.143,-1.713 1.3,-4.304 1.964,-5.635 l 0,0 c 0.703,-1.414 2.181,-3.568 4.136,-3.568 l 0,0 c 0.614,0 0.767,0.171 1.284,0.214 l 0,0 c 0.117,-0.44 0.818,-1.454 1.107,-2.105 l 0,0 c 0.204,-0.459 0.32,-2.171 0.395,-2.815 l 0,0 c 0.237,-2.003 0.504,-3.391 0.936,-5.378 l 0,0 -0.725,0.774 c 0.597,2.558 -1.237,3.826 -2.997,4.707 l 0,0 c -1.326,0.664 -4.409,1.714 -6.315,1.714 l 0,0 c -0.705,0 3.674,-7.384 6.637,-7.384 l 0,0 c 0.246,0 0.125,0.036 0.426,0.107 l 0,0 0,-0.215 c 1.048,0 1.323,0.237 1.928,0.643 l 0,0 c 0.399,-0.596 1.18,-1.27 1.501,-1.924 l 0,0 c 0.155,-0.313 0.699,-2.156 0.84,-2.585 l 0,0 c 0.281,-0.85 0.762,-1.655 0.981,-2.446 l 0,0 c 0.259,-0.945 0.899,-1.744 1.064,-2.466 l 0,0 -0.853,0.431 c 0,2.291 -1.609,3.372 -3.385,3.894 l 0,0 c -2.207,0.648 -3.858,0.494 -6.463,0.494 l 0,0 -0.749,0 c 0.341,-1.456 5.318,-5.779 7.385,-5.779 l 0,0 0.963,0 c 1.074,0 1.571,0.273 2.034,0.963 l 0,0 c 1.84,-1.231 2.222,-2.166 3.318,-4.064 l 0,0 c 0.494,-0.853 2.455,-3.807 3.122,-4.3 l 0,0 -0.108,-0.02 -0.98,0.251 c -0.307,0.225 -0.276,1.339 -1.581,2.164 l 0,0 c -0.725,0.457 -1.867,0.832 -3.021,0.832 l 0,0 -0.857,0 c -1.619,0 -4.914,-0.765 -5.993,-1.283 l 0,0 c 0.277,-1.04 5.858,-3.853 7.706,-3.853 l 0,0 1.178,0 c 0.088,0.267 0.055,0.216 0.145,0.166 l 0,0 c 0.061,-0.034 0.18,-0.069 0.432,-0.003 l 0,0 c 0.232,0.062 0.511,0.261 0.704,0.375 l 0,0 c 0.647,0.38 0.616,0.408 0.967,1.068 l 0,0 c 2.609,-0.608 2.746,-1.628 4.307,-3.184 l 0,0 c 1.334,-1.33 2.526,-2.442 3.929,-3.692 l 0,0 -1.281,0.133 c -0.106,1.288 -2.141,2.14 -3.639,2.14 l 0,0 c -1.602,0 -3.009,-0.551 -4.207,-1.036 l 0,0 c -0.733,-0.298 -1.23,-0.452 -1.894,-0.783 l 0,0 c -0.484,-0.242 -1.329,-0.861 -1.712,-0.963 l 0,0 0,-0.214 c 0.774,-0.18 2.14,-0.867 3.17,-1.218 l 0,0 c 1.007,-0.344 2.529,-0.815 3.788,-0.815 l 0,0 0.855,0 c 1.576,0 3.414,0.928 3.533,2.355 l 0,0 c 2.494,0 3.458,-1.306 4.966,-2.313 l 0,0 c 1.218,-0.811 3.652,-2.035 4.56,-2.805 l 0,0 -1.285,-0.127 c -0.187,0.806 -1.395,1.499 -2.355,1.499 l 0,0 -0.855,0 c -1.955,0 -7.5,-3.427 -7.824,-4.683 l 0,0 5.255,-0.561 0.428,0 c 2.462,0 5.458,0.809 5.458,3.318 l 0,0 1.392,0 c 1.237,0 3.424,-1.064 4.241,-1.423 l 0,0 c 0.745,-0.328 3.69,-1.557 4.449,-1.641 l 0,0 -0.877,-0.254 c -1.344,0.899 -1.228,0.827 -2.021,0.754 l 0,0 c -0.274,-0.025 -0.657,-0.05 -1.245,-0.035 l 0,0 c -0.749,0.019 -2.366,-1.02 -2.865,-1.439 l 0,0 c -0.855,-0.717 -4.055,-3.669 -4.144,-4.737 l 0,0 0.963,0 c 3.84,0 9.419,0.926 9.419,4.493 l 0,0 0.002,0.531 2.352,0.219 c 0.319,0.036 3.264,-0.66 3.404,-0.769 l 0,0 c 0.992,-0.759 0.333,-2.259 -0.121,-3.049 l 0,0 c -0.434,-0.758 -1.339,-1.606 -1.908,-2.371 l 0,0 c -0.941,-1.26 -0.859,-1.315 -1.526,-2.696 l 0,0 -0.063,-1.174 0,-0.107 c 0,-0.637 0.02,-2.081 0.643,-2.248 l 0,0 c -0.027,0.335 -0.108,0.381 -0.108,0.75 l 0,0 0,0.213 c 0,4.391 5.888,6.352 5.888,8.562 l 0,0 0,0.428 c 0,0.378 -0.467,1.019 -0.65,1.242 l 0,0 2.041,-0.279 c 0.25,0 0.469,0.006 0.663,0.01 l 0,0 c -0.194,-0.004 -0.413,-0.01 -0.663,-0.01 l 0,0 1.605,-0.215 0.535,-0.748 0.998,-1.964 0.074,2.82 -0.114,-2.461 c -0.251,0.294 -0.692,1.487 -0.956,1.927 l 0,0 c -0.024,0.039 -0.047,0.075 -0.07,0.11 l 0,0 c 0.023,-0.035 0.046,-0.071 0.07,-0.11 l 0,0 c 0.264,-0.44 0.705,-1.633 0.956,-1.927 l 0,0 0.114,2.461 c 0.118,1.431 0.427,3.243 -0.643,3.96 l 0,0 c -0.182,-0.78 -0.85,-2.034 -1.713,-2.034 l 0,0 c -0.99,0 -1.667,0.135 -2.564,0.217 l 0,0 c -1.549,0.14 -1.13,0.245 -2.039,0.853 l 0,0 c 0.477,0.712 0.964,0.763 0.964,2.141 l 0,0 0,0.214 c 0,2.239 -3.536,6.953 -4.934,7.277 l 0,0 -0.097,-1.819 0,-1.713 c 0,-2.966 0.696,-6.208 3.518,-6.22 l 0,0 0.23,-0.308 c -1.491,0 -3.317,0.627 -4.752,1.028 l 0,0 c -0.895,0.249 -1.415,0.474 -2.245,0.752 l 0,0 c -1.263,0.424 -1.039,0.125 -1.674,1.324 l 0,0 c 0.899,0.209 1.392,1.359 1.392,2.461 l 0,0 0,0.642 c 0,1.75 -2.261,6.674 -3.319,6.956 l 0,0 c -0.211,-0.911 -0.66,-1.753 -0.882,-2.864 l 0,0 c -0.147,-0.747 -0.295,-2.132 -0.295,-3.236 l 0,0 0,-0.427 c 0,-1.516 0.819,-3.64 2.541,-3.652 l 0,0 0.261,-0.433 -0.126,-0.089 c -0.042,-0.042 -1.895,0.891 -2.14,0.963 l 0,0 c -0.684,0.199 -1.484,0.744 -2.141,1.07 l 0,0 c -1.092,0.541 -3.413,1.476 -3.533,2.89 l 0,0 c 1.327,0.308 2.035,1.82 2.035,3.424 l 0,0 0,0.428 c 0,2.127 -1.008,4.952 -1.713,6.42 l 0,0 c -0.811,-0.216 -2.783,-5.133 -2.783,-6.635 l 0,0 0,-0.963 c 0,-1.113 0.862,-2.451 1.805,-2.678 l 0,0 0.139,-0.336 -0.125,-0.089 c -0.001,-0.002 -0.839,0.598 -0.934,0.671 l 0,0 c -0.343,0.266 -0.604,0.397 -0.95,0.654 l 0,0 c -0.706,0.526 -1.155,1.011 -1.783,1.537 l 0,0 c -0.973,0.816 -2.933,1.977 -2.97,3.559 l 0,0 c 2.173,0 2.998,2.686 2.998,4.923 l 0,0 0.085,0.76 -0.62,4.269 c -0.823,-0.22 -2.956,-3.452 -3.463,-4.349 l 0,0 c -0.888,-1.569 -1.394,-4.512 0.451,-5.497 l 0,0 0.141,-0.445 -0.125,-0.089 c -0.021,-0.02 -0.606,0.707 -0.685,0.813 l 0,0 c -0.254,0.341 -0.527,0.509 -0.786,0.82 l 0,0 c -0.521,0.62 -0.911,1.061 -1.447,1.655 l 0,0 c -0.542,0.6 -2.434,3.012 -2.434,3.882 l 0,0 0,0.535 0.749,0 c 1.135,0 2.526,1.761 2.827,2.845 l 0,0 c 0.431,1.564 0.919,2.855 0.919,4.86 l 0,0 0,1.606 c -0.854,-0.201 -2.905,-2.211 -3.56,-2.864 l 0,0 c -0.908,-0.907 -2.218,-2.57 -2.218,-4.307 l 0,0 c 0,-1.202 0.427,-1.29 0.854,-1.927 l 0,0 0,-0.427 c -0.559,0.41 -4.06,7.032 -3.983,7.708 l 0,0 0.13,0.96 c 0.383,-0.089 0.503,-0.214 0.962,-0.214 l 0,0 c 1.812,0 3.118,1.844 3.749,3.104 l 0,0 c 1.022,2.048 1.134,2.761 1.712,5.242 l 0,0 c -2.102,-0.488 -7.173,-3.651 -7.173,-5.885 l 0,0 c 0,-0.245 0.036,-0.124 0.109,-0.428 l 0,0 -0.234,-0.003 0.125,-0.853 c -0.34,0.393 -1.176,3.207 -1.176,4.066 l 0,0 c -0.408,0.136 -0.044,-0.041 -0.165,0.576 l 0,0 c -0.064,0.332 -0.121,0.431 -0.2,0.771 l 0,0 c -0.113,0.483 -0.277,1.155 -0.277,1.65 l 0,0 c 0,0.311 0.336,0.617 0.428,0.963 l 0,0 c 0.431,-0.101 0.535,-0.321 0.963,-0.321 l 0,0 0.642,0 c 1.98,0 3.055,1.727 4.041,2.81 l 0,0 c 0.33,0.363 2.733,4.074 2.241,4.319 l 0,0 c -0.489,0.244 -4.599,-1.376 -5.168,-1.607 l 0,0 c -1.169,-0.472 -3.254,-2.222 -3.254,-3.703 l 0,0 c 0,-0.332 0.11,-0.745 0.219,-0.966 l 0,0 -0.327,-0.532 c -0.027,1.21 -0.429,2.715 -0.43,4.064 l 0,0 c 0,1.481 0.003,2.853 -0.007,4.29 l 0,0 0.545,0.849 c 0.584,-0.048 0.739,-0.535 1.605,-0.535 l 0,0 0.644,0 c 1.754,0 3.177,1.306 4.093,2.221 l 0,0 c 0.596,0.596 2.685,2.823 2.756,3.665 l 0,0 -0.429,0 c -2.352,0 -4.037,-0.428 -5.82,-1.03 l 0,0 c -1.197,-0.403 -3.689,-2.037 -2.868,-3.766 l 0,0 -0.497,-0.468 -0.105,0.033 1.286,8.312 1.046,0.985 c 0.671,-0.448 1.048,-0.963 2.249,-0.963 l 0,0 0.107,0 c 2.293,0 7.037,3.404 7.39,4.75 l 0,0 -2.467,0.173 -2.568,0 c -2.262,0 -3.921,-0.877 -4.796,-2.566 l 0,0 0.057,-0.816 -0.631,-0.489 -0.09,0.125 c -0.045,0.046 1.407,4.292 1.541,4.774 l 0,0 c 0.51,1.828 1.138,2.857 2.527,3.787 l 0,0 c 0.209,-0.899 1.36,-1.39 2.461,-1.39 l 0,0 0.858,0 c 1.599,0 6.598,2.375 6.849,3.317 l 0,0 c -2.41,0.561 -3.202,1.177 -6.315,1.177 l 0,0 -0.107,0 c -1.558,0 -3.854,-0.801 -3.867,-2.544 l 0,0 -0.735,-0.346 c 0.604,1.142 1.355,2.785 2.098,3.788 l 0,0 c 0.464,0.629 0.572,1.217 1.262,1.629 l 0,0 c 0.687,0.409 1.281,0.664 1.991,1.005 l 0,0 c 1.982,-3.743 9.882,0.855 10.172,1.94 l 0,0 -2.959,0.87 -0.054,-0.152 -0.308,0.23 c -0.068,-0.032 -0.563,0.008 -1.215,0.049 l 0,0 c -1.035,0.064 -2.469,0.127 -3.241,-0.093 l 0,0 c -1.218,-0.348 -2.361,-0.864 -2.411,-2.364 l 0,0 -1.391,-0.498 -0.122,0.15 3.992,4.79 c 0.26,-0.06 0.694,-0.214 0.963,-0.214 l 0,0 c 3.266,0 5.779,6.32 5.779,9.524 l 0,0 c -2.56,-1.355 -7.706,-3.76 -7.706,-7.383 m 30.925,-81.426 c -0.014,0 -0.029,0 -0.045,0 l 0,0 c 0.016,0 0.031,0 0.045,0 m 0.014,0 c 0.548,-10e-4 0.879,-0.071 1.192,-0.518 l 0,0 c -0.313,0.446 -0.644,0.517 -1.192,0.518 m 31.201,87.801 c 0.135,-0.594 0.271,-1.04 0.429,-1.603 l 0,0 c 0.353,-1.245 0.685,-2.013 1.1,-3.076 l 0,0 c 0.632,-1.622 2.217,-3.837 4.404,-3.837 l 0,0 c 0.104,0 0.694,0.176 0.855,0.214 l 0,0 3.991,-4.897 c -0.121,-0.018 -1.52,0.457 -1.549,0.489 l 0,0 c -0.1,0.107 -0.101,0.92 -0.608,1.425 l 0,0 c -0.831,0.831 -1.55,0.901 -3.003,1.065 l 0,0 c -0.843,0.096 -2.769,-0.048 -3.474,-0.173 l 0,0 c -1.05,-0.184 -2.436,-0.845 -3.17,-0.905 l 0,0 c 0.175,-0.658 3.833,-2.526 4.694,-2.905 l 0,0 c 0.785,-0.347 2.234,-0.569 3.227,-0.413 l 0,0 c 2.015,0.314 1.402,0.694 2.354,1.392 l 0,0 c 1.79,-1.2 2.048,-0.371 3.209,-2.678 l 0,0 c 0.299,-0.592 0.727,-1.215 1.074,-1.815 l 0,0 c 0.382,-0.661 0.609,-1.261 0.962,-1.929 l 0,0 -0.736,0.348 c -0.044,1.376 -1.923,2.739 -3.223,2.435 l 0,0 c -0.195,0.129 -0.19,0.213 -0.43,0.213 l 0,0 -0.214,0 c -2.955,0 -4.159,-0.781 -6.314,-1.283 l 0,0 c 0.264,-0.993 5.304,-3.317 6.742,-3.317 l 0,0 1.07,0 c 1.513,0 1.773,0.964 2.355,1.39 l 0,0 c 1.866,-1.249 1.567,-1.733 2.446,-3.76 l 0,0 c 0.391,-0.904 1.32,-3.737 1.408,-4.801 l 0,0 -0.525,0.339 c -0.012,2.506 -2.714,3.513 -5.256,3.513 l 0,0 -1.391,0 -3.213,-0.293 c 0.187,-0.713 2.466,-2.516 3.15,-2.98 l 0,0 c 1.102,-0.745 2.583,-1.756 4.345,-1.756 l 0,0 c 0.756,0 1.987,0.391 2.141,0.963 l 0,0 c 1.497,-1.004 1.157,-1.368 1.629,-3.294 l 0,0 c 0.311,-1.274 0.512,-2.92 0.512,-4.197 l 0,0 0,-0.214 c 0,-0.239 0.084,-0.235 0.213,-0.428 l 0,0 -0.128,-0.961 -0.287,0.227 c 0.043,0.225 0.094,0.231 0.094,0.521 l 0,0 c 0,3.168 -5.364,4.28 -8.777,4.28 l 0,0 -0.214,0 c -0.207,0 -0.19,-0.033 -0.32,-0.107 l 0,0 c 0.113,-0.424 2.345,-3.191 2.751,-3.562 l 0,0 c 0.886,-0.806 2.433,-2.217 3.99,-2.217 l 0,0 0.857,0 c 0.798,0 0.97,0.394 1.498,0.535 l 0,0 c 0.109,-0.403 0.536,-0.647 0.536,-0.963 l 0,0 0,-3.211 -0.384,-4.819 -0.384,0.42 c 0.101,0.181 0.127,0.166 0.127,0.44 l 0,0 0,0.536 c 0,2.838 -5.588,5.014 -8.35,5.243 l 0,0 c 0.019,-0.841 1.838,-3.73 2.311,-4.432 l 0,0 c 0.359,-0.535 1.09,-1.333 1.605,-1.712 l 0,0 c 0.923,-0.677 1.647,-0.738 2.078,-1.026 l 0,0 c 0.287,0.182 0.466,0.138 0.672,0.094 l 0,0 c 0.269,-0.057 0.586,-0.115 1.255,0.334 l 0,0 c 0.598,-1.128 0.624,-0.774 0.33,-2.255 l 0,0 c -0.146,-0.738 -0.342,-1.639 -0.557,-2.333 l 0,0 c -0.235,-0.757 -0.389,-1.616 -0.559,-2.216 l 0,0 c -0.178,-0.626 -0.675,-1.736 -0.712,-2.186 l 0,0 c -0.453,0.332 0.105,0.327 0.105,1.177 l 0,0 0,0.75 c 0,1.543 -1.549,3.07 -2.696,3.832 l 0,0 c -0.875,0.582 -3.335,2.173 -4.473,2.267 l 0,0 0,-0.32 0.214,0 c -0.307,-0.64 1.21,-4.416 1.569,-5.067 l 0,0 c 0.685,-1.25 2.044,-2.959 3.888,-2.959 l 0,0 c 0.313,0 0.555,0.143 0.857,0.214 l 0,0 c -0.3,-0.626 0.178,-0.596 -0.12,-1.383 l 0,0 c -0.171,-0.456 -0.129,-0.497 -0.351,-1.035 l 0,0 c -0.328,-0.799 -0.685,-1.393 -1.064,-2.148 l 0,0 c -0.564,-1.128 -1.604,-3.281 -2.318,-4.102 l 0,0 0,0.535 c 0.317,0.213 0.749,0.782 0.749,1.285 l 0,0 0,1.069 c 0,1.992 -4.378,6.519 -5.78,6.636 l 0,0 c 0,-1.937 0.313,-4.505 0.684,-5.845 l 0,0 c 0.376,-1.344 1.689,-3.466 3.277,-3.466 l 0,0 0.641,0 c 0,-1.717 -1.598,-3.135 -2.417,-4.216 l 0,0 c -0.52,-0.684 -2.498,-3.126 -3.041,-3.489 l 0,0 c 0.077,0.926 1.285,0.85 1.285,2.782 l 0,0 0,0.429 c 0,1.974 -3.075,7.069 -4.283,7.169 l 0,0 -0.489,-3.523 0.062,-1.827 0.3,-2.234 c 0.518,-0.457 0.691,-2.368 2.698,-2.368 l 0,0 c -0.139,-1.662 -1.986,-2.719 -3.025,-3.613 l 0,0 c -0.824,-0.71 -2.83,-2.338 -3.72,-2.808 l 0,0 c 0.193,0.823 1.82,0.794 1.82,3.318 l 0,0 0,0.427 c 0,1.4 -0.432,2.735 -0.871,3.731 l 0,0 c -0.239,0.546 -0.517,1.134 -0.746,1.714 l 0,0 c -0.169,0.427 -0.757,1.186 -0.844,1.511 l 0,0 c -0.852,-0.227 -1.926,-4.727 -1.926,-5.992 l 0,0 0,-0.964 c 0,-1.606 0.774,-3.324 2.139,-3.21 l 0,0 c -0.656,-1.242 -0.291,-1.022 -1.541,-1.776 l 0,0 c -0.758,-0.456 -1.347,-0.783 -2.101,-1.217 l 0,0 c -0.646,-0.372 -3.827,-1.882 -4.491,-2.036 l 0,0 0.324,0.532 c 1.746,0.002 2.565,2.353 2.565,4.176 l 0,0 c 0,2.291 -0.761,4.206 -1.177,5.993 l 0,0 -0.321,0 c -0.186,-0.694 -1.527,-2.127 -1.913,-3.118 l 0,0 c -0.521,-1.35 -1.084,-2.035 -1.084,-3.624 l 0,0 0,-0.535 c 0,-1.053 -0.234,-0.684 0.229,-1.697 l 0,0 c 0.189,-0.409 0.565,-0.954 1.055,-1.085 l 0,0 c -0.083,-1.006 -0.926,-1.129 -1.479,-1.294 l 0,0 c -0.754,-0.224 -1.455,-0.511 -2.253,-0.753 l 0,0 c -0.969,-0.295 -3.794,-1.057 -4.937,-1.057 l 0,0 0.229,0.308 c 2.754,0.012 3.624,3.204 3.624,6.006 l 0,0 0,1.391 -0.191,2.356 c -0.643,-0.167 -2.527,-2.419 -3,-3.018 l 0,0 c -0.869,-1.098 -1.84,-2.239 -1.84,-4.153 l 0,0 0,-0.428 c 0,-0.746 0.276,-1.665 0.856,-1.819 l 0,0 c -0.101,-1.218 -2.387,-1.001 -3.595,-1.221 l 0,0 c -1.558,-0.282 -2.511,0.753 -2.611,1.97 l 0,0 c -1.345,-0.359 -0.643,-3.748 -0.643,-5.244 l 0,0 0,-0.963 c 0,-0.29 -0.052,-0.296 -0.108,-0.536 l 0,0 c 0.939,0.63 0.745,2.064 1.821,2.783 l 0,0 3.283,0.301 c -0.14,-0.442 -0.395,-0.633 -0.395,-1.264 l 0,0 0,-0.214 c 0,-1.355 2.499,-3.233 3.398,-3.988 l 0,0 c 0.865,-0.724 2.755,-3.12 2.49,-4.788 l 0,0 -0.133,-0.851 0.24,-0.005 c 0.055,0.678 0.32,1.084 0.32,1.927 l 0,0 0,1.07 c 0,2.697 -4.067,5.18 -4.067,7.277 l 0,0 c 0,0.611 0.274,0.815 0.322,1.39 l 0,0 c 0.604,0.142 3.25,0.809 3.745,0.75 l 0,0 2.142,-0.211 0,-0.752 c 0,-3.274 5.842,-4.28 9.525,-4.28 l 0,0 0.857,0 c -0.384,1.64 -5.235,6.313 -7.493,6.313 l 0,0 -1.07,0 c -0.638,0 -1.205,-0.588 -1.605,-0.856 l 0,0 -0.855,0.222 c 0.273,0.183 3.606,1.328 4.234,1.536 l 0,0 c 1.343,0.444 2.702,1.56 4.219,1.56 l 0,0 1.286,0 c 0.356,0 0.433,-1.039 0.81,-1.545 l 0,0 c 0.219,-0.298 0.941,-0.884 1.263,-1.091 l 0,0 c 0.54,-0.344 2.558,-0.682 3.706,-0.682 l 0,0 0.535,0 5.045,0.528 -0.015,0.115 c -0.198,0.743 -2.676,2.451 -3.421,2.892 l 0,0 c -1.044,0.617 -2.909,1.709 -4.499,1.709 l 0,0 -0.535,0 c -1.323,0 -2.105,-0.621 -2.568,-1.499 l 0,0 -1.392,0.015 c 0.017,0.007 4.401,2.764 4.617,2.859 l 0,0 c 0.331,0.146 1.753,1.289 2.154,1.594 l 0,0 c 0.491,0.374 2.005,0.777 2.863,0.777 l 0,0 c 0.027,-1.252 2.065,-2.355 3.425,-2.355 l 0,0 0.854,0 c 1.262,0 2.896,0.408 3.841,0.762 l 0,0 c 0.734,0.276 2.658,1.12 3.225,1.271 l 0,0 c -0.259,0.963 -5.814,2.996 -7.6,2.996 l 0,0 -0.215,0 c -1.539,0 -3.417,-0.766 -3.53,-2.14 l 0,0 -1.281,-0.133 c 1.333,1.189 2.695,2.393 3.931,3.689 l 0,0 c 1.11,1.164 2.189,3.139 4.305,3.187 l 0,0 c 0.242,-0.905 1.508,-1.606 2.677,-1.606 l 0,0 0.856,0 c 1.375,0 3.117,1.003 4.209,1.464 l 0,0 c 1.042,0.439 2.761,2.007 3.389,2.174 l 0,0 0,0.215 c -2.005,0.466 -3.537,1.283 -6.208,1.283 l 0,0 -0.641,0 c -1.928,0 -4.388,-1.042 -4.388,-2.888 l 0,0 -1.175,-0.327 c 0.012,0.062 2.769,4.061 2.953,4.327 l 0,0 c 1.271,1.841 1.168,2.865 3.359,4.025 l 0,0 c 0.341,-0.643 1.072,-0.963 2.034,-0.963 l 0,0 0.322,0 c 1.999,0 3.447,1.121 4.68,2.168 l 0,0 c 0.628,0.532 3.173,2.961 3.347,3.611 l 0,0 -0.749,0 c -2.351,0 -4.479,0.169 -6.383,-0.468 l 0,0 c -1.579,-0.529 -3.571,-1.623 -3.571,-3.598 l 0,0 c 0,-0.029 0.073,-0.196 0.106,-0.322 l 0,0 -0.85,-0.439 c 0.32,1.409 1.505,3.411 2.016,4.947 l 0,0 c 0.287,0.868 0.451,1.836 0.869,2.554 l 0,0 c 0.459,0.788 1.064,1.281 1.498,1.928 l 0,0 c 0.453,-0.305 0.832,-0.643 1.603,-0.643 l 0,0 c 1.131,0 1.991,0.582 2.699,1.049 l 0,0 c 0.505,0.333 0.541,0.47 1.109,0.816 l 0,0 c 0.065,0.037 0.605,0.782 0.823,0.999 l 0,0 c 0.813,0.807 2.58,3.412 2.862,4.628 l 0,0 c -3.448,0 -9.632,-2.096 -9.632,-5.672 l 0,0 c 0,-0.464 0.214,-0.432 0.214,-0.749 l 0,0 c 0,-0.153 -0.614,-0.66 -0.749,-0.75 l 0,0 c 0.081,0.972 0.506,1.644 0.535,2.676 l 0,0 c 0.025,0.894 0.317,1.878 0.425,2.785 l 0,0 c 0.301,2.533 0.329,3.168 1.502,4.92 l 0,0 c 0.294,-0.196 0.573,-0.321 1.07,-0.321 l 0,0 c 2.06,0 3.564,2.014 4.282,3.422 l 0,0 c 0.512,1.004 1.926,4.421 1.926,5.781 l 0,0 c -0.925,-0.078 -4.266,-2.095 -5.073,-2.633 l 0,0 c -1.274,-0.847 -3.062,-2.527 -3.062,-4.537 l 0,0 c 0,-0.687 0.194,-1.053 0.429,-1.498 l 0,0 -0.706,-0.89 c -0.01,0.444 0.09,0.343 0.063,0.676 l 0,0 -0.497,7.6 c -0.073,0.446 0.556,1.755 0.604,2.352 l 0,0 c 2.775,-0.062 3.125,1.125 4.195,3.084 l 0,0 c 0.612,1.121 1.156,4.523 1.156,6.333 l 0,0 0,0.428 c 0,1.126 -3.75,-2.518 -4.041,-2.809 l 0,0 c -1.068,-1.068 -2.595,-2.838 -2.595,-4.896 l 0,0 c 0,-0.935 0.484,-1.476 0.858,-2.033 l 0,0 -0.493,-1.089 -0.42,1.742 c 0.275,0.694 -1.871,5.702 -1.871,6.517 l 0,0 0,0.428 0.28,2.253 c 2.307,0.183 3.679,3.078 3.467,5.666 l 0,0 -0.222,3.209 -0.207,10e-4 c 0.22,0.458 -0.219,1.959 -0.428,2.355 l 0,0 c -1.264,-0.846 -4.495,-5.674 -4.495,-7.919 l 0,0 0,-0.643 c 0,-0.878 0.411,-1.681 0.88,-2.116 l 0,0 c 0.927,-0.86 0.311,-0.492 0.19,-1.95 l 0,0 c -0.038,0.045 -2.11,4.321 -2.29,4.773 l 0,0 c -0.9,2.272 -1.884,1.792 -1.884,5.393 l 0,0 c 0.995,0.083 1.354,0.258 1.93,1.068 l 0,0 c 0.305,0.429 0.746,1.719 0.746,2.464 l 0,0 0,1.284 c 0,1.915 -1.14,5.351 -1.819,6.635 l 0,0 c -1.115,-0.816 -3.104,-5.755 -3.104,-7.705 l 0,0 0,-0.32 c 0,-1.901 0.552,-2.65 1.819,-3.319 l 0,0 -0.136,-1.387 c -0.159,0.134 -2.032,2.849 -2.414,3.333 l 0,0 c -0.364,0.461 -2.392,2.76 -2.802,2.87 l 0,0 c 0.346,1.289 0.87,1.557 0.142,3.245 l 0,0 c -0.438,1.019 -0.988,1.738 -1.774,2.399 l 0,0 c -1.626,1.365 -3.088,2.156 -5.062,3.182 l 0,0 c -0.282,0.147 -0.46,0.229 -0.562,0.229 l 0,0 c -0.19,0 -0.115,-0.287 0.04,-0.967 m -18.471,-85.352 c 0.095,0.095 0.048,0.048 0,0 l 0,0 c -0.027,-0.027 -0.055,-0.055 -0.055,-0.055 l 0,0 c 0,0 0.015,0.015 0.055,0.055" />
    </clipPath>
    <pattern
       y="0"
       x="0"
       height="6"
       width="6"
       patternUnits="userSpaceOnUse"
       id="EMFhbasepattern" />
  </defs>
  <sodipodi:namedview
     pagecolor="#ffffff"
     bordercolor="#666666"
     borderopacity="1"
     objecttolerance="10"
     gridtolerance="10"
     guidetolerance="10"
     inkscape:pageopacity="0"
     inkscape:pageshadow="2"
     inkscape:window-width="1600"
     inkscape:window-height="848"
     id="namedview4172"
     showgrid="false"
     inkscape:zoom="0.66691528"
     inkscape:cx="352.10605"
     inkscape:cy="436.33012"
     inkscape:window-x="1272"
     inkscape:window-y="116"
     inkscape:window-maximized="1"
     inkscape:current-layer="svg4170"
     fit-margin-top="0"
     fit-margin-left="0"
     fit-margin-right="0"
     fit-margin-bottom="0" />
  <path
     style="fill:#000000"
     d="m 314.4711,728.24893 c -12.54988,-37.57026 -45.62701,-13.96726 -72.49056,-6.8212 -29.98952,7.65989 -49.91341,12.46049 -86.59709,-57.86538 -9.69506,-13.28922 -5.10388,-18.08978 3.11521,-25.24027 -9.54876,-7.48479 -12.19648,-18.73405 -5.33442,-27.07238 7.77867,-9.4521 4.43619,-17.26202 -14.05686,-21.37412 -21.8984,-15.65363 26.90103,-48.65122 23.58442,-77.10206 -8.59075,-28.08874 -14.30646,-57.41302 -2.74229,-86.29272 6.81947,-28.14961 28.53294,-48.8972 41.8978,-73.98928 13.83967,-15.10916 23.79183,-31.72773 39.96108,-43.43081 16.1175,-19.70381 39.37697,-30.63565 64.32776,-37.04423 29.83595,-10.82816 63.47068,-15.74481 94.42139,-6.40802 36.20849,5.61167 25.55253,-58.56549 -9.13617,-43.23216 -15.57367,6.2982 -58.49356,12.94649 -41.74162,-15.86729 10.56469,-9.84123 40.73827,-22.09497 56.848,-16.69839 17.01433,5.69959 35.02286,4.22441 20.42048,-14.8357 2.8302,16.48696 -17.47626,12.29237 -20.41324,8.77568 -14.05244,-16.82607 -0.23781,-43.06611 18.42801,-40.71862 13.71892,1.81367 41.45152,-14.98259 55.12217,-8.80775 27.41733,30.14529 -24.58725,21.32701 -27.8463,40.05549 -1.33377,27.73599 8.61804,52.35634 22.75581,39.91205 20.93799,-19.9795 -6.3568,-31.63283 -6.13326,-35.35248 1.44353,-24.0206 30.92357,5.92197 37.69479,-10.72459 3.55075,-3.89515 19.9922,-14.59621 40.65055,-2.43501 15.9982,33.59893 -51.4695,4.78161 -30.21913,46.09284 1.60114,17.0539 32.32412,-19.22789 35.75406,-29.26625 13.54226,-42.63387 -39.52915,-23.30007 -61.39515,-22.2884 -7.83769,-35.45825 46.67604,-30.50061 67.59861,-18.41379 27.53552,4.94551 17.85707,57.38767 24.36254,57.31406 19.58977,-9.28356 39.61372,-23.4094 8.28047,-41.92947 -8.2608,-34.71175 57.44268,-8.84917 52.32965,18.9491 10.8237,20.59259 -35.46499,32.04258 -26.94805,36.74333 -1.38407,27.12982 28.96609,-15.741 37.48143,-12.32222 -10.13534,-12.79959 4.32937,-25.61054 19.54447,-19.76717 -23.00746,-17.16822 -12.29259,-20.5448 -9.81063,-22.14612 8.15539,-9.31682 44.5116,-5.98825 49.22574,16.36608 18.43279,19.83147 -19.96871,43.54405 -9.08454,55.22292 24.95869,-6.35937 44.65873,11.62343 47.49779,35.06283 -8.56508,17.96279 -29.08858,23.83899 -26.91976,-3.39467 -27.32618,20.99432 -31.92737,24.28234 -77.01594,33.41955 17.89024,2.46171 55.90592,12.73074 52.72798,-10.75647 34.1427,-18.80203 35.00088,52.76901 -0.6133,48.90815 -3.86898,5.9079 29.75972,15.30425 31.30533,3.58269 2.60375,-41.3603 45.96784,5.12863 24.87514,25.57379 -14.34633,23.25312 -52.15645,7.0109 -63.05841,1.15021 14.83169,23.81929 53.50535,9.85006 56.43599,43.96847 36.23202,13.97709 -2.94029,41.96046 -10.84551,15.82217 -6.73712,-13.64642 -35.75546,-27.77379 -21.23274,-1.64041 4.09659,13.58694 43.93407,38.19062 5.97109,35.66866 -18.4757,0.57611 -43.94053,-50.35342 -49.28267,-43.13465 13.95439,11.28479 6.3415,32.73884 10.7214,37.14672 38.57905,-0.0666 23.09398,37.49532 -12.55999,32.73539 15.77025,6.47696 33.81627,-4.87504 45.78442,10.17857 14.32283,30.23511 -63.05546,-2.5985 -38.0843,18.02497 18.20834,18.49171 58.55351,-20.77195 53.8193,18.49587 -10.73271,9.72695 -27.85159,11.35711 -10.39004,24.91081 21.12278,24.91164 -30.1892,73.71504 -40.96182,35.14441 1.99119,-12.72066 25.01928,-32.23444 -4.58369,-35.89534 -19.85006,-4.18915 -20.69876,6.20289 -1.40486,6.89093 24.80638,20.7889 -12.88479,24.42496 -26.80532,26.05322 24.31881,15.53458 12.92051,30.56284 -7.73862,33.21681 -49.25469,-9.46706 -63.94593,-44.10457 -41.54454,-60.93143 23.98864,-16.36018 14.04639,-46.10274 4.26501,-21.95914 -15.83778,23.8532 -58.37507,27.81309 -79.6624,12.45332 -11.25213,-35.07276 51.38071,-9.7807 55.72882,-41.26265 7.25075,-36.90055 -19.70059,42.49353 -31.66385,2.46189 -9.47501,-20.72369 19.44264,-41.39775 -9.64891,-48.20805 -21.74307,-22.77188 17.60862,-28.03882 23.66997,-17.88895 -2.73504,-18.64018 -40.65983,-37.48435 -36.24858,-7.7648 -0.43703,27.74218 -6.30798,55.03967 -16.11523,81.01743 -7.9,33.57094 -11.05348,69.75411 1.34837,102.62198 8.52334,21.18091 22.64965,43.25477 40.33371,59.37249 14.58479,19.48412 35.12961,30.94931 54.21613,50.05241 -177.81955,0.61757 -177.96601,0.43009 -283.65235,1.27305 -4.616,-1.79619 -2.25168,0.56921 -8.52275,-4.3559 z"
     id="path4180"
     inkscape:connector-curvature="0"
     sodipodi:nodetypes="ccccscccccccccscsccccsccccccccccccccccccccccccccccccccccccccccccccccccccccc" />
  <g
     inkscape:groupmode="layer"
     id="layer6"
     inkscape:label="Trace"
     style="display:inline"
     transform="translate(114.35109,-88.653676)" />
  <flowRoot
     xml:space="preserve"
     id="flowRoot56087"
     style="font-style:normal;font-weight:normal;font-size:40px;line-height:125%;font-family:sans-serif;letter-spacing:0px;word-spacing:0px;fill:#000000;fill-opacity:1;stroke:none;stroke-width:1px;stroke-linecap:butt;stroke-linejoin:miter;stroke-opacity:1"
     transform="translate(-183.25123,-257.66966)"><flowRegion
       id="flowRegion56089"><rect
         id="rect56091"
         width="33.928471"
         height="50.892708"
         x="-390.17743"
         y="-124.59406" /></flowRegion><flowPara
       id="flowPara56093" /></flowRoot>  <g
     inkscape:groupmode="layer"
     id="layer2"
     inkscape:label="laurel 2"
     transform="translate(-183.25123,-257.66966)"
     style="display:inline">
    <path
       style="font-style:normal;font-variant:normal;font-weight:normal;font-stretch:normal;font-size:medium;line-height:125%;font-family:Andalus;-inkscape-font-specification:'Andalus, Normal';text-align:start;letter-spacing:0px;word-spacing:0px;writing-mode:lr-tb;text-anchor:start;fill:#000000;fill-opacity:1;stroke:#000000;stroke-width:1.60394514;stroke-linecap:butt;stroke-linejoin:miter;stroke-miterlimit:4;stroke-dasharray:none;stroke-opacity:1"
       d="m 460.61326,392.3278 c -12.9319,0.65683 -25.79668,5.30766 -38.59264,13.9532 -14.17291,9.63164 -23.15872,21.0819 -26.9586,34.35107 -1.33115,4.64839 -1.65017,9.03737 -0.95627,13.16651 0.73834,4.79317 2.33884,8.62739 4.79967,11.50075 3.63612,4.22957 9.50158,9.67814 17.59943,16.34628 9.61469,7.92369 15.58903,13.4087 17.92213,16.45511 5.71374,7.62209 7.25231,16.03797 4.61416,25.25029 -2.54129,8.87425 -7.23196,16.10896 -14.07231,21.70351 -6.81616,5.51003 -14.43036,8.4785 -22.84005,8.90565 -10.63114,0.53999 -17.93868,-3.83505 -21.92315,-13.12744 -3.67115,-8.47543 -3.83586,-18.54446 -0.49586,-30.20776 l -8.44975,0.42918 -13.06918,45.63856 c 11.4071,4.66775 22.3065,6.73781 32.69963,6.20992 13.72528,-0.69712 27.66782,-6.11154 41.82728,-16.2422 15.22577,-10.85114 24.87243,-23.37527 28.93853,-37.5741 2.66235,-9.29683 1.63335,-17.44904 -3.08397,-24.45545 -2.29142,-3.46497 -7.79716,-8.80803 -16.51897,-16.02746 -9.91457,-8.2416 -16.10549,-13.92327 -18.57305,-17.04617 -6.68595,-8.32229 -8.79571,-16.79299 -6.32701,-25.4137 1.98465,-6.93038 5.88,-12.75095 11.68495,-17.46003 5.65301,-4.45149 11.77341,-6.84493 18.35837,-7.17938 9.0444,-0.45939 15.24374,3.14126 18.60156,10.79973 3.0445,6.8415 3.40463,15.27532 1.07982,25.30459 l 8.68718,-0.44124 11.3999,-39.80573 c -10.5075,-3.71397 -19.29082,-5.39234 -26.3518,-5.03369 z m -131.60267,10.3077 -1.74156,6.08497 c 7.09191,-0.19364 11.46849,1.04166 13.12923,3.7058 1.66073,2.66412 1.38839,7.84144 -0.81409,15.53248 l -38.91808,135.90323 c -8.0354,28.05954 -18.04257,42.39306 -30.02242,43.00153 -5.5536,0.28207 -9.02487,-2.74833 -10.41407,-9.09088 -1.07985,-4.69253 -0.87757,-10.44934 0.60685,-17.27104 l -8.33014,0.42312 -11.50859,40.18691 c 4.24522,1.28355 8.19201,1.83383 11.8415,1.64846 8.72706,-0.44326 18.49953,-5.35435 29.31606,-14.7322 24.52549,-21.48457 40.85487,-46.42619 48.98706,-74.82381 L 361.60031,426.8405 c 2.17828,-7.60652 4.89644,-12.86614 8.15459,-15.7801 3.36167,-3.00253 8.59787,-4.768 15.70727,-5.29568 l 1.74341,-6.08505 -58.19499,2.95583 z"
       id="path4188"
       inkscape:connector-curvature="0" />
    <g
       id="g4183"
       transform="matrix(3.8033491,0,0,3.8033491,-4481.7534,-2674.0959)">
      <path
         style="fill:none;stroke:#000000;stroke-width:1.35465658px;stroke-linecap:butt;stroke-linejoin:miter;stroke-miterlimit:4;stroke-dasharray:none;stroke-opacity:1"
         d="m 1329.9527,771.51789 c -1.27,0.0635 -3.3655,1.71449 -5.4187,3.32314 2.2014,1.10067 4.3604,2.15897 5.5457,2.09547 1.2277,-0.0635 3.3443,-1.41813 5.4822,-2.75163 -2.1802,-1.37582 -4.3604,-2.73048 -5.6092,-2.66698 z m 5.6092,2.66698 c 2.1166,1.3335 4.2333,2.7093 5.461,2.7728 1.1853,0.0635 3.3443,-1.01597 5.5668,-2.09547 -2.0743,-1.62982 -4.1698,-3.25965 -5.4398,-3.32315 -1.2489,-0.0635 -3.429,1.27 -5.588,2.64582 z m 11.0278,0.67733 c 1.9262,1.524 3.81,3.0268 4.9953,3.2173 1.2065,0.1905 3.556,-0.6985 5.9267,-1.5663 -1.8415,-1.79917 -3.7042,-3.57715 -4.9318,-3.76765 -1.2489,-0.21167 -3.6407,0.95248 -5.9902,2.11665 z m 10.922,1.651 c 1.7992,1.7568 3.5769,3.51364 4.7622,3.83114 1.143,0.31747 3.4925,-0.27517 5.8632,-0.889 -1.6722,-2.01084 -3.3867,-4.04281 -4.6144,-4.38147 -1.2065,-0.3175 -3.6192,0.55033 -6.011,1.43933 z m 10.6254,2.94214 c 1.5875,1.90497 3.1326,3.76763 4.2333,4.19097 1.143,0.42333 3.6407,0.0635 6.1172,-0.29634 -1.4182,-2.13783 -2.8575,-4.25447 -4.0217,-4.72013 -1.1853,-0.4445 -3.7677,0.1905 -6.3288,0.8255 z m 10.3505,3.89463 c 1.397,2.07431 2.7728,4.19098 3.8735,4.74128 1.0583,0.55034 3.4713,0.4445 5.9266,0.35984 -1.2276,-2.32831 -2.4765,-4.67778 -3.5983,-5.24928 -1.1218,-0.5715 -3.6618,-0.23284 -6.2018,0.14816 z m 9.8001,5.10112 c 1.143,2.159 2.2649,4.31797 3.2597,4.95297 1.0372,0.67733 3.5348,0.8255 6.0537,0.99483 -0.9525,-2.39183 -1.9262,-4.76247 -2.9634,-5.4398 -1.0583,-0.6985 -3.7253,-0.61384 -6.35,-0.508 z m 9.3134,5.9478 c 0.931,2.32831 1.8412,4.67772 2.7937,5.43972 0.9102,0.762 3.302,1.16417 5.715,1.5875 -0.6985,-2.51875 -1.4393,-5.07991 -2.4342,-5.88422 -0.9525,-0.78317 -3.5136,-0.97367 -6.0745,-1.143 z m 8.5087,7.02722 c 0.6773,2.37067 1.3335,4.699 2.1802,5.5245 0.8466,0.86783 3.2808,1.54517 5.6938,2.2225 -0.4233,-2.51883 -0.8678,-5.05883 -1.7568,-5.92667 -0.889,-0.91016 -3.5137,-1.37583 -6.1172,-1.82033 z m 7.874,7.747 c 0.4445,2.4765 0.8467,4.97417 1.6087,5.9055 0.7408,0.93133 3.0056,1.8415 5.2705,2.75167 -0.1694,-2.62467 -0.3599,-5.2705 -1.1642,-6.26534 -0.7832,-0.97366 -3.2385,-1.69333 -5.715,-2.39183 z m 6.8792,8.65717 c 0.1693,2.43416 0.3175,4.86833 0.9736,5.86316 0.6562,1.016 2.8999,2.18017 5.1224,3.34434 0.1058,-2.56117 0.1693,-5.12234 -0.4869,-6.1595 -0.6985,-1.0795 -3.175,-2.07434 -5.6091,-3.048 z m 6.096,9.2075 c -0.1059,2.51855 -0.2329,5.03738 0.3386,6.11688 0.5292,1.05834 2.54,2.413 4.572,3.78884 0.381,-2.6035 0.762,-5.24934 0.1694,-6.37117 -0.5504,-1.12183 -2.8152,-2.32833 -5.08,-3.53455 z m 4.9106,9.90572 c -0.3386,2.413 -0.6985,4.826 -0.2751,5.92666 0.4445,1.143 2.3918,2.7305 4.318,4.33917 0.6347,-2.4765 1.2485,-4.97417 0.804,-6.13833 -0.4445,-1.18534 -2.6667,-2.667 -4.8469,-4.1275 z m 4.0429,10.26583 c -0.6139,2.43417 -1.2489,4.86833 -0.9314,6.05367 0.2964,1.143 1.9894,2.87866 3.7039,4.65666 0.889,-2.4765 1.8203,-4.97416 1.4817,-6.20183 -0.3175,-1.2065 -2.286,-2.8575 -4.2542,-4.5085 z m 2.7725,10.71033 c -0.8467,2.286 -1.6933,4.572 -1.5028,5.73617 0.1905,1.2065 1.7568,3.17472 3.302,5.14322 1.143,-2.286 2.2648,-4.59289 2.0743,-5.82055 -0.2117,-1.27 -2.0532,-3.175 -3.8735,-5.05884 z m 1.7992,10.87939 c -1.1007,2.26483 -2.2437,4.5085 -2.1802,5.73616 0.063,1.18534 1.3547,3.2385 2.667,5.31284 1.397,-2.2225 2.8152,-4.48734 2.7517,-5.75734 -0.085,-1.22766 -1.651,-3.25966 -3.2385,-5.29166 z m 0.4868,11.049 c -1.3123,2.07433 -2.6035,4.1275 -2.667,5.31283 -0.063,1.2065 1.0583,3.47133 2.1802,5.715 1.5875,-2.01083 3.1538,-4.04283 3.2173,-5.2705 0.064,-1.27 -1.3335,-3.53483 -2.7305,-5.75733 z m -0.4868,11.02783 c -1.5664,1.98967 -3.1327,3.937 -3.3444,5.1435 -0.1693,1.18533 0.6562,3.45017 1.5029,5.75733 1.8415,-1.88383 3.683,-3.78883 3.8735,-5.05883 0.2116,-1.22767 -0.9102,-3.53483 -2.032,-5.842 z m -1.8415,10.90083 c -1.7145,1.75684 -3.4076,3.49222 -3.7039,4.63522 -0.3175,1.18533 0.3175,3.6195 0.9313,6.05367 1.9682,-1.62984 3.9367,-3.28084 4.2542,-4.48734 0.3387,-1.22766 -0.5715,-3.72533 -1.4816,-6.20155 z m -2.7726,10.68889 c -1.9261,1.60866 -3.8735,3.21733 -4.318,4.33916 -0.4233,1.12184 -0.085,3.51367 0.254,5.94784 2.2014,-1.4605 4.4024,-2.94217 4.8469,-4.14867 0.4445,-1.143 -0.1482,-3.64067 -0.7829,-6.13833 z m -4.064,10.287 c -2.032,1.35466 -4.0428,2.70933 -4.5931,3.76766 -0.5504,1.0795 -0.4234,3.59834 -0.3387,6.11717 2.286,-1.2065 4.5297,-2.413 5.1012,-3.51367 0.5715,-1.143 0.2116,-3.76766 -0.1694,-6.37116 z m -4.9318,9.88483 c -2.2225,1.16417 -4.4662,2.30717 -5.1223,3.34433 -0.6562,0.99484 -0.8044,3.40784 -0.9737,5.86317 2.4342,-0.97367 4.9107,-1.9685 5.588,-3.048 0.6773,-1.03717 0.6138,-3.59833 0.508,-6.1595 z m -6.096,9.2075 c -2.286,0.90989 -4.5297,1.79889 -5.2917,2.73022 -0.762,0.93133 -1.1641,3.429 -1.5875,5.9055 2.4554,-0.6985 4.9319,-1.41817 5.715,-2.37067 0.8044,-0.99483 0.9737,-3.64066 1.1642,-6.26505 z m -6.8792,8.63572 c -2.4341,0.67733 -4.8683,1.3335 -5.715,2.20133 -0.8466,0.84667 -1.5028,3.175 -2.1801,5.5245 2.5823,-0.4445 5.207,-0.889 6.1171,-1.79916 0.8679,-0.86784 1.3335,-3.40784 1.778,-5.92667 z m -7.8951,7.72583 c -2.413,0.42334 -4.8049,0.8255 -5.7362,1.5875 -0.9313,0.762 -1.8627,3.1115 -2.7937,5.43984 2.5609,-0.16934 5.122,-0.35984 6.0957,-1.12184 0.9737,-0.80433 1.7145,-3.3655 2.4342,-5.9055 z m -8.5299,7.02734 c -2.4977,0.16933 -5.0165,0.3175 -6.0537,0.97366 -0.9948,0.65617 -2.1167,2.794 -3.2597,4.953 2.6247,0.10584 5.2705,0.21167 6.35,-0.48683 1.0372,-0.67733 2.0109,-3.048 2.9634,-5.43983 z m -9.3134,5.92666 c -2.4553,-0.0847 -4.8895,-0.1905 -5.9478,0.35984 -1.0795,0.55033 -2.4553,2.64583 -3.8523,4.74133 2.54,0.35983 5.08,0.71967 6.1806,0.14817 1.143,-0.5715 2.3919,-2.921 3.6195,-5.24934 z m -9.8001,5.10117 c -2.4977,-0.35983 -4.9954,-0.74083 -6.1172,-0.3175 -1.1218,0.42333 -2.667,2.286 -4.2333,4.16983 2.54,0.65589 5.1223,1.29089 6.3076,0.84639 1.1642,-0.4445 2.6035,-2.56089 4.0429,-4.69872 z m -10.3505,3.85233 c -2.3919,-0.59266 -4.7414,-1.18533 -5.8844,-0.889 -1.1853,0.3175 -2.963,2.09522 -4.7833,3.83089 2.413,0.889 4.8257,1.778 6.0322,1.43933 1.2276,-0.3175 2.9421,-2.3495 4.6355,-4.38122 z m -10.6677,2.94189 c -2.3495,-0.86784 -4.699,-1.75684 -5.9055,-1.56634 -1.1854,0.1905 -3.0904,1.69334 -5.0165,3.19617 2.3706,1.16417 4.7625,2.32833 6.0113,2.13783 1.2277,-0.1905 3.0903,-1.9685 4.9107,-3.76766 z m -10.922,1.62983 c -2.2014,-1.0795 -4.3604,-2.159 -5.5669,-2.0955 -1.2065,0.0635 -3.3231,1.41817 -5.461,2.77283 2.1802,1.35467 4.3604,2.70934 5.588,2.64584 1.27,-0.0635 3.3867,-1.69334 5.4399,-3.32317 z m -11.0279,0.67733 c -2.1166,-1.35466 -4.2333,-2.70933 -5.461,-2.77283 -1.1853,-0.0635 -3.3655,0.99483 -5.5668,2.07433 2.0743,1.62984 4.1698,3.28084 5.4398,3.34434 1.2489,0.0635 3.429,-1.29117 5.588,-2.64584 z m -11.0278,-0.6985 c -1.9262,-1.50283 -3.8309,-3.00566 -4.9951,-3.19616 -1.2065,-0.1905 -3.556,0.6985 -5.9266,1.56633 1.8415,1.79917 3.683,3.556 4.9106,3.76767 1.27,0.1905 3.6616,-0.97367 6.0111,-2.13784 z m -10.9217,-1.62983 c -1.7992,-1.75683 -3.5772,-3.53455 -4.7625,-3.85205 -1.143,-0.29633 -3.4925,0.29633 -5.8844,0.889 1.6934,2.01055 3.3867,4.06372 4.6355,4.38122 1.1854,0.33866 3.5984,-0.52917 6.0114,-1.41817 z m -10.6469,-2.96305 c -1.5663,-1.88383 -3.1115,-3.7465 -4.2121,-4.16983 -1.143,-0.4445 -3.6407,-0.0635 -6.1172,0.29633 1.4182,2.13783 2.8575,4.25422 4.0217,4.69872 1.1853,0.46566 3.7676,-0.1905 6.3076,-0.82522 z m -10.3293,-3.8735 c -1.397,-2.0955 -2.794,-4.191 -3.8735,-4.7625 -1.0583,-0.52917 -3.4713,-0.4445 -5.9264,-0.33867 1.2274,2.30717 2.4762,4.65667 3.5981,5.24934 1.1218,0.55033 3.6618,0.21166 6.2018,-0.14817 z m -9.7999,-5.10117 c -1.143,-2.18016 -2.2648,-4.318 -3.2808,-4.97416 -1.016,-0.65617 -3.5349,-0.80434 -6.0325,-0.97367 0.9525,2.39183 1.905,4.7625 2.9633,5.43983 1.0583,0.6985 3.7253,0.59267 6.35,0.508 z m -9.3133,-5.94783 c -0.9314,-2.3495 -1.8415,-4.67783 -2.794,-5.461 -0.9314,-0.74083 -3.3232,-1.16417 -5.7362,-1.56633 0.7197,2.51883 1.4605,5.08 2.4342,5.88433 0.9736,0.78317 3.5348,0.97367 6.096,1.143 z m -8.5302,-7.02733 c -0.6562,-2.37067 -1.3123,-4.699 -2.159,-5.54567 -0.8678,-0.86783 -3.2808,-1.524 -5.715,-2.2225 0.4445,2.54 0.889,5.05883 1.778,5.94783 0.889,0.889 3.5137,1.35467 6.096,1.82034 z m -7.874,-7.76817 c -0.4233,-2.4765 -0.8255,-4.953 -1.5875,-5.9055 -0.7407,-0.93133 -3.0056,-1.82033 -5.2704,-2.73022 0.1694,2.62439 0.3599,5.27022 1.143,6.26505 0.7832,0.9525 3.2597,1.67217 5.7149,2.37067 z m -6.8579,-8.63572 c -0.1693,-2.45533 -0.3175,-4.86833 -0.9736,-5.86317 -0.6562,-1.03716 -2.8998,-2.18016 -5.1223,-3.3655 -0.1059,2.56117 -0.1905,5.1435 0.4868,6.18067 0.6985,1.05833 3.175,2.07433 5.6091,3.048 z m -6.0959,-9.22867 c 0.1058,-2.49766 0.2116,-5.0165 -0.3387,-6.11716 -0.5291,-1.05834 -2.54,-2.39184 -4.5931,-3.76767 -0.3599,2.6035 -0.7409,5.22817 -0.1694,6.37117 0.5715,1.10066 2.8364,2.32833 5.1012,3.51366 z m -4.9318,-9.88483 c 0.3598,-2.43417 0.7196,-4.826 0.2751,-5.92667 -0.4233,-1.143 -2.3706,-2.75166 -4.3179,-4.36033 -0.6139,2.49767 -1.2277,4.97417 -0.7832,6.13833 0.4445,1.2065 2.6458,2.68817 4.826,4.14867 z m -4.0428,-10.287 c 0.635,-2.43417 1.2699,-4.86833 0.9525,-6.05367 -0.2964,-1.143 -1.9897,-2.87838 -3.7042,-4.63521 -0.9101,2.45533 -1.8203,4.95271 -1.4816,6.20155 0.3175,1.18533 2.2648,2.8575 4.2333,4.48733 z m -2.7517,-10.68888 c 0.8467,-2.30717 1.6933,-4.572 1.5028,-5.75734 -0.1905,-1.2065 -1.7568,-3.175 -3.3231,-5.1435 -1.1218,2.30717 -2.2436,4.61434 -2.0531,5.842 0.1905,1.24884 2.0531,3.175 3.8734,5.05884 z m -1.8203,-10.90084 c 1.1218,-2.24366 2.2648,-4.5085 2.2013,-5.715 -0.063,-1.18533 -1.3546,-3.2385 -2.667,-5.31283 -1.3969,2.2225 -2.8151,4.46617 -2.7516,5.73617 0.063,1.24883 1.6298,3.28083 3.2173,5.29166 z m -0.4657,-11.02783 c 1.3124,-2.07433 2.6035,-4.1275 2.667,-5.31283 0.063,-1.22767 -1.0583,-3.47134 -2.1801,-5.73617 -1.5875,2.01083 -3.1538,4.04283 -3.2173,5.29167 -0.085,1.27 1.3335,3.53483 2.7304,5.75733 z m 0.4869,-11.049 c 1.5663,-1.9685 3.1326,-3.93672 3.3231,-5.14322 0.1905,-1.16416 -0.635,-3.45016 -1.4817,-5.73616 -1.8414,1.86266 -3.6829,3.78883 -3.8946,5.03766 -0.1905,1.22767 0.9313,3.53455 2.0532,5.84172 z m 1.8414,-10.87938 c 1.7145,-1.778 3.4079,-3.4925 3.7042,-4.65667 0.3175,-1.16417 -0.3175,-3.59833 -0.9313,-6.05367 -1.9897,1.651 -3.937,3.302 -4.2545,4.5085 -0.3387,1.22767 0.5715,3.72534 1.4816,6.20184 z m 2.7729,-10.71034 c 1.9261,-1.60866 3.8734,-3.19616 4.3179,-4.33916 0.4234,-1.10067 0.085,-3.4925 -0.2751,-5.92667 -2.1802,1.4605 -4.3815,2.94217 -4.8472,4.1275 -0.4445,1.16417 0.1694,3.66183 0.8044,6.13833 z m 4.0428,-10.26583 c 2.0531,-1.37583 4.064,-2.70933 4.6143,-3.76767 0.5503,-1.10066 0.4233,-3.59833 0.3386,-6.11688 -2.2859,1.18505 -4.5296,2.41272 -5.1011,3.51338 -0.5927,1.12184 -0.2117,3.76767 0.1482,6.37117 z m 4.9529,-9.88455 c 2.2225,-1.16417 4.4662,-2.32834 5.1223,-3.34434 0.6562,-0.99483 0.8044,-3.40783 0.9737,-5.86316 -2.4342,0.97366 -4.9106,1.9685 -5.6091,3.02683 -0.6774,1.05833 -0.5927,3.6195 -0.4869,6.18067 z m 6.096,-9.2075 c 2.286,-0.91017 4.5296,-1.79917 5.2704,-2.7305 0.7831,-0.9525 1.1853,-3.429 1.6086,-5.9055 -2.4552,0.6985 -4.9317,1.397 -5.7149,2.37066 -0.8043,0.99484 -0.9948,3.64067 -1.1641,6.26534 z m 6.879,-8.636 c 2.4342,-0.6985 4.8472,-1.35467 5.715,-2.2225 0.8467,-0.8255 1.5029,-3.15384 2.1802,-5.5245 -2.6035,0.4445 -5.207,0.91016 -6.1172,1.79916 -0.8678,0.889 -1.3335,3.40784 -1.778,5.94784 z m 7.8952,-7.747 c 2.413,-0.42334 4.8048,-0.8255 5.7362,-1.56634 0.9313,-0.76191 1.8626,-3.11141 2.794,-5.46088 -2.5612,0.16933 -5.1224,0.35983 -6.096,1.143 -0.9949,0.8043 -1.7145,3.36547 -2.4342,5.88422 z m 8.5302,-7.02722 c 2.4976,-0.14817 5.0165,-0.29634 6.0325,-0.9525 1.016,-0.65617 2.1378,-2.79397 3.2808,-4.97414 -2.6247,-0.0847 -5.2917,-0.1905 -6.35,0.508 -1.0372,0.67733 -2.0108,3.04797 -2.9633,5.41864 z m 9.3133,-5.92664 c 2.4551,0.10583 4.8681,0.1905 5.9264,-0.33867 1.1007,-0.5503 2.4765,-2.66697 3.8735,-4.74128 -2.54,-0.381 -5.08,-0.71966 -6.1807,-0.16933 -1.143,0.59267 -2.3918,2.94214 -3.6192,5.24928 z m 9.7999,-5.07995 c 2.4977,0.35984 4.9742,0.74084 6.1172,0.29634 1.1218,-0.42334 2.667,-2.286 4.2333,-4.16981 -2.54,-0.635 -5.1223,-1.29116 -6.3077,-0.8255 -1.1641,0.4445 -2.6035,2.56114 -4.0428,4.69897 z m 10.3505,-3.87347 c 2.3918,0.61384 4.7413,1.20648 5.8843,0.889 1.1642,-0.29633 2.9634,-2.07433 4.7625,-3.83113 -2.3918,-0.889 -4.8048,-1.75684 -6.0113,-1.43934 -1.2277,0.33867 -2.9422,2.37064 -4.6355,4.38147 z m 10.6468,-2.94213 c 2.3707,0.8678 4.7202,1.7568 5.9267,1.5663 1.1642,-0.16933 3.0689,-1.67214 5.0162,-3.19614 -2.3706,-1.143 -4.7622,-2.32831 -6.011,-2.11665 -1.2277,0.1905 -3.0904,1.96849 -4.9319,3.74649 z"
         id="path4172"
         inkscape:connector-curvature="0" />
      <path
         style="fill:none;fill-opacity:1;fill-rule:nonzero;stroke:#000000;stroke-width:1.52398872px;stroke-linecap:butt;stroke-linejoin:miter;stroke-miterlimit:4;stroke-dasharray:none;stroke-opacity:1"
         d="m 1335.4772,774.0367 c -58.3983,0 -105.7479,47.32841 -105.7479,105.72668 0,58.39855 47.3496,105.74782 105.7479,105.74782 58.3985,0 105.7266,-47.34927 105.7266,-105.74782 0,-58.39827 -47.3281,-105.72668 -105.7266,-105.72668 z"
         id="path4174"
         inkscape:connector-curvature="0" />
    </g>
  </g>
</svg>
