<?xml version="1.0" encoding="UTF-8" standalone="no"?>
<!-- Created with Inkscape (http://www.inkscape.org/) -->

<svg
   xmlns:dc="http://purl.org/dc/elements/1.1/"
   xmlns:cc="http://creativecommons.org/ns#"
   xmlns:rdf="http://www.w3.org/1999/02/22-rdf-syntax-ns#"
   xmlns:svg="http://www.w3.org/2000/svg"
   xmlns="http://www.w3.org/2000/svg"
   xmlns:sodipodi="http://sodipodi.sourceforge.net/DTD/sodipodi-0.dtd"
   xmlns:inkscape="http://www.inkscape.org/namespaces/inkscape"
   id="svg4170"
   version="1.1"
   inkscape:version="0.91 r13725"
   width="650"
   height="651"
   viewBox="0 0 650 651"
   sodipodi:docname="201610_JS_profile_v3.svg">
  <metadata
     id="metadata4176">
    <rdf:RDF>
      <cc:Work
         rdf:about="">
        <dc:format>image/svg+xml</dc:format>
        <dc:type
           rdf:resource="http://purl.org/dc/dcmitype/StillImage" />
        <dc:title />
      </cc:Work>
    </rdf:RDF>
  </metadata>
  <defs
     id="defs4174" />
  <sodipodi:namedview
     pagecolor="#ffffff"
     bordercolor="#666666"
     borderopacity="1"
     objecttolerance="10"
     gridtolerance="10"
     guidetolerance="10"
     inkscape:pageopacity="0"
     inkscape:pageshadow="2"
     inkscape:window-width="1229"
     inkscape:window-height="776"
     id="namedview4172"
     showgrid="false"
     inkscape:zoom="0.66691529"
     inkscape:cx="348.25325"
     inkscape:cy="394.59376"
     inkscape:window-x="51"
     inkscape:window-y="24"
     inkscape:window-maximized="1"
     inkscape:current-layer="svg4170" />
  <path
     style="fill:#000000"
     d="m 186.73103,644.70792 c -12.90637,-40.53297 -46.92305,-15.06868 -74.54965,-7.3591 -30.841364,8.26394 -51.331176,13.44312 -89.05684,-62.42854 -9.970469,-14.33718 -5.248865,-19.5163 3.20367,-27.23066 -9.81998,-8.07504 -12.54291,-20.2114 -5.485938,-29.20726 7.999615,-10.19748 4.562195,-18.62327 -14.4561401,-23.05965 -22.5204299,-16.88806 27.6651461,-52.48777 24.2543371,-83.1822 -8.834782,-30.30375 -14.712828,-61.94049 -2.820185,-93.09759 7.013164,-30.36945 29.343404,-52.75315 43.087897,-79.82394 14.232778,-16.30065 24.46763,-34.22972 41.096149,-46.8557 16.57532,-21.25761 40.49547,-33.05152 66.15499,-39.96545 30.68343,-11.68206 65.27356,-16.98643 97.10341,-6.91336 37.23699,6.05419 26.27837,-63.183852 -9.39569,-46.641361 -16.01603,6.794851 -60.15505,13.967421 -42.92727,-17.118576 10.86478,-10.617294 41.89543,-23.83732 58.46276,-18.015189 17.49761,6.149054 36.01768,4.557547 21.00051,-16.005627 2.91059,17.787105 -17.97266,13.261732 -20.99307,9.467733 -14.45161,-18.152961 -0.24455,-46.462245 18.95143,-43.929635 14.10863,1.956698 42.62897,-16.1641045 56.68792,-9.5023078 28.19613,32.5224958 -25.28563,23.0088178 -28.63726,43.2141928 -1.37167,29.923205 8.86284,56.48508 23.40219,43.059441 21.53273,-21.555029 -6.53737,-34.127328 -6.30748,-38.14033 1.48454,-25.914803 31.80195,6.388988 38.7655,-11.570292 3.65161,-4.202326 20.56008,-15.747253 41.80522,-2.627036 16.45262,36.248499 -52.93148,5.158683 -31.07749,49.727653 1.64661,18.398744 33.24226,-20.744167 36.76963,-31.574134 13.92695,-45.9959185 -40.65196,-25.137486 -63.13905,-24.04604 -8.06033,-38.2544407 48.00186,-32.9058267 69.51873,-19.865879 28.31766,5.335516 18.3643,61.913182 25.05456,61.833758 20.14622,-10.015635 40.73893,-25.255422 8.51567,-45.235944 -8.49545,-37.4490674 59.07432,-9.547004 53.81606,20.443382 11.13115,22.216484 -36.47236,34.569419 -27.7135,39.64085 -1.42339,29.269241 29.78886,-16.98229 38.54608,-13.293938 -10.42324,-13.80892 4.45236,-27.630144 20.09964,-21.325962 -23.66099,-18.522088 -12.64179,-22.164938 -10.0893,-23.892534 8.38703,-10.051531 45.77595,-6.460474 50.62397,17.65668 18.95636,21.395365 -20.53593,46.977867 -9.34258,59.577715 25.66763,-6.86086 45.92725,12.54003 48.84696,37.82782 -8.80836,19.37931 -29.91482,25.71889 -27.6844,-3.66237 -28.10238,22.64991 -32.83428,26.19722 -79.20357,36.05497 18.39841,2.65583 57.49391,13.73466 54.2257,-11.60472 35.11253,-20.28473 35.99509,56.93029 -0.63072,52.76497 -3.97887,6.37379 30.60505,16.5111 32.19456,3.86521 2.6777,-44.6219 47.27353,5.53307 25.58169,27.59049 -14.75382,25.08682 -53.63792,7.56377 -64.84956,1.24091 15.25299,25.69765 55.02516,10.62682 58.03904,47.43574 37.26119,15.07931 -3.02381,45.2694 -11.15357,17.06989 -6.92848,-14.72256 -36.77109,-29.96398 -21.83586,-1.76977 4.21298,14.65838 45.18202,41.20227 6.14071,38.48142 -19.00049,0.62155 -45.18866,-54.3242 -50.68255,-46.53616 14.35077,12.17469 6.52164,35.32057 11.02596,40.07604 39.67487,-0.0719 23.74994,40.45213 -12.91676,35.31684 16.21819,6.98771 34.77683,-5.25947 47.08493,10.98124 14.72964,32.6194 -64.84656,-2.80342 -39.16609,19.44639 18.72555,19.94991 60.2167,-22.40999 55.34802,19.95441 -11.03756,10.494 -28.64272,12.25272 -10.68516,26.87523 21.72277,26.87614 -31.04672,79.52807 -42.12534,37.91585 2.04775,-13.72381 25.72994,-34.7764 -4.7139,-38.72599 -20.41389,-4.51951 -21.2867,6.69203 -1.44474,7.43433 25.511,22.42827 -13.2508,26.35107 -27.56673,28.10773 25.00959,16.75962 13.28753,32.97297 -7.95843,35.83623 -50.65376,-10.21362 -65.76231,-47.58257 -42.72461,-65.73637 24.67003,-17.65032 14.44539,-49.73833 4.38619,-23.6908 -16.28768,25.73422 -60.03323,30.00638 -81.92523,13.43536 -11.57172,-37.83852 52.84018,-10.55199 57.3118,-44.51653 7.45668,-39.81047 -20.26019,45.84447 -32.56326,2.65602 -9.74416,-22.35793 19.9949,-44.66231 -9.92299,-52.00965 -22.36068,-24.56763 18.10879,-30.24992 24.34232,-19.29964 -2.81273,-20.11012 -41.81477,-40.44031 -37.27823,-8.37713 -0.44944,29.92989 -6.48713,59.38001 -16.57296,87.40633 -8.1244,36.21829 -11.36747,75.2548 1.38667,110.71456 8.76543,22.8512 23.293,46.66577 41.47936,64.05449 14.99909,21.0206 36.12747,33.38992 55.75614,53.99946 -182.87047,0.66627 -183.0211,0.464 -291.70944,1.37344 -4.74711,-1.93782 -2.31564,0.6141 -8.76483,-4.69941 z"
     id="path4180"
     inkscape:connector-curvature="0"
     sodipodi:nodetypes="ccccscccccccccscsccccsccccccccccccccccccccccccccccccccccccccccccccccccccccc" />
  <g
     inkscape:groupmode="layer"
     id="layer6"
     inkscape:label="Trace"
     style="display:none" />
</svg>
