<?xml version="1.0" encoding="UTF-8" standalone="no"?>
<!-- Created with Inkscape (http://www.inkscape.org/) -->

<svg
   xmlns:dc="http://purl.org/dc/elements/1.1/"
   xmlns:cc="http://creativecommons.org/ns#"
   xmlns:rdf="http://www.w3.org/1999/02/22-rdf-syntax-ns#"
   xmlns:svg="http://www.w3.org/2000/svg"
   xmlns="http://www.w3.org/2000/svg"
   xmlns:sodipodi="http://sodipodi.sourceforge.net/DTD/sodipodi-0.dtd"
   xmlns:inkscape="http://www.inkscape.org/namespaces/inkscape"
   id="svg4170"
   version="1.1"
   inkscape:version="0.91 r13725"
   width="771.82037"
   height="773.15369"
   viewBox="0 0 771.82037 773.15371"
   sodipodi:docname="201610_JS_profile_v3_inits.svg">
  <metadata
     id="metadata4176">
    <rdf:RDF>
      <cc:Work
         rdf:about="">
        <dc:format>image/svg+xml</dc:format>
        <dc:type
           rdf:resource="http://purl.org/dc/dcmitype/StillImage" />
        <dc:title></dc:title>
      </cc:Work>
    </rdf:RDF>
  </metadata>
  <defs
     id="defs4174" />
  <sodipodi:namedview
     pagecolor="#ffffff"
     bordercolor="#666666"
     borderopacity="1"
     objecttolerance="10"
     gridtolerance="10"
     guidetolerance="10"
     inkscape:pageopacity="0"
     inkscape:pageshadow="2"
     inkscape:window-width="1600"
     inkscape:window-height="848"
     id="namedview4172"
     showgrid="false"
     inkscape:zoom="0.66691528"
     inkscape:cx="326.77497"
     inkscape:cy="402.94627"
     inkscape:window-x="1272"
     inkscape:window-y="116"
     inkscape:window-maximized="1"
     inkscape:current-layer="svg4170"
     fit-margin-top="0"
     fit-margin-left="0"
     fit-margin-right="0"
     fit-margin-bottom="0" />
  <path
     style="opacity:1;fill:#000000;stroke:#000000;stroke-width:1.04850817;stroke-opacity:1"
     d="m 449.39586,90.208252 c -16.74123,0.27183 -31.01141,6.89047 -26.9047,25.336548 20.36817,-0.93562 69.8045,-18.817038 57.18988,20.61222 -3.195,9.28383 -31.81401,42.83901 -33.30547,27.06694 -19.79472,-38.20606 43.05195,-11.55537 28.14964,-42.62883 -19.24328,-11.24712 -34.55874,-1.34921 -37.86627,2.25317 -6.30737,15.39532 -33.76751,-12.29769 -35.11216,9.91742 -0.20822,3.44005 25.21549,14.21823 5.71175,32.69597 -13.16934,11.50893 -22.43928,-11.26175 -21.19688,-36.91296 3.03581,-17.32074 51.47895,-9.16472 25.93969,-37.044118 -12.7342,-5.71072 -38.56779,9.823838 -51.34696,8.14651 -17.38722,-2.17104 -30.25445,22.096218 -17.16462,37.657568 2.73582,3.25235 21.6507,7.13207 19.01436,-8.11565 13.60213,17.62747 -3.17333,18.99082 -19.02219,13.71963 -15.0062,-4.99096 -43.11301,6.34269 -52.95403,15.44422 -15.60443,26.64797 24.3753,20.49932 38.88217,14.67453 32.31253,-14.18081 42.23904,45.17197 8.51084,39.98212 -28.83058,-8.635 -60.16047,-4.08812 -87.95265,5.92614 -23.24167,5.92686 -44.90898,16.0377 -59.92245,34.26045 -15.06165,10.82342 -24.33255,26.19192 -37.2242,40.16539 -12.44937,23.20604 -32.67468,42.39462 -39.02701,68.42836 -10.77201,26.70895 -5.44786,53.82862 2.55443,79.80606 3.08942,26.31232 -42.366442,56.82949 -21.968087,71.30653 17.226257,3.80301 20.338997,11.02566 13.093177,19.7673 -6.39202,7.71156 -3.9248,18.11533 4.96985,25.03753 -7.65606,6.61302 -11.93378,11.05347 -2.90283,23.34378 34.17084,65.03984 52.72994,60.6007 80.66518,53.51657 25.02341,-6.60893 55.83482,-28.43818 67.52505,6.30809 5.8415,4.55491 3.63948,2.36675 7.93929,4.02793 98.44681,-0.77961 98.58316,-0.6056 264.22207,-1.17674 -17.77909,-17.66722 -36.91565,-28.27062 -50.5014,-46.29022 -16.47268,-14.90623 -29.63313,-35.32052 -37.57262,-54.90936 -11.55231,-30.39735 -8.61356,-63.86124 -1.25472,-94.90882 9.13546,-24.02514 14.60437,-49.27047 15.01145,-74.92743 -4.10907,-27.48566 31.21777,-10.05904 33.76547,7.18003 -5.64615,-9.38693 -42.30204,-4.51449 -22.04836,16.54574 27.09878,6.2984 0.16052,25.41698 8.98649,44.58299 11.14376,37.02265 36.25041,-36.40324 29.49634,-2.27632 -4.05027,29.11559 -62.39404,5.72456 -51.91269,38.16107 19.82917,14.20526 59.45282,10.54366 74.20572,-11.51661 9.11136,-22.32884 18.37381,5.17696 -3.97161,20.30744 -20.86688,15.56205 -7.18259,47.59682 38.69816,56.35229 19.24397,-2.45449 29.86214,-16.35368 7.20917,-30.72061 12.96697,-1.50586 48.07598,-4.86791 24.96883,-24.09422 -17.97227,-0.6363 -17.18279,-10.24795 1.30755,-6.37369 27.57518,3.38574 6.12589,21.43304 4.27109,33.19755 10.03469,35.67146 57.83182,-9.46392 38.15595,-32.50306 -16.26544,-12.53493 -0.32005,-14.04125 9.67747,-23.0371 4.40992,-36.31623 -33.17232,-0.005 -50.13338,-17.10707 -23.26065,-19.07331 48.81797,11.29328 35.47623,-16.6692 -11.14832,-13.9221 -27.95823,-3.42379 -42.64821,-9.41391 33.21167,4.40216 47.63588,-30.33663 11.69948,-30.27498 -4.07989,-4.07657 3.01177,-23.91843 -9.98675,-34.35499 4.9762,-6.67617 28.69722,40.42619 45.90734,39.89338 35.36252,2.33239 -1.74703,-20.42161 -5.563,-32.98729 -13.52791,-24.16906 13.50213,-11.10442 19.77777,1.51627 7.3637,24.1736 43.85431,-1.70559 10.10418,-14.63207 -2.7299,-31.5539 -38.75466,-18.63418 -52.57037,-40.6631 10.15516,5.42018 45.37459,20.44044 58.73819,-1.06485 19.64786,-18.90841 -20.74653,-61.90197 -23.17192,-23.65052 -1.43973,10.8405 -32.76361,2.14967 -29.15964,-3.31416 33.1746,3.57065 32.37548,-62.61994 0.57155,-45.23115 2.96026,21.72178 -32.45272,12.22301 -49.11748,9.94633 42,-8.45041 46.287,-11.49145 71.74132,-30.90774 -2.02025,25.18665 17.09812,19.75318 25.07649,3.14056 -2.64458,-21.67759 -20.99646,-38.30921 -44.24547,-32.42784 -10.13861,-10.80104 25.63204,-32.73159 8.46191,-51.07244 -4.39122,-20.67406 -38.25577,-23.75208 -45.85251,-15.13556 -2.31195,1.48096 -12.29424,4.6033 9.13721,20.48106 -14.17285,-5.40416 -27.64503,6.44438 -18.20397,18.2819 -7.93205,-3.16182 -36.20373,36.48761 -34.91448,11.39699 -7.93352,-4.3474 35.1842,-14.93793 25.10193,-33.98267 4.76278,-25.70881 -56.44051,-49.626401 -48.74557,-17.52377 29.18691,17.12801 10.53564,30.19068 -7.71224,38.77645 -6.05983,0.0681 2.95504,-48.43158 -22.69429,-53.005338 -8.52661,-4.89052 -23.0425,-8.51803 -36.06348,-8.30664 z M 368.30983,293.98862 c 9.67949,0 22.56669,2.97775 38.66293,8.93358 l 0,55.00386 -11.90895,0 c -0.76131,-13.8969 -4.6215,-25.74916 -11.58202,-35.55874 -7.72187,-10.9774 -17.78299,-16.46663 -30.18143,-16.46663 -9.02695,0 -16.58623,2.91899 -22.67669,8.75802 -6.19923,6.18939 -9.29775,14.07259 -9.29775,23.6486 0,11.91163 6.30835,23.9402 18.92432,36.08539 4.67661,4.55446 15.55117,12.96268 32.62624,25.22465 15.00866,10.74383 24.79733,18.62704 29.3652,23.64861 9.35322,10.15992 14.03075,21.66149 14.03075,34.5074 0,19.61915 -8.43033,36.49438 -25.28786,50.62485 -15.66122,13.19622 -32.89784,19.79431 -51.71304,19.79431 -14.24734,0 -30.23499,-3.6791 -47.96261,-11.03629 l 0,-63.05971 11.58205,0 c 0,16.11574 4.24202,30.24442 12.72517,42.38962 9.24446,13.31298 21.15316,19.96984 35.72679,19.96984 11.52839,0 20.93523,-3.62033 28.22206,-10.86072 7.28679,-7.3572 10.93021,-17.16616 10.93021,-29.42812 0,-12.72911 -5.491,-24.64014 -16.47558,-35.73429 -4.4591,-4.43767 -14.95575,-12.55399 -31.48702,-24.34886 -13.92107,-9.92635 -24.25271,-17.98392 -30.99573,-24.17331 -4.56784,-4.20409 -8.31866,-9.69335 -11.25515,-16.46663 -2.6102,-5.83905 -3.91679,-11.97085 -3.91679,-18.39378 0,-18.33457 7.93915,-33.74839 23.81787,-46.24393 14.3561,-11.21095 30.39941,-16.81772 48.12703,-16.81772 z m -178.9628,5.0812 79.77456,0 0,8.40694 c -9.6795,0.23357 -16.26029,2.33561 -19.74056,6.30615 -3.37152,3.85377 -5.05601,11.03565 -5.05601,21.54592 l 0,146.96893 c 0,39.23831 -12.77977,73.04754 -38.338,101.42525 -11.31087,12.37876 -22.94711,18.5674 -34.91053,18.5674 -5.00289,0 -10.71264,-1.05198 -17.12937,-3.15404 l 0,-55.52858 11.41958,0 c 0.65255,9.45924 2.66321,17.51681 6.03471,24.17331 4.45909,8.99213 10.495,13.48813 18.10808,13.48813 16.42252,0 24.6341,-19.3848 24.6341,-58.15599 l 0,-187.78441 c 0,-10.62705 -1.68451,-17.86576 -5.05601,-21.71953 -3.37153,-3.85376 -9.95231,-5.89897 -19.74055,-6.13254 l 0,-8.40694 z"
     id="path4180"
     inkscape:connector-curvature="0" />
  <g
     inkscape:groupmode="layer"
     id="layer6"
     inkscape:label="Profile"
     style="display:inline"
     transform="translate(27.541523,-52.986364)" />
  <flowRoot
     xml:space="preserve"
     id="flowRoot56087"
     style="font-style:normal;font-weight:normal;font-size:40px;line-height:125%;font-family:sans-serif;letter-spacing:0px;word-spacing:0px;fill:#000000;fill-opacity:1;stroke:#000000;stroke-width:1px;stroke-linecap:butt;stroke-linejoin:miter;stroke-opacity:1;opacity:1;"
     transform="translate(-270.06079,-222.00235)"><flowRegion
       id="flowRegion56089"><rect
         id="rect56091"
         width="33.928471"
         height="50.892708"
         x="-390.17743"
         y="-124.59406"
         style="stroke:#000000;stroke-opacity:1;" /></flowRegion><flowPara
       id="flowPara56093" /></flowRoot>  <g
     inkscape:groupmode="layer"
     id="layer2"
     inkscape:label="Inits"
     transform="translate(-270.06079,-222.00235)"
     style="display:inline" />
  <path
     style="opacity:1;fill:none;fill-opacity:0;stroke:#000000;stroke-width:4.82202435;stroke-linejoin:miter;stroke-miterlimit:4;stroke-dasharray:none;stroke-dashoffset:0;stroke-opacity:1"
     d="M 368.06836 1.9960938 C 363.56113 2.2256767 356.13067 8.0310914 348.80664 13.777344 C 356.60505 17.614794 364.3039 21.421694 368.51172 21.201172 C 372.82518 20.975113 380.33622 16.161552 387.87891 11.414062 C 380.1902 6.55891 372.46973 1.771904 368.06836 1.9960938 z M 387.87891 11.414062 C 395.41508 16.1729 402.92097 20.998066 407.23438 21.230469 C 411.44229 21.457189 419.14632 17.660383 426.95117 13.833984 C 419.63553 8.0769534 412.212 2.2615881 407.70508 2.0253906 C 403.30377 1.7947285 395.57519 6.5698991 387.87891 11.414062 z M 426.95117 13.833984 C 433.78135 19.208982 440.51795 24.534204 444.67969 25.193359 C 448.94578 25.869043 457.29544 22.721947 465.66016 19.646484 C 459.14853 13.298472 452.59229 7.0122532 448.24023 6.3164062 C 443.78414 5.6039256 435.30919 9.736392 426.95117 13.833984 z M 465.66016 19.646484 C 472.04184 25.867817 478.38022 32.149377 482.55078 33.273438 C 486.61915 34.369956 494.94418 32.256538 503.37305 30.136719 C 497.41462 22.984964 491.36293 15.753934 487.00391 14.585938 C 482.74665 13.445207 474.19561 16.508245 465.66016 19.646484 z M 503.37305 30.136719 C 508.93687 36.814836 514.41947 43.425411 518.35352 44.935547 C 522.38618 46.483541 531.20931 45.140303 540.03125 43.871094 C 534.98186 36.308127 529.87391 28.796386 525.76172 27.210938 C 521.5507 25.58738 512.40129 27.866159 503.37305 30.136719 z M 540.03125 43.871094 C 544.9801 51.283467 549.87295 58.744287 553.71875 60.710938 C 557.4704 62.629435 566.0525 62.293705 574.73828 61.972656 C 570.39688 53.738141 565.98002 45.406243 561.95898 43.357422 C 558.03218 41.356616 549.03207 42.576148 540.03125 43.871094 z M 574.73828 61.972656 C 578.79194 69.661395 582.78046 77.267498 586.31445 79.5625 C 589.93687 81.914922 598.84397 82.434691 607.73633 83.027344 C 604.36987 74.580254 600.93665 66.171277 597.24414 63.765625 C 593.46284 61.302119 584.04096 61.628805 574.73828 61.972656 z M 607.73633 83.027344 C 611.0361 91.307093 614.27195 99.622301 617.625 102.3457 C 620.89579 105.00229 629.36109 106.45933 637.92383 107.95117 C 635.38931 98.993853 632.80217 89.926046 629.29492 87.085938 C 625.86967 84.312214 616.81039 83.632107 607.73633 83.027344 z M 637.92383 107.95117 C 640.29029 116.31457 642.61028 124.58293 645.58984 127.5625 C 648.64423 130.61688 657.24878 132.97754 665.82422 135.40625 C 664.28755 126.44366 662.67812 117.50367 659.56641 114.38281 C 656.37993 111.18697 647.0947 109.54897 637.92383 107.95117 z M 665.82422 135.40625 C 667.33039 144.19096 668.76697 152.99841 671.48047 156.35938 C 674.12761 159.63815 682.10396 162.8208 690.16992 166.06055 C 689.55312 156.77198 688.90653 147.36468 686.06641 143.85742 C 683.29288 140.4324 674.57362 137.88423 665.82422 135.40625 z M 690.16992 166.06055 C 690.74582 174.73317 691.29489 183.30396 693.58984 186.83789 C 695.94252 190.46069 703.8686 194.56003 711.75195 198.71875 C 712.11233 189.63188 712.39697 180.55339 710.00195 176.85352 C 707.5497 173.06522 698.8077 169.52997 690.16992 166.06055 z M 711.75195 198.71875 C 711.39878 207.62401 710.97245 216.53725 712.92773 220.38867 C 714.83527 224.14604 721.97552 228.91787 729.19141 233.76367 C 730.51924 224.55017 731.8437 215.21432 729.79492 211.19336 C 727.79417 207.26667 719.79469 202.96155 711.75195 198.71875 z M 729.19141 233.76367 C 727.95153 242.36686 726.70667 250.86482 728.2168 254.79883 C 729.76473 258.83135 736.66571 264.4888 743.51172 270.19531 C 745.75351 261.38184 747.91916 252.56039 746.3457 248.44336 C 744.73463 244.22787 736.91932 238.95332 729.19141 233.76367 z M 743.51172 270.19531 C 741.31478 278.83244 739.04446 287.46104 740.15625 291.63477 C 741.24088 295.70659 747.23452 301.85951 753.28516 308.09961 C 756.49948 299.36375 759.73438 290.50738 758.56641 286.14844 C 757.42572 281.89131 750.49701 276.01793 743.51172 270.19531 z M 753.28516 308.09961 C 750.28358 316.25725 747.29976 324.31052 747.95898 328.47266 C 748.6347 332.73899 754.20672 339.70755 759.7168 346.71289 C 763.742 338.55816 767.6948 330.37956 767.01172 326.02539 C 766.31229 321.567 759.76528 314.78264 753.28516 308.09961 z M 759.7168 346.71289 C 755.77208 354.70456 751.75879 362.67458 751.97852 366.98828 C 752.19286 371.19638 756.77574 378.45902 761.39648 385.82031 C 766.35681 377.94373 771.36312 369.95374 771.12695 365.44727 C 770.89629 361.0461 765.33873 353.86044 759.7168 346.71289 z M 761.39648 385.82031 C 756.76438 393.17571 752.17172 400.43429 751.95117 404.64258 C 751.7251 408.95637 755.7268 416.93146 759.66016 424.92969 C 765.29289 417.79001 770.86053 410.61005 771.09766 406.20898 C 771.34048 401.70236 766.34578 393.70501 761.39648 385.82031 z M 759.66016 424.92969 C 754.14011 431.92654 748.55695 438.88529 747.875 443.15039 C 747.20977 447.31101 750.18072 455.36835 753.16992 463.5293 C 759.65979 456.85583 766.21785 450.08232 766.92383 445.625 C 767.61324 441.27225 763.67299 433.08954 759.66016 424.92969 z M 753.16992 463.5293 C 747.11009 469.76056 741.11016 475.9063 740.01953 479.97656 C 738.90153 484.14902 741.15931 492.78075 743.34375 501.42188 C 750.33719 495.60983 757.27304 489.74545 758.41992 485.49023 C 759.59444 481.13248 756.37181 472.2709 753.16992 463.5293 z M 743.34375 501.42188 C 736.489 507.11865 729.57933 512.76445 728.02539 516.79492 C 726.50949 520.72672 727.73954 529.22701 728.9668 537.83203 C 736.70286 532.65337 744.52715 527.39116 746.14453 523.17773 C 747.72388 519.06338 745.5724 510.23786 743.34375 501.42188 z M 728.9668 537.83203 C 721.74438 542.66685 714.59844 547.42931 712.68555 551.18359 C 710.72446 555.03243 711.13644 563.94707 711.47656 572.85352 C 719.52629 568.62213 727.53041 564.32646 729.53711 560.40234 C 731.59179 556.3844 730.28111 547.04744 728.9668 537.83203 z M 711.47656 572.85352 C 703.58788 577.00025 695.65659 581.08609 693.29883 584.70508 C 690.9987 588.23562 690.43432 596.80485 689.8457 605.47656 C 698.48894 602.01967 707.23739 598.4997 709.69531 594.71484 C 712.09557 591.01876 711.82356 581.94022 711.47656 572.85352 z M 689.8457 605.47656 C 681.77539 608.70431 673.7944 611.87761 671.14258 615.15234 C 668.42415 618.50932 666.97609 627.31322 665.45703 636.0957 C 674.21006 633.63056 682.93239 631.09477 685.71094 627.67383 C 688.55622 624.17072 689.21527 614.76426 689.8457 605.47656 z M 665.45703 636.0957 C 656.87804 638.51183 648.2698 640.86026 645.21094 643.91016 C 642.22707 646.88527 639.8943 655.15005 637.51562 663.50977 C 646.68881 661.92543 655.97681 660.30052 659.16797 657.10938 C 662.28426 653.99309 663.90721 645.05604 665.45703 636.0957 z M 637.51562 663.50977 C 628.95067 664.98905 620.48368 666.43414 617.20898 669.08594 C 613.85226 671.80416 610.60651 680.11455 607.29492 688.38867 C 616.36914 687.79726 625.42641 687.13176 628.85547 684.36328 C 632.36696 681.52827 634.96792 672.46355 637.51562 663.50977 z M 607.29492 688.38867 C 598.40099 688.96833 589.49139 689.47693 585.86523 691.82422 C 582.32795 694.11399 578.32852 701.71386 574.26367 709.39648 C 583.56527 709.75396 592.98875 710.09452 596.77344 707.63672 C 600.46981 705.23627 603.91577 696.8316 607.29492 688.38867 z M 574.26367 709.39648 C 565.57778 709.06267 556.9969 708.71383 553.24219 710.62695 C 549.39351 712.58796 544.48902 720.04217 539.5293 727.44727 C 548.52822 728.75542 557.52729 729.98723 561.45703 727.99219 C 565.48115 725.94923 569.91011 717.62477 574.26367 709.39648 z M 539.5293 727.44727 C 530.70924 726.16511 521.88844 724.80948 517.85352 726.35156 C 513.91742 727.85586 508.42496 734.45727 502.85156 741.12695 C 511.87607 743.41066 521.02311 745.70324 525.23633 744.08594 C 529.35085 742.50652 534.46881 735.00282 539.5293 727.44727 z M 502.85156 741.12695 C 494.4254 738.99467 486.10533 736.87034 482.03516 737.96094 C 477.86295 739.07888 471.51385 745.34858 465.12305 751.56055 C 473.6541 754.71139 482.19994 757.78881 486.45898 756.6543 C 490.81988 755.49266 496.88245 748.2702 502.85156 741.12695 z M 465.12305 751.56055 C 456.76307 748.47289 448.41737 745.31497 444.15039 745.98438 C 439.98747 746.63746 433.24273 751.95309 426.4043 757.31836 C 434.75703 761.42858 443.22605 765.57319 447.68359 764.86719 C 452.03667 764.17773 458.60212 757.899 465.12305 751.56055 z M 426.4043 757.31836 C 418.60585 753.48089 410.90706 749.67206 406.69922 749.89258 C 402.38576 750.11864 394.8747 754.9322 387.33203 759.67969 C 395.02075 764.53485 402.7412 769.32185 407.14258 769.09766 C 411.64961 768.86809 419.08057 763.06437 426.4043 757.31836 z M 387.33203 759.67969 C 379.79587 754.92086 372.28994 750.09569 367.97656 749.86328 C 363.76892 749.63658 356.06602 753.43558 348.26172 757.26172 C 355.5767 763.01822 362.99936 768.83218 367.50586 769.06836 C 371.90716 769.29902 379.63574 764.52386 387.33203 759.67969 z M 348.26172 757.26172 C 341.43084 751.88617 334.6934 746.55961 330.53125 745.90039 C 326.26514 745.2247 317.9155 748.3718 309.55078 751.44727 C 316.06242 757.79529 322.61863 764.08149 326.9707 764.77734 C 331.42708 765.48987 339.90319 761.35957 348.26172 757.26172 z M 309.55078 751.44727 C 303.16912 745.22595 296.83072 738.94632 292.66016 737.82227 C 288.5915 736.72567 280.26541 738.83706 271.83594 740.95703 C 277.79489 748.10943 283.84761 755.33971 288.20703 756.50781 C 292.4643 757.64854 301.01533 754.5855 309.55078 751.44727 z M 271.83594 740.95703 C 266.27269 734.27959 260.79108 727.67014 256.85742 726.16016 C 252.82476 724.61216 244.00163 725.95345 235.17969 727.22266 C 240.22937 734.78606 245.33679 742.29923 249.44922 743.88477 C 253.65997 745.50822 262.80828 743.22744 271.83594 740.95703 z M 235.17969 727.22266 C 230.23113 719.81071 225.33776 712.34934 221.49219 710.38281 C 217.74055 708.46431 209.15843 708.80005 200.47266 709.12109 C 204.81406 717.35561 209.23092 725.68751 213.25195 727.73633 C 217.17875 729.73714 226.17886 728.5176 235.17969 727.22266 z M 200.47266 709.12109 C 196.419 701.43235 192.43048 693.82625 188.89648 691.53125 C 185.27407 689.17883 176.36697 688.65906 167.47461 688.06641 C 170.84107 696.5135 174.27234 704.92442 177.96484 707.33008 C 181.74616 709.79359 191.16998 709.46494 200.47266 709.12109 z M 167.47461 688.06641 C 164.17484 679.78666 160.93899 671.47146 157.58594 668.74805 C 154.31516 666.09147 145.84983 664.63637 137.28711 663.14453 C 139.8216 672.10177 142.4088 681.16773 145.91602 684.00781 C 149.34127 686.78153 158.40055 687.46164 167.47461 688.06641 z M 137.28711 663.14453 C 134.92063 654.78105 132.60069 646.51085 129.62109 643.53125 C 126.56671 640.47687 117.96216 638.11621 109.38672 635.6875 C 110.92339 644.6501 112.53282 653.59008 115.64453 656.71094 C 118.83102 659.90679 128.11622 661.54673 137.28711 663.14453 z M 109.38672 635.6875 C 107.88055 626.90279 106.44397 618.09533 103.73047 614.73438 C 101.0835 611.45581 93.108381 608.27272 85.042969 605.0332 C 85.659763 614.32172 86.304426 623.72909 89.144531 627.23633 C 91.918055 630.66135 100.63732 633.20952 109.38672 635.6875 z M 85.042969 605.0332 C 84.46707 596.36054 83.916066 587.7898 81.621094 584.25586 C 79.268417 580.63305 71.342348 576.53373 63.458984 572.375 C 63.098612 581.46187 62.813969 590.54231 65.208984 594.24219 C 67.661389 598.03072 76.404671 601.56358 85.042969 605.0332 z M 63.458984 572.375 C 63.812154 563.46974 64.238483 554.55845 62.283203 550.70703 C 60.375675 546.94968 53.235373 542.1778 46.019531 537.33203 C 44.69171 546.54544 43.367254 555.87947 45.416016 559.90039 C 47.416761 563.82708 55.416264 568.13221 63.458984 572.375 z M 46.019531 537.33203 C 47.259421 528.72875 48.504281 520.23092 46.994141 516.29688 C 45.44627 512.26454 38.544917 506.60664 31.699219 500.90039 C 29.457597 509.71324 27.291895 518.53366 28.865234 522.65039 C 30.476324 526.8659 38.291579 532.14235 46.019531 537.33203 z M 31.699219 500.90039 C 33.896302 492.26264 36.166552 483.63301 35.054688 479.45898 C 33.970106 475.38738 27.978039 469.2339 21.927734 462.99414 C 18.713152 471.73069 15.476462 480.58602 16.644531 484.94531 C 17.785276 489.20263 24.713607 495.07752 31.699219 500.90039 z M 21.927734 462.99414 C 24.929043 454.83723 27.911113 446.78286 27.251953 442.62109 C 26.576232 438.35476 21.004217 431.3862 15.494141 424.38086 C 11.468928 432.53561 7.5161321 440.71418 8.1992188 445.06836 C 8.8986862 449.52696 15.447305 456.31079 21.927734 462.99414 z M 15.494141 424.38086 C 19.438842 416.38921 23.452145 408.42112 23.232422 404.10742 C 23.018064 399.89908 18.43546 392.63515 13.814453 385.27344 C 8.8540898 393.15009 3.8478077 401.13997 4.0839844 405.64648 C 4.3146395 410.04765 9.8722093 417.23331 15.494141 424.38086 z M 13.814453 385.27344 C 18.446515 377.9181 23.03922 370.66138 23.259766 366.45312 C 23.485841 362.13934 19.484122 354.16423 15.550781 346.16602 C 9.9180647 353.30568 4.3504075 360.48371 4.1132812 364.88477 C 3.8704805 369.39115 8.8654082 377.38913 13.814453 385.27344 z M 15.550781 346.16602 C 21.070842 339.16915 26.653992 332.20847 27.335938 327.94336 C 28.001214 323.78248 25.030406 315.72591 22.041016 307.56445 C 15.551146 314.23792 8.9930794 321.01143 8.2871094 325.46875 C 7.5977002 329.82151 11.537937 338.00614 15.550781 346.16602 z M 22.041016 307.56445 C 28.100848 301.33319 34.100783 295.1894 35.191406 291.11914 C 36.309334 286.94697 34.051482 278.31432 31.867188 269.67383 C 24.873757 275.48587 17.93789 281.3483 16.791016 285.60352 C 15.61657 289.96102 18.839309 298.82334 22.041016 307.56445 z M 31.867188 269.67383 C 38.721949 263.97703 45.6316 258.32931 47.185547 254.29883 C 48.701447 250.36703 47.471395 241.86674 46.244141 233.26172 C 38.507818 238.44056 30.683845 243.70244 29.066406 247.91602 C 27.486943 252.03065 29.638373 260.85723 31.867188 269.67383 z M 46.244141 233.26172 C 53.466284 228.42708 60.612558 223.6643 62.525391 219.91016 C 64.486464 216.06134 64.074491 207.14861 63.734375 198.24219 C 55.684648 202.47357 47.680528 206.76728 45.673828 210.69141 C 43.619155 214.70934 44.929832 224.04631 46.244141 233.26172 z M 63.734375 198.24219 C 71.62306 194.09545 79.554351 190.00766 81.912109 186.38867 C 84.212263 182.8581 84.77661 174.28899 85.365234 165.61719 C 76.721808 169.07415 67.9736 172.59591 65.515625 176.38086 C 63.115355 180.07695 63.387373 189.15546 63.734375 198.24219 z M 85.365234 165.61719 C 93.435343 162.38952 101.4166 159.21801 104.06836 155.94336 C 106.78679 152.58637 108.23484 143.78056 109.75391 134.99805 C 101.00087 137.46319 92.278549 139.99897 89.5 143.41992 C 86.654748 146.92299 85.995659 156.32957 85.365234 165.61719 z M 109.75391 134.99805 C 118.33289 132.58192 126.94114 130.23349 130 127.18359 C 132.9839 124.20845 135.31662 115.94378 137.69531 107.58398 C 128.52214 109.16832 119.23412 110.79321 116.04297 113.98438 C 112.92669 117.10065 111.30373 126.03774 109.75391 134.99805 z M 137.69531 107.58398 C 146.26026 106.1047 154.72726 104.66156 158.00195 102.00977 C 161.35867 99.291543 164.60444 90.981131 167.91602 82.707031 C 158.8418 83.298443 149.78453 83.963948 146.35547 86.732422 C 142.84402 89.567418 140.243 98.630286 137.69531 107.58398 z M 167.91602 82.707031 C 176.80995 82.127369 185.71954 81.618777 189.3457 79.271484 C 192.88308 76.981657 196.88426 69.382049 200.94922 61.699219 C 191.64696 61.341713 182.22246 60.999051 178.4375 63.457031 C 174.74112 65.857491 171.29517 74.26408 167.91602 82.707031 z M 200.94922 61.699219 C 209.63442 62.03301 218.21434 62.381718 221.96875 60.46875 C 225.81783 58.507547 230.72335 51.052331 235.68359 43.646484 C 226.68403 42.338227 217.68393 41.10833 213.75391 43.103516 C 209.72989 45.146422 205.30267 53.471129 200.94922 61.699219 z M 235.68359 43.646484 C 244.50301 44.928555 253.32279 46.286102 257.35742 44.744141 C 261.29352 43.239837 266.78597 36.636484 272.35938 29.966797 C 263.33499 27.683125 254.18777 25.390532 249.97461 27.007812 C 245.86051 28.587068 240.74359 36.091699 235.68359 43.646484 z M 272.35938 29.966797 C 280.78566 32.099119 289.10555 34.225382 293.17578 33.134766 C 297.34798 32.016827 303.69709 25.745165 310.08789 19.533203 C 301.55683 16.382359 293.01099 13.304942 288.75195 14.439453 C 284.39107 15.601093 278.3285 22.823547 272.35938 29.966797 z M 310.08789 19.533203 C 318.44787 22.620861 326.79357 25.780733 331.06055 25.111328 C 335.22328 24.458276 341.96853 19.142352 348.80664 13.777344 C 340.45388 9.6671078 331.9849 5.5225074 327.52734 6.2285156 C 323.17427 6.9179746 316.60882 13.194755 310.08789 19.533203 z "
     id="path4151" />
  <path
     style="opacity:1;fill:#000000;fill-opacity:0;stroke:#000000;stroke-width:5.38516283;stroke-linejoin:miter;stroke-miterlimit:4;stroke-dasharray:none;stroke-dashoffset:0;stroke-opacity:1"
     d="M 387.60547,10.878912 A 374.66763,374.66763 0 0 0 12.937499,385.54688 374.66763,374.66763 0 0 0 387.60547,760.21484 374.66763,374.66763 0 0 0 762.27343,385.54688 374.66763,374.66763 0 0 0 387.60547,10.878912 Z"
     id="path4160"
     inkscape:connector-curvature="0" />
</svg>
