<?xml version="1.0" encoding="UTF-8" standalone="no"?>
<!-- Created with Inkscape (http://www.inkscape.org/) -->

<svg
   xmlns:dc="http://purl.org/dc/elements/1.1/"
   xmlns:cc="http://creativecommons.org/ns#"
   xmlns:rdf="http://www.w3.org/1999/02/22-rdf-syntax-ns#"
   xmlns:svg="http://www.w3.org/2000/svg"
   xmlns="http://www.w3.org/2000/svg"
   xmlns:xlink="http://www.w3.org/1999/xlink"
   xmlns:sodipodi="http://sodipodi.sourceforge.net/DTD/sodipodi-0.dtd"
   xmlns:inkscape="http://www.inkscape.org/namespaces/inkscape"
   id="svg4170"
   version="1.1"
   inkscape:version="0.91 r13725"
   width="1088.2017"
   height="1150.2482"
   viewBox="0 0 1088.2017 1150.2482"
   sodipodi:docname="201610_JS_profile_v3_logo_v2.svg">
  <metadata
     id="metadata4176">
    <rdf:RDF>
      <cc:Work
         rdf:about="">
        <dc:format>image/svg+xml</dc:format>
        <dc:type
           rdf:resource="http://purl.org/dc/dcmitype/StillImage" />
        <dc:title></dc:title>
      </cc:Work>
    </rdf:RDF>
  </metadata>
  <defs
     id="defs4174">
    <path
       style="fill:none;fill-opacity:1;stroke:#000000;stroke-width:4.40430593;stroke-opacity:1"
       d="M -39.408623,196.98495 A 402.84375,406.14575 21.040132 0 1 482.39237,-37.453058 402.84375,406.14575 21.040132 0 1 712.56304,486.24431 402.84375,406.14575 21.040132 0 1 190.76203,720.6823 402.84375,406.14575 21.040132 0 1 -39.408623,196.98495 Z"
       id="path3355-8"
       inkscape:connector-curvature="0" />
  </defs>
  <sodipodi:namedview
     pagecolor="#ffffff"
     bordercolor="#666666"
     borderopacity="1"
     objecttolerance="10"
     gridtolerance="10"
     guidetolerance="10"
     inkscape:pageopacity="0"
     inkscape:pageshadow="2"
     inkscape:window-width="1280"
     inkscape:window-height="1002"
     id="namedview4172"
     showgrid="false"
     inkscape:zoom="0.47158032"
     inkscape:cx="241.40561"
     inkscape:cy="567.72259"
     inkscape:window-x="-8"
     inkscape:window-y="-8"
     inkscape:window-maximized="1"
     inkscape:current-layer="svg4170"
     fit-margin-top="0"
     fit-margin-left="0"
     fit-margin-right="0"
     fit-margin-bottom="0" />
  <path
     style="fill:#000000"
     d="m 406.79395,883.8081 c -12.90637,-40.533 -46.92305,-15.0687 -74.54965,-7.3591 -30.84137,8.2639 -51.33118,13.4431 -89.05685,-62.4286 -9.97047,-14.33716 -5.24886,-19.51628 3.20367,-27.23064 -9.81998,-8.07504 -12.54291,-20.2114 -5.48593,-29.20726 7.99961,-10.19748 4.56219,-18.62327 -14.45614,-23.05965 -22.52043,-16.88806 27.66515,-52.48777 24.25433,-83.1822 -8.83478,-30.30375 -14.71283,-61.94049 -2.82018,-93.09759 7.01317,-30.36945 29.34341,-52.75315 43.0879,-79.82394 14.23278,-16.30065 24.46763,-34.22972 41.09615,-46.8557 16.57532,-21.25761 40.49547,-33.05152 66.15499,-39.96545 30.68343,-11.68206 65.27356,-16.98643 97.10341,-6.91336 37.23699,6.05419 26.27837,-63.18386 -9.39569,-46.64136 -16.01603,6.79485 -60.15505,13.96742 -42.92727,-17.11858 10.86478,-10.61729 41.89543,-23.83732 58.46276,-18.01519 17.49761,6.14905 36.01768,4.55755 21.00051,-16.00563 2.91059,17.78711 -17.97266,13.26174 -20.99307,9.46774 -14.45161,-18.15296 -0.24455,-46.46225 18.95143,-43.92964 14.10863,1.9567 42.62897,-16.16411 56.68792,-9.50231 28.19613,32.5225 -25.28563,23.00882 -28.63726,43.2142 -1.37167,29.9232 8.86284,56.48508 23.40219,43.05944 21.53273,-21.55503 -6.53737,-34.12733 -6.30748,-38.14033 1.48454,-25.91481 31.80195,6.38899 38.7655,-11.57029 3.65161,-4.20233 20.56008,-15.74726 41.80522,-2.62704 16.45262,36.2485 -52.93148,5.15868 -31.07749,49.72765 1.64661,18.39875 33.24226,-20.74416 36.76963,-31.57413 13.92695,-45.99592 -40.65196,-25.13749 -63.13905,-24.04604 -8.06033,-38.25445 48.00186,-32.90583 69.51873,-19.86588 28.31766,5.33551 18.3643,61.91318 25.05456,61.83376 20.14622,-10.01564 40.73893,-25.25542 8.51567,-45.23595 -8.49545,-37.44907 59.07432,-9.547 53.81606,20.44339 11.13115,22.21648 -36.47236,34.56941 -27.7135,39.64085 -1.42339,29.26924 29.78886,-16.98229 38.54608,-13.29394 -10.42324,-13.80892 4.45236,-27.63015 20.09964,-21.32596 -23.66099,-18.5221 -12.64179,-22.16495 -10.0893,-23.89254 8.38703,-10.05153 45.77598,-6.46048 50.62398,17.65668 18.9564,21.39537 -20.53594,46.97787 -9.3426,59.57772 25.6676,-6.86086 45.9273,12.54003 48.847,37.82782 -8.8084,19.37931 -29.9148,25.71889 -27.6844,-3.66237 -28.1024,22.64991 -32.83431,26.19722 -79.2036,36.05497 18.39841,2.65583 57.4939,13.73466 54.2257,-11.60472 35.1125,-20.28473 35.9951,56.93029 -0.6307,52.76497 -3.97889,6.37379 30.605,16.5111 32.1945,3.86521 2.6777,-44.6219 47.2736,5.53307 25.5817,27.59049 -14.7538,25.08682 -53.6379,7.56377 -64.84953,1.24091 15.25303,25.69765 55.02513,10.62682 58.03903,47.43574 37.2612,15.07931 -3.0238,45.2694 -11.1536,17.06989 -6.9284,-14.72256 -36.771,-29.96398 -21.8358,-1.76977 4.213,14.65838 45.182,41.20227 6.1407,38.48142 -19.0005,0.62155 -45.18867,-54.3242 -50.68256,-46.53616 14.35077,12.17469 6.52164,35.32057 11.02596,40.07604 39.6749,-0.0719 23.7499,40.45213 -12.91676,35.31684 16.21819,6.98771 34.77686,-5.25947 47.08496,10.98124 14.7296,32.6194 -64.84659,-2.80342 -39.16612,19.44639 18.72552,19.94991 60.21672,-22.40999 55.34802,19.95441 -11.0376,10.494 -28.6427,12.25272 -10.6852,26.87523 21.7228,26.87614 -31.04668,79.52807 -42.1253,37.91585 2.04775,-13.72381 25.7299,-34.7764 -4.7139,-38.72599 -20.41389,-4.51951 -21.2867,6.69203 -1.44474,7.43433 25.51104,22.42827 -13.2508,26.35107 -27.56673,28.10773 25.00959,16.75962 13.28753,32.97297 -7.95843,35.83623 -50.65376,-10.21362 -65.76231,-47.58257 -42.72461,-65.73637 24.67003,-17.65032 14.44539,-49.73833 4.38619,-23.6908 -16.28768,25.73422 -60.03323,30.00638 -81.92523,13.43536 -11.57172,-37.83852 52.84018,-10.55199 57.3118,-44.51653 7.45668,-39.81047 -20.26019,45.84447 -32.56326,2.65602 -9.74416,-22.35793 19.9949,-44.66231 -9.92299,-52.00965 -22.36068,-24.56763 18.10879,-30.24992 24.34232,-19.29964 -2.81273,-20.11012 -41.81477,-40.44031 -37.27823,-8.37713 -0.44944,29.92989 -6.48713,59.38001 -16.57296,87.40633 -8.1244,36.21829 -11.36747,75.2548 1.38667,110.71456 8.76543,22.8512 23.293,46.66572 41.47936,64.05452 14.99909,21.0206 36.12747,33.3899 55.75614,53.9994 -182.87047,0.6663 -183.0211,0.464 -291.70944,1.3735 -4.74711,-1.9379 -2.31564,0.6141 -8.76483,-4.6994 z"
     id="path4180"
     inkscape:connector-curvature="0"
     sodipodi:nodetypes="ccccscccccccccscsccccsccccccccccccccccccccccccccccccccccccccccccccccccccccc" />
  <g
     inkscape:groupmode="layer"
     id="layer6"
     inkscape:label="Trace"
     style="display:none"
     transform="translate(207.33974,200.9306)" />
  <path
     style="fill:none;fill-opacity:1;stroke:none;stroke-width:4.40430593;stroke-opacity:1"
     d="M 167.93112,397.91556 A 402.84375,406.14575 21.040132 0 1 689.73212,163.47755 402.84375,406.14575 21.040132 0 1 919.90279,687.17492 402.84375,406.14575 21.040132 0 1 398.10178,921.61291 402.84375,406.14575 21.040132 0 1 167.93112,397.91556 Z"
     id="path3355"
     inkscape:connector-curvature="0" />
  <text
     xml:space="preserve"
     style="font-style:normal;font-variant:normal;font-weight:normal;font-stretch:normal;font-size:180px;line-height:125%;font-family:Castellar;-inkscape-font-specification:'Castellar, Normal';text-align:start;letter-spacing:0px;word-spacing:0px;writing-mode:lr-tb;text-anchor:start;fill:#000000;fill-opacity:1;stroke:none;stroke-width:1px;stroke-linecap:butt;stroke-linejoin:miter;stroke-opacity:1"
     id="text4177"
     sodipodi:linespacing="125%"
     transform="translate(12.251024,31.288238)"><textPath
       xlink:href="#path3355"
       id="textPath4181"><tspan
   id="tspan4179"
   style="font-style:normal;font-variant:normal;font-weight:normal;font-stretch:normal;font-size:180px;line-height:125%;font-family:Castellar;-inkscape-font-specification:'Castellar, Normal';text-align:start;writing-mode:lr-tb;text-anchor:start">Omnibus</tspan></textPath></text>
  <text
     xml:space="preserve"
     style="font-style:normal;font-variant:normal;font-weight:normal;font-stretch:normal;font-size:180px;line-height:125%;font-family:Castellar;-inkscape-font-specification:'Castellar, Normal';text-align:start;letter-spacing:0px;word-spacing:0px;writing-mode:lr-tb;text-anchor:start;fill:#000000;fill-opacity:1;stroke:none;stroke-width:1px;stroke-linecap:butt;stroke-linejoin:miter;stroke-opacity:1"
     id="text4177-0"
     sodipodi:linespacing="125%"
     transform="translate(12.251024,31.288238)"><textPath
       xlink:href="#path4213"
       id="textPath4215"
       dx="0 10.602647 31.807941 12.723176 38.169529 23.325823">Amicus<tspan
   id="tspan4179-9"
   style="font-style:normal;font-variant:normal;font-weight:normal;font-stretch:normal;font-size:180px;line-height:125%;font-family:Castellar;-inkscape-font-specification:'Castellar, Normal';text-align:start;writing-mode:lr-tb;text-anchor:start" /></textPath></text>
  <path
     sodipodi:type="inkscape:offset"
     inkscape:radius="139.10435"
     inkscape:original="M 336.24219 -64.099609 A 402.84375 406.14575 21.040132 0 0 -39.408203 196.98438 A 402.84375 406.14575 21.040132 0 0 190.76172 720.68164 A 402.84375 406.14575 21.040132 0 0 712.5625 486.24414 A 402.84375 406.14575 21.040132 0 0 482.39258 -37.453125 A 402.84375 406.14575 21.040132 0 0 336.24219 -64.099609 z "
     style="fill:none;fill-opacity:1;stroke:none;stroke-width:4.40430593;stroke-opacity:1"
     id="path4213"
     d="m 335.35938,-203.20117 c -217.28427,1.37779 -426.457362,147.106962 -504.59766,350.24414 -51.14269,132.95267 -47.76158,286.02926 9.5,416.31445 57.26158,130.28519 167.8578843,236.10832 300.55859,287.1543 132.7008,51.04573 285.70615,46.62209 415.51953,-11.70117 129.81339,-58.32327 234.90993,-169.67239 286.05274,-302.625 51.14269,-132.95267 47.76158,-286.02926 -9.5,-416.31446 C 775.631,-10.414101 665.03469,-116.23722 532.33398,-167.2832 469.68457,-191.38271 402.50115,-203.62661 335.36133,-203.20117 a 139.11827,139.11827 0 0 0 -0.002,0 z"
     transform="matrix(-0.68409999,-0.73053136,0.7294187,-0.6857127,525.10045,1023.2651)" />
</svg>
