<?xml version="1.0" encoding="UTF-8" standalone="no"?>
<!-- Created with Inkscape (http://www.inkscape.org/) -->

<svg
   xmlns:dc="http://purl.org/dc/elements/1.1/"
   xmlns:cc="http://creativecommons.org/ns#"
   xmlns:rdf="http://www.w3.org/1999/02/22-rdf-syntax-ns#"
   xmlns:svg="http://www.w3.org/2000/svg"
   xmlns="http://www.w3.org/2000/svg"
   xmlns:sodipodi="http://sodipodi.sourceforge.net/DTD/sodipodi-0.dtd"
   xmlns:inkscape="http://www.inkscape.org/namespaces/inkscape"
   id="svg4170"
   version="1.1"
   inkscape:version="0.91 r13725"
   width="907.80475"
   height="833.32043"
   viewBox="0 0 907.80474 833.32045"
   sodipodi:docname="201610_JS_profile_v3_Laurel_stamp_v4.svg">
  <metadata
     id="metadata4176">
    <rdf:RDF>
      <cc:Work
         rdf:about="">
        <dc:format>image/svg+xml</dc:format>
        <dc:type
           rdf:resource="http://purl.org/dc/dcmitype/StillImage" />
        <dc:title></dc:title>
      </cc:Work>
    </rdf:RDF>
  </metadata>
  <defs
     id="defs4174">
    <clipPath
       id="clipPath4210"
       clipPathUnits="userSpaceOnUse">
      <path
         inkscape:connector-curvature="0"
         id="path4212"
         d="m 225.607,544.429 c 0,-0.688 0.193,-1.055 0.428,-1.499 l 0,0 c -0.373,-0.558 -0.931,-0.871 -1.347,-1.434 l 0,0 c -0.379,-0.51 -0.884,-1.104 -1.303,-1.589 l 0,0 c -0.622,-0.724 -1.926,-2.773 -2.486,-3.183 l 0,0 c -0.057,0.238 -0.108,0.245 -0.108,0.534 l 0,0 0,0.428 c 0,0.214 1.819,1.078 1.819,3.639 l 0,0 c 0,1.1 -0.728,3.555 -1.105,4.351 l 0,0 c -0.381,0.802 -1.765,3.096 -1.892,3.568 l 0,0 c -0.83,-0.609 -1.887,-4.754 -1.929,-6.097 l 0,0 c -0.078,-2.477 0.111,-5.149 2.573,-5.354 l 0,0 0,-1.497 c 0,-1.247 -1.524,-3.107 -1.994,-4.215 l 0,0 c -0.364,-0.855 -1.914,-3.588 -2.059,-4.268 l 0,0 -0.444,1.419 c 0.984,0.229 1.391,1.454 1.391,2.675 l 0,0 0,0.108 c 0,2.616 -2.803,7.107 -4.578,8.252 l 0,0 -0.778,-5.024 0.111,-0.018 0,-0.962 c 0,-2.396 1.181,-5.194 3.459,-5.24 l 0,0 0.289,-2.573 c 0.037,-0.282 -2.249,-6.374 -2.249,-8.133 l 0,0 -0.205,0.003 -0.33,1.067 c 0.455,0.165 0.75,0.885 0.75,1.498 l 0,0 0,0.75 c 0,1.756 -1.658,3.637 -2.597,4.574 l 0,0 c -0.319,0.321 -3.932,3.724 -3.932,2.702 l 0,0 0,-0.643 c 0,-2.632 0.543,-3.811 1.027,-5.821 l 0,0 c 0.32,-1.33 1.887,-3.488 3.36,-3.488 l 0,0 0.107,0 c 0.369,0 0.415,0.079 0.75,0.107 l 0,0 c 0.945,-1.786 0.666,-2.712 0.437,-4.824 l 0,0 c -0.203,-1.863 -0.223,-3.715 -0.223,-5.77 l 0,0 c -0.128,0.095 -0.643,0.8 -0.643,0.963 l 0,0 c 0,0.195 0.429,0.66 0.429,1.391 l 0,0 c 0,3.194 -5.538,6.54 -8.241,7.17 l 0,0 c 0.143,-1.713 1.3,-4.304 1.964,-5.635 l 0,0 c 0.703,-1.414 2.181,-3.568 4.136,-3.568 l 0,0 c 0.614,0 0.767,0.171 1.284,0.214 l 0,0 c 0.117,-0.44 0.818,-1.454 1.107,-2.105 l 0,0 c 0.204,-0.459 0.32,-2.171 0.395,-2.815 l 0,0 c 0.237,-2.003 0.504,-3.391 0.936,-5.378 l 0,0 -0.725,0.774 c 0.597,2.558 -1.237,3.826 -2.997,4.707 l 0,0 c -1.326,0.664 -4.409,1.714 -6.315,1.714 l 0,0 c -0.705,0 3.674,-7.384 6.637,-7.384 l 0,0 c 0.246,0 0.125,0.036 0.426,0.107 l 0,0 0,-0.215 c 1.048,0 1.323,0.237 1.928,0.643 l 0,0 c 0.399,-0.596 1.18,-1.27 1.501,-1.924 l 0,0 c 0.155,-0.313 0.699,-2.156 0.84,-2.585 l 0,0 c 0.281,-0.85 0.762,-1.655 0.981,-2.446 l 0,0 c 0.259,-0.945 0.899,-1.744 1.064,-2.466 l 0,0 -0.853,0.431 c 0,2.291 -1.609,3.372 -3.385,3.894 l 0,0 c -2.207,0.648 -3.858,0.494 -6.463,0.494 l 0,0 -0.749,0 c 0.341,-1.456 5.318,-5.779 7.385,-5.779 l 0,0 0.963,0 c 1.074,0 1.571,0.273 2.034,0.963 l 0,0 c 1.84,-1.231 2.222,-2.166 3.318,-4.064 l 0,0 c 0.494,-0.853 2.455,-3.807 3.122,-4.3 l 0,0 -0.108,-0.02 -0.98,0.251 c -0.307,0.225 -0.276,1.339 -1.581,2.164 l 0,0 c -0.725,0.457 -1.867,0.832 -3.021,0.832 l 0,0 -0.857,0 c -1.619,0 -4.914,-0.765 -5.993,-1.283 l 0,0 c 0.277,-1.04 5.858,-3.853 7.706,-3.853 l 0,0 1.178,0 c 0.088,0.267 0.055,0.216 0.145,0.166 l 0,0 c 0.061,-0.034 0.18,-0.069 0.432,-0.003 l 0,0 c 0.232,0.062 0.511,0.261 0.704,0.375 l 0,0 c 0.647,0.38 0.616,0.408 0.967,1.068 l 0,0 c 2.609,-0.608 2.746,-1.628 4.307,-3.184 l 0,0 c 1.334,-1.33 2.526,-2.442 3.929,-3.692 l 0,0 -1.281,0.133 c -0.106,1.288 -2.141,2.14 -3.639,2.14 l 0,0 c -1.602,0 -3.009,-0.551 -4.207,-1.036 l 0,0 c -0.733,-0.298 -1.23,-0.452 -1.894,-0.783 l 0,0 c -0.484,-0.242 -1.329,-0.861 -1.712,-0.963 l 0,0 0,-0.214 c 0.774,-0.18 2.14,-0.867 3.17,-1.218 l 0,0 c 1.007,-0.344 2.529,-0.815 3.788,-0.815 l 0,0 0.855,0 c 1.576,0 3.414,0.928 3.533,2.355 l 0,0 c 2.494,0 3.458,-1.306 4.966,-2.313 l 0,0 c 1.218,-0.811 3.652,-2.035 4.56,-2.805 l 0,0 -1.285,-0.127 c -0.187,0.806 -1.395,1.499 -2.355,1.499 l 0,0 -0.855,0 c -1.955,0 -7.5,-3.427 -7.824,-4.683 l 0,0 5.255,-0.561 0.428,0 c 2.462,0 5.458,0.809 5.458,3.318 l 0,0 1.392,0 c 1.237,0 3.424,-1.064 4.241,-1.423 l 0,0 c 0.745,-0.328 3.69,-1.557 4.449,-1.641 l 0,0 -0.877,-0.254 c -1.344,0.899 -1.228,0.827 -2.021,0.754 l 0,0 c -0.274,-0.025 -0.657,-0.05 -1.245,-0.035 l 0,0 c -0.749,0.019 -2.366,-1.02 -2.865,-1.439 l 0,0 c -0.855,-0.717 -4.055,-3.669 -4.144,-4.737 l 0,0 0.963,0 c 3.84,0 9.419,0.926 9.419,4.493 l 0,0 0.002,0.531 2.352,0.219 c 0.319,0.036 3.264,-0.66 3.404,-0.769 l 0,0 c 0.992,-0.759 0.333,-2.259 -0.121,-3.049 l 0,0 c -0.434,-0.758 -1.339,-1.606 -1.908,-2.371 l 0,0 c -0.941,-1.26 -0.859,-1.315 -1.526,-2.696 l 0,0 -0.063,-1.174 0,-0.107 c 0,-0.637 0.02,-2.081 0.643,-2.248 l 0,0 c -0.027,0.335 -0.108,0.381 -0.108,0.75 l 0,0 0,0.213 c 0,4.391 5.888,6.352 5.888,8.562 l 0,0 0,0.428 c 0,0.378 -0.467,1.019 -0.65,1.242 l 0,0 2.041,-0.279 c 0.25,0 0.469,0.006 0.663,0.01 l 0,0 c -0.194,-0.004 -0.413,-0.01 -0.663,-0.01 l 0,0 1.605,-0.215 0.535,-0.748 0.998,-1.964 0.074,2.82 -0.114,-2.461 c -0.251,0.294 -0.692,1.487 -0.956,1.927 l 0,0 c -0.024,0.039 -0.047,0.075 -0.07,0.11 l 0,0 c 0.023,-0.035 0.046,-0.071 0.07,-0.11 l 0,0 c 0.264,-0.44 0.705,-1.633 0.956,-1.927 l 0,0 0.114,2.461 c 0.118,1.431 0.427,3.243 -0.643,3.96 l 0,0 c -0.182,-0.78 -0.85,-2.034 -1.713,-2.034 l 0,0 c -0.99,0 -1.667,0.135 -2.564,0.217 l 0,0 c -1.549,0.14 -1.13,0.245 -2.039,0.853 l 0,0 c 0.477,0.712 0.964,0.763 0.964,2.141 l 0,0 0,0.214 c 0,2.239 -3.536,6.953 -4.934,7.277 l 0,0 -0.097,-1.819 0,-1.713 c 0,-2.966 0.696,-6.208 3.518,-6.22 l 0,0 0.23,-0.308 c -1.491,0 -3.317,0.627 -4.752,1.028 l 0,0 c -0.895,0.249 -1.415,0.474 -2.245,0.752 l 0,0 c -1.263,0.424 -1.039,0.125 -1.674,1.324 l 0,0 c 0.899,0.209 1.392,1.359 1.392,2.461 l 0,0 0,0.642 c 0,1.75 -2.261,6.674 -3.319,6.956 l 0,0 c -0.211,-0.911 -0.66,-1.753 -0.882,-2.864 l 0,0 c -0.147,-0.747 -0.295,-2.132 -0.295,-3.236 l 0,0 0,-0.427 c 0,-1.516 0.819,-3.64 2.541,-3.652 l 0,0 0.261,-0.433 -0.126,-0.089 c -0.042,-0.042 -1.895,0.891 -2.14,0.963 l 0,0 c -0.684,0.199 -1.484,0.744 -2.141,1.07 l 0,0 c -1.092,0.541 -3.413,1.476 -3.533,2.89 l 0,0 c 1.327,0.308 2.035,1.82 2.035,3.424 l 0,0 0,0.428 c 0,2.127 -1.008,4.952 -1.713,6.42 l 0,0 c -0.811,-0.216 -2.783,-5.133 -2.783,-6.635 l 0,0 0,-0.963 c 0,-1.113 0.862,-2.451 1.805,-2.678 l 0,0 0.139,-0.336 -0.125,-0.089 c -0.001,-0.002 -0.839,0.598 -0.934,0.671 l 0,0 c -0.343,0.266 -0.604,0.397 -0.95,0.654 l 0,0 c -0.706,0.526 -1.155,1.011 -1.783,1.537 l 0,0 c -0.973,0.816 -2.933,1.977 -2.97,3.559 l 0,0 c 2.173,0 2.998,2.686 2.998,4.923 l 0,0 0.085,0.76 -0.62,4.269 c -0.823,-0.22 -2.956,-3.452 -3.463,-4.349 l 0,0 c -0.888,-1.569 -1.394,-4.512 0.451,-5.497 l 0,0 0.141,-0.445 -0.125,-0.089 c -0.021,-0.02 -0.606,0.707 -0.685,0.813 l 0,0 c -0.254,0.341 -0.527,0.509 -0.786,0.82 l 0,0 c -0.521,0.62 -0.911,1.061 -1.447,1.655 l 0,0 c -0.542,0.6 -2.434,3.012 -2.434,3.882 l 0,0 0,0.535 0.749,0 c 1.135,0 2.526,1.761 2.827,2.845 l 0,0 c 0.431,1.564 0.919,2.855 0.919,4.86 l 0,0 0,1.606 c -0.854,-0.201 -2.905,-2.211 -3.56,-2.864 l 0,0 c -0.908,-0.907 -2.218,-2.57 -2.218,-4.307 l 0,0 c 0,-1.202 0.427,-1.29 0.854,-1.927 l 0,0 0,-0.427 c -0.559,0.41 -4.06,7.032 -3.983,7.708 l 0,0 0.13,0.96 c 0.383,-0.089 0.503,-0.214 0.962,-0.214 l 0,0 c 1.812,0 3.118,1.844 3.749,3.104 l 0,0 c 1.022,2.048 1.134,2.761 1.712,5.242 l 0,0 c -2.102,-0.488 -7.173,-3.651 -7.173,-5.885 l 0,0 c 0,-0.245 0.036,-0.124 0.109,-0.428 l 0,0 -0.234,-0.003 0.125,-0.853 c -0.34,0.393 -1.176,3.207 -1.176,4.066 l 0,0 c -0.408,0.136 -0.044,-0.041 -0.165,0.576 l 0,0 c -0.064,0.332 -0.121,0.431 -0.2,0.771 l 0,0 c -0.113,0.483 -0.277,1.155 -0.277,1.65 l 0,0 c 0,0.311 0.336,0.617 0.428,0.963 l 0,0 c 0.431,-0.101 0.535,-0.321 0.963,-0.321 l 0,0 0.642,0 c 1.98,0 3.055,1.727 4.041,2.81 l 0,0 c 0.33,0.363 2.733,4.074 2.241,4.319 l 0,0 c -0.489,0.244 -4.599,-1.376 -5.168,-1.607 l 0,0 c -1.169,-0.472 -3.254,-2.222 -3.254,-3.703 l 0,0 c 0,-0.332 0.11,-0.745 0.219,-0.966 l 0,0 -0.327,-0.532 c -0.027,1.21 -0.429,2.715 -0.43,4.064 l 0,0 c 0,1.481 0.003,2.853 -0.007,4.29 l 0,0 0.545,0.849 c 0.584,-0.048 0.739,-0.535 1.605,-0.535 l 0,0 0.644,0 c 1.754,0 3.177,1.306 4.093,2.221 l 0,0 c 0.596,0.596 2.685,2.823 2.756,3.665 l 0,0 -0.429,0 c -2.352,0 -4.037,-0.428 -5.82,-1.03 l 0,0 c -1.197,-0.403 -3.689,-2.037 -2.868,-3.766 l 0,0 -0.497,-0.468 -0.105,0.033 1.286,8.312 1.046,0.985 c 0.671,-0.448 1.048,-0.963 2.249,-0.963 l 0,0 0.107,0 c 2.293,0 7.037,3.404 7.39,4.75 l 0,0 -2.467,0.173 -2.568,0 c -2.262,0 -3.921,-0.877 -4.796,-2.566 l 0,0 0.057,-0.816 -0.631,-0.489 -0.09,0.125 c -0.045,0.046 1.407,4.292 1.541,4.774 l 0,0 c 0.51,1.828 1.138,2.857 2.527,3.787 l 0,0 c 0.209,-0.899 1.36,-1.39 2.461,-1.39 l 0,0 0.858,0 c 1.599,0 6.598,2.375 6.849,3.317 l 0,0 c -2.41,0.561 -3.202,1.177 -6.315,1.177 l 0,0 -0.107,0 c -1.558,0 -3.854,-0.801 -3.867,-2.544 l 0,0 -0.735,-0.346 c 0.604,1.142 1.355,2.785 2.098,3.788 l 0,0 c 0.464,0.629 0.572,1.217 1.262,1.629 l 0,0 c 0.687,0.409 1.281,0.664 1.991,1.005 l 0,0 c 1.982,-3.743 9.882,0.855 10.172,1.94 l 0,0 -2.959,0.87 -0.054,-0.152 -0.308,0.23 c -0.068,-0.032 -0.563,0.008 -1.215,0.049 l 0,0 c -1.035,0.064 -2.469,0.127 -3.241,-0.093 l 0,0 c -1.218,-0.348 -2.361,-0.864 -2.411,-2.364 l 0,0 -1.391,-0.498 -0.122,0.15 3.992,4.79 c 0.26,-0.06 0.694,-0.214 0.963,-0.214 l 0,0 c 3.266,0 5.779,6.32 5.779,9.524 l 0,0 c -2.56,-1.355 -7.706,-3.76 -7.706,-7.383 m 30.925,-81.426 c -0.014,0 -0.029,0 -0.045,0 l 0,0 c 0.016,0 0.031,0 0.045,0 m 0.014,0 c 0.548,-10e-4 0.879,-0.071 1.192,-0.518 l 0,0 c -0.313,0.446 -0.644,0.517 -1.192,0.518 m 31.201,87.801 c 0.135,-0.594 0.271,-1.04 0.429,-1.603 l 0,0 c 0.353,-1.245 0.685,-2.013 1.1,-3.076 l 0,0 c 0.632,-1.622 2.217,-3.837 4.404,-3.837 l 0,0 c 0.104,0 0.694,0.176 0.855,0.214 l 0,0 3.991,-4.897 c -0.121,-0.018 -1.52,0.457 -1.549,0.489 l 0,0 c -0.1,0.107 -0.101,0.92 -0.608,1.425 l 0,0 c -0.831,0.831 -1.55,0.901 -3.003,1.065 l 0,0 c -0.843,0.096 -2.769,-0.048 -3.474,-0.173 l 0,0 c -1.05,-0.184 -2.436,-0.845 -3.17,-0.905 l 0,0 c 0.175,-0.658 3.833,-2.526 4.694,-2.905 l 0,0 c 0.785,-0.347 2.234,-0.569 3.227,-0.413 l 0,0 c 2.015,0.314 1.402,0.694 2.354,1.392 l 0,0 c 1.79,-1.2 2.048,-0.371 3.209,-2.678 l 0,0 c 0.299,-0.592 0.727,-1.215 1.074,-1.815 l 0,0 c 0.382,-0.661 0.609,-1.261 0.962,-1.929 l 0,0 -0.736,0.348 c -0.044,1.376 -1.923,2.739 -3.223,2.435 l 0,0 c -0.195,0.129 -0.19,0.213 -0.43,0.213 l 0,0 -0.214,0 c -2.955,0 -4.159,-0.781 -6.314,-1.283 l 0,0 c 0.264,-0.993 5.304,-3.317 6.742,-3.317 l 0,0 1.07,0 c 1.513,0 1.773,0.964 2.355,1.39 l 0,0 c 1.866,-1.249 1.567,-1.733 2.446,-3.76 l 0,0 c 0.391,-0.904 1.32,-3.737 1.408,-4.801 l 0,0 -0.525,0.339 c -0.012,2.506 -2.714,3.513 -5.256,3.513 l 0,0 -1.391,0 -3.213,-0.293 c 0.187,-0.713 2.466,-2.516 3.15,-2.98 l 0,0 c 1.102,-0.745 2.583,-1.756 4.345,-1.756 l 0,0 c 0.756,0 1.987,0.391 2.141,0.963 l 0,0 c 1.497,-1.004 1.157,-1.368 1.629,-3.294 l 0,0 c 0.311,-1.274 0.512,-2.92 0.512,-4.197 l 0,0 0,-0.214 c 0,-0.239 0.084,-0.235 0.213,-0.428 l 0,0 -0.128,-0.961 -0.287,0.227 c 0.043,0.225 0.094,0.231 0.094,0.521 l 0,0 c 0,3.168 -5.364,4.28 -8.777,4.28 l 0,0 -0.214,0 c -0.207,0 -0.19,-0.033 -0.32,-0.107 l 0,0 c 0.113,-0.424 2.345,-3.191 2.751,-3.562 l 0,0 c 0.886,-0.806 2.433,-2.217 3.99,-2.217 l 0,0 0.857,0 c 0.798,0 0.97,0.394 1.498,0.535 l 0,0 c 0.109,-0.403 0.536,-0.647 0.536,-0.963 l 0,0 0,-3.211 -0.384,-4.819 -0.384,0.42 c 0.101,0.181 0.127,0.166 0.127,0.44 l 0,0 0,0.536 c 0,2.838 -5.588,5.014 -8.35,5.243 l 0,0 c 0.019,-0.841 1.838,-3.73 2.311,-4.432 l 0,0 c 0.359,-0.535 1.09,-1.333 1.605,-1.712 l 0,0 c 0.923,-0.677 1.647,-0.738 2.078,-1.026 l 0,0 c 0.287,0.182 0.466,0.138 0.672,0.094 l 0,0 c 0.269,-0.057 0.586,-0.115 1.255,0.334 l 0,0 c 0.598,-1.128 0.624,-0.774 0.33,-2.255 l 0,0 c -0.146,-0.738 -0.342,-1.639 -0.557,-2.333 l 0,0 c -0.235,-0.757 -0.389,-1.616 -0.559,-2.216 l 0,0 c -0.178,-0.626 -0.675,-1.736 -0.712,-2.186 l 0,0 c -0.453,0.332 0.105,0.327 0.105,1.177 l 0,0 0,0.75 c 0,1.543 -1.549,3.07 -2.696,3.832 l 0,0 c -0.875,0.582 -3.335,2.173 -4.473,2.267 l 0,0 0,-0.32 0.214,0 c -0.307,-0.64 1.21,-4.416 1.569,-5.067 l 0,0 c 0.685,-1.25 2.044,-2.959 3.888,-2.959 l 0,0 c 0.313,0 0.555,0.143 0.857,0.214 l 0,0 c -0.3,-0.626 0.178,-0.596 -0.12,-1.383 l 0,0 c -0.171,-0.456 -0.129,-0.497 -0.351,-1.035 l 0,0 c -0.328,-0.799 -0.685,-1.393 -1.064,-2.148 l 0,0 c -0.564,-1.128 -1.604,-3.281 -2.318,-4.102 l 0,0 0,0.535 c 0.317,0.213 0.749,0.782 0.749,1.285 l 0,0 0,1.069 c 0,1.992 -4.378,6.519 -5.78,6.636 l 0,0 c 0,-1.937 0.313,-4.505 0.684,-5.845 l 0,0 c 0.376,-1.344 1.689,-3.466 3.277,-3.466 l 0,0 0.641,0 c 0,-1.717 -1.598,-3.135 -2.417,-4.216 l 0,0 c -0.52,-0.684 -2.498,-3.126 -3.041,-3.489 l 0,0 c 0.077,0.926 1.285,0.85 1.285,2.782 l 0,0 0,0.429 c 0,1.974 -3.075,7.069 -4.283,7.169 l 0,0 -0.489,-3.523 0.062,-1.827 0.3,-2.234 c 0.518,-0.457 0.691,-2.368 2.698,-2.368 l 0,0 c -0.139,-1.662 -1.986,-2.719 -3.025,-3.613 l 0,0 c -0.824,-0.71 -2.83,-2.338 -3.72,-2.808 l 0,0 c 0.193,0.823 1.82,0.794 1.82,3.318 l 0,0 0,0.427 c 0,1.4 -0.432,2.735 -0.871,3.731 l 0,0 c -0.239,0.546 -0.517,1.134 -0.746,1.714 l 0,0 c -0.169,0.427 -0.757,1.186 -0.844,1.511 l 0,0 c -0.852,-0.227 -1.926,-4.727 -1.926,-5.992 l 0,0 0,-0.964 c 0,-1.606 0.774,-3.324 2.139,-3.21 l 0,0 c -0.656,-1.242 -0.291,-1.022 -1.541,-1.776 l 0,0 c -0.758,-0.456 -1.347,-0.783 -2.101,-1.217 l 0,0 c -0.646,-0.372 -3.827,-1.882 -4.491,-2.036 l 0,0 0.324,0.532 c 1.746,0.002 2.565,2.353 2.565,4.176 l 0,0 c 0,2.291 -0.761,4.206 -1.177,5.993 l 0,0 -0.321,0 c -0.186,-0.694 -1.527,-2.127 -1.913,-3.118 l 0,0 c -0.521,-1.35 -1.084,-2.035 -1.084,-3.624 l 0,0 0,-0.535 c 0,-1.053 -0.234,-0.684 0.229,-1.697 l 0,0 c 0.189,-0.409 0.565,-0.954 1.055,-1.085 l 0,0 c -0.083,-1.006 -0.926,-1.129 -1.479,-1.294 l 0,0 c -0.754,-0.224 -1.455,-0.511 -2.253,-0.753 l 0,0 c -0.969,-0.295 -3.794,-1.057 -4.937,-1.057 l 0,0 0.229,0.308 c 2.754,0.012 3.624,3.204 3.624,6.006 l 0,0 0,1.391 -0.191,2.356 c -0.643,-0.167 -2.527,-2.419 -3,-3.018 l 0,0 c -0.869,-1.098 -1.84,-2.239 -1.84,-4.153 l 0,0 0,-0.428 c 0,-0.746 0.276,-1.665 0.856,-1.819 l 0,0 c -0.101,-1.218 -2.387,-1.001 -3.595,-1.221 l 0,0 c -1.558,-0.282 -2.511,0.753 -2.611,1.97 l 0,0 c -1.345,-0.359 -0.643,-3.748 -0.643,-5.244 l 0,0 0,-0.963 c 0,-0.29 -0.052,-0.296 -0.108,-0.536 l 0,0 c 0.939,0.63 0.745,2.064 1.821,2.783 l 0,0 3.283,0.301 c -0.14,-0.442 -0.395,-0.633 -0.395,-1.264 l 0,0 0,-0.214 c 0,-1.355 2.499,-3.233 3.398,-3.988 l 0,0 c 0.865,-0.724 2.755,-3.12 2.49,-4.788 l 0,0 -0.133,-0.851 0.24,-0.005 c 0.055,0.678 0.32,1.084 0.32,1.927 l 0,0 0,1.07 c 0,2.697 -4.067,5.18 -4.067,7.277 l 0,0 c 0,0.611 0.274,0.815 0.322,1.39 l 0,0 c 0.604,0.142 3.25,0.809 3.745,0.75 l 0,0 2.142,-0.211 0,-0.752 c 0,-3.274 5.842,-4.28 9.525,-4.28 l 0,0 0.857,0 c -0.384,1.64 -5.235,6.313 -7.493,6.313 l 0,0 -1.07,0 c -0.638,0 -1.205,-0.588 -1.605,-0.856 l 0,0 -0.855,0.222 c 0.273,0.183 3.606,1.328 4.234,1.536 l 0,0 c 1.343,0.444 2.702,1.56 4.219,1.56 l 0,0 1.286,0 c 0.356,0 0.433,-1.039 0.81,-1.545 l 0,0 c 0.219,-0.298 0.941,-0.884 1.263,-1.091 l 0,0 c 0.54,-0.344 2.558,-0.682 3.706,-0.682 l 0,0 0.535,0 5.045,0.528 -0.015,0.115 c -0.198,0.743 -2.676,2.451 -3.421,2.892 l 0,0 c -1.044,0.617 -2.909,1.709 -4.499,1.709 l 0,0 -0.535,0 c -1.323,0 -2.105,-0.621 -2.568,-1.499 l 0,0 -1.392,0.015 c 0.017,0.007 4.401,2.764 4.617,2.859 l 0,0 c 0.331,0.146 1.753,1.289 2.154,1.594 l 0,0 c 0.491,0.374 2.005,0.777 2.863,0.777 l 0,0 c 0.027,-1.252 2.065,-2.355 3.425,-2.355 l 0,0 0.854,0 c 1.262,0 2.896,0.408 3.841,0.762 l 0,0 c 0.734,0.276 2.658,1.12 3.225,1.271 l 0,0 c -0.259,0.963 -5.814,2.996 -7.6,2.996 l 0,0 -0.215,0 c -1.539,0 -3.417,-0.766 -3.53,-2.14 l 0,0 -1.281,-0.133 c 1.333,1.189 2.695,2.393 3.931,3.689 l 0,0 c 1.11,1.164 2.189,3.139 4.305,3.187 l 0,0 c 0.242,-0.905 1.508,-1.606 2.677,-1.606 l 0,0 0.856,0 c 1.375,0 3.117,1.003 4.209,1.464 l 0,0 c 1.042,0.439 2.761,2.007 3.389,2.174 l 0,0 0,0.215 c -2.005,0.466 -3.537,1.283 -6.208,1.283 l 0,0 -0.641,0 c -1.928,0 -4.388,-1.042 -4.388,-2.888 l 0,0 -1.175,-0.327 c 0.012,0.062 2.769,4.061 2.953,4.327 l 0,0 c 1.271,1.841 1.168,2.865 3.359,4.025 l 0,0 c 0.341,-0.643 1.072,-0.963 2.034,-0.963 l 0,0 0.322,0 c 1.999,0 3.447,1.121 4.68,2.168 l 0,0 c 0.628,0.532 3.173,2.961 3.347,3.611 l 0,0 -0.749,0 c -2.351,0 -4.479,0.169 -6.383,-0.468 l 0,0 c -1.579,-0.529 -3.571,-1.623 -3.571,-3.598 l 0,0 c 0,-0.029 0.073,-0.196 0.106,-0.322 l 0,0 -0.85,-0.439 c 0.32,1.409 1.505,3.411 2.016,4.947 l 0,0 c 0.287,0.868 0.451,1.836 0.869,2.554 l 0,0 c 0.459,0.788 1.064,1.281 1.498,1.928 l 0,0 c 0.453,-0.305 0.832,-0.643 1.603,-0.643 l 0,0 c 1.131,0 1.991,0.582 2.699,1.049 l 0,0 c 0.505,0.333 0.541,0.47 1.109,0.816 l 0,0 c 0.065,0.037 0.605,0.782 0.823,0.999 l 0,0 c 0.813,0.807 2.58,3.412 2.862,4.628 l 0,0 c -3.448,0 -9.632,-2.096 -9.632,-5.672 l 0,0 c 0,-0.464 0.214,-0.432 0.214,-0.749 l 0,0 c 0,-0.153 -0.614,-0.66 -0.749,-0.75 l 0,0 c 0.081,0.972 0.506,1.644 0.535,2.676 l 0,0 c 0.025,0.894 0.317,1.878 0.425,2.785 l 0,0 c 0.301,2.533 0.329,3.168 1.502,4.92 l 0,0 c 0.294,-0.196 0.573,-0.321 1.07,-0.321 l 0,0 c 2.06,0 3.564,2.014 4.282,3.422 l 0,0 c 0.512,1.004 1.926,4.421 1.926,5.781 l 0,0 c -0.925,-0.078 -4.266,-2.095 -5.073,-2.633 l 0,0 c -1.274,-0.847 -3.062,-2.527 -3.062,-4.537 l 0,0 c 0,-0.687 0.194,-1.053 0.429,-1.498 l 0,0 -0.706,-0.89 c -0.01,0.444 0.09,0.343 0.063,0.676 l 0,0 -0.497,7.6 c -0.073,0.446 0.556,1.755 0.604,2.352 l 0,0 c 2.775,-0.062 3.125,1.125 4.195,3.084 l 0,0 c 0.612,1.121 1.156,4.523 1.156,6.333 l 0,0 0,0.428 c 0,1.126 -3.75,-2.518 -4.041,-2.809 l 0,0 c -1.068,-1.068 -2.595,-2.838 -2.595,-4.896 l 0,0 c 0,-0.935 0.484,-1.476 0.858,-2.033 l 0,0 -0.493,-1.089 -0.42,1.742 c 0.275,0.694 -1.871,5.702 -1.871,6.517 l 0,0 0,0.428 0.28,2.253 c 2.307,0.183 3.679,3.078 3.467,5.666 l 0,0 -0.222,3.209 -0.207,10e-4 c 0.22,0.458 -0.219,1.959 -0.428,2.355 l 0,0 c -1.264,-0.846 -4.495,-5.674 -4.495,-7.919 l 0,0 0,-0.643 c 0,-0.878 0.411,-1.681 0.88,-2.116 l 0,0 c 0.927,-0.86 0.311,-0.492 0.19,-1.95 l 0,0 c -0.038,0.045 -2.11,4.321 -2.29,4.773 l 0,0 c -0.9,2.272 -1.884,1.792 -1.884,5.393 l 0,0 c 0.995,0.083 1.354,0.258 1.93,1.068 l 0,0 c 0.305,0.429 0.746,1.719 0.746,2.464 l 0,0 0,1.284 c 0,1.915 -1.14,5.351 -1.819,6.635 l 0,0 c -1.115,-0.816 -3.104,-5.755 -3.104,-7.705 l 0,0 0,-0.32 c 0,-1.901 0.552,-2.65 1.819,-3.319 l 0,0 -0.136,-1.387 c -0.159,0.134 -2.032,2.849 -2.414,3.333 l 0,0 c -0.364,0.461 -2.392,2.76 -2.802,2.87 l 0,0 c 0.346,1.289 0.87,1.557 0.142,3.245 l 0,0 c -0.438,1.019 -0.988,1.738 -1.774,2.399 l 0,0 c -1.626,1.365 -3.088,2.156 -5.062,3.182 l 0,0 c -0.282,0.147 -0.46,0.229 -0.562,0.229 l 0,0 c -0.19,0 -0.115,-0.287 0.04,-0.967 m -18.471,-85.352 c 0.095,0.095 0.048,0.048 0,0 l 0,0 c -0.027,-0.027 -0.055,-0.055 -0.055,-0.055 l 0,0 c 0,0 0.015,0.015 0.055,0.055" />
    </clipPath>
  </defs>
  <sodipodi:namedview
     pagecolor="#ffffff"
     bordercolor="#666666"
     borderopacity="1"
     objecttolerance="10"
     gridtolerance="10"
     guidetolerance="10"
     inkscape:pageopacity="0"
     inkscape:pageshadow="2"
     inkscape:window-width="1600"
     inkscape:window-height="848"
     id="namedview4172"
     showgrid="false"
     inkscape:zoom="0.66691528"
     inkscape:cx="190.91616"
     inkscape:cy="436.33012"
     inkscape:window-x="1272"
     inkscape:window-y="116"
     inkscape:window-maximized="1"
     inkscape:current-layer="layer2"
     fit-margin-top="0"
     fit-margin-left="0"
     fit-margin-right="0"
     fit-margin-bottom="0" />
  <path
     style="fill:#000000"
     d="m 375.48551,641.90934 c -11.27705,-33.20699 -40.99943,-12.34515 -65.13842,-6.02901 -26.94793,6.7703 -44.8511,11.01337 -77.81425,-51.14511 -8.71176,-11.74586 -4.58623,-15.98889 2.79926,-22.30895 -8.58031,-6.61553 -10.95949,-16.55835 -4.79338,-23.92829 6.98974,-8.35437 3.98625,-15.25727 -12.6312,-18.89181 -19.67741,-13.83568 24.17267,-43.00105 21.19245,-68.14771 -7.71946,-24.82661 -12.85547,-50.74528 -2.46416,-76.271 6.12782,-24.88041 25.63908,-43.21845 37.64843,-65.39643 12.43603,-13.35444 21.37882,-28.04299 35.90815,-38.38691 14.48284,-17.41548 35.38328,-27.07774 57.80351,-32.74205 26.80993,-9.57061 57.03336,-13.91627 84.84499,-5.66381 32.53614,4.95994 22.96094,-51.76391 -8.20957,-38.21134 -13.99414,5.56675 -52.56103,11.44293 -37.5081,-14.02452 9.49321,-8.69831 36.60651,-19.52894 51.08236,-14.7591 15.28871,5.03766 31.47077,3.73381 18.3494,-13.11274 2.54315,14.57223 -15.70378,10.86478 -18.34289,7.75651 -12.62722,-14.87195 -0.21369,-38.06457 16.559,-35.98971 12.32752,1.60303 37.24743,-13.24257 49.53158,-7.78485 24.6366,26.64433 -22.09357,18.85017 -25.02208,35.40359 -1.19849,24.51483 7.74398,46.27587 20.44787,35.27682 18.81442,-17.65916 -5.71207,-27.95912 -5.51121,-31.24678 1.29713,-21.23093 27.78723,5.23422 33.8717,-9.47908 3.19063,-3.44278 17.96455,-12.90106 36.5277,-2.15221 14.37563,29.69688 -46.24937,4.22629 -27.15425,40.73978 1.43875,15.07333 29.04575,-16.99483 32.12782,-25.86737 12.16877,-37.68253 -35.52004,-20.59408 -55.16834,-19.6999 -7.04278,-31.34027 41.94207,-26.95839 60.74263,-16.27529 24.74281,4.37116 16.04597,50.72288 21.89164,50.65782 17.60293,-8.20541 35.59602,-20.69072 7.44064,-37.05994 -7.42297,-30.68045 51.61673,-7.82146 47.02227,16.74842 9.72594,18.20105 -31.86805,28.32128 -24.21492,32.4761 -1.2437,23.97906 26.02829,-13.9129 33.67998,-10.89117 -9.10738,-11.31309 3.89028,-22.63622 17.56224,-17.47148 -20.674,-15.17436 -11.04585,-18.1588 -8.81562,-19.57415 7.32825,-8.23479 39.99715,-5.2928 44.23318,14.46538 16.56329,17.52832 -17.94345,38.48701 -8.16318,48.80953 22.42734,-5.62081 40.12936,10.27353 42.68047,30.99076 -7.69639,15.87666 -26.13836,21.07042 -24.18951,-3.00042 -24.5547,18.55612 -28.68923,21.46228 -69.20482,29.53832 16.07577,2.17583 50.23583,11.25225 47.38021,-9.50725 30.67987,-16.61843 31.45101,46.64062 -0.5511,43.22814 -3.47658,5.22178 26.74142,13.52686 28.13027,3.16661 2.33967,-36.55687 41.3057,4.533 22.35226,22.60374 -12.89131,20.55259 -46.86664,6.19668 -56.6629,1.01663 13.32743,21.053 48.07873,8.7061 50.71214,38.86213 32.55729,12.35384 -2.64209,37.08733 -9.74554,13.98464 -6.05383,-12.06158 -32.12907,-24.54824 -19.07928,-1.44989 3.68111,12.00899 39.4782,33.75529 5.36549,31.52622 -16.60184,0.50921 -39.48398,-44.50556 -44.28431,-38.12514 12.53911,9.97421 5.69832,28.93667 9.634,32.83263 34.66629,-0.0589 20.75175,33.14075 -11.28612,28.93362 14.1708,5.72475 30.38656,-4.30887 41.14086,8.99647 12.8702,26.72371 -56.66024,-2.29672 -34.22171,15.93162 16.36162,16.34414 52.6149,-18.35958 48.36085,16.34782 -9.64418,8.5973 -25.02683,10.03814 -9.33627,22.01776 18.98047,22.01849 -27.12735,65.15404 -36.80739,31.06287 1.78925,-11.24333 22.48178,-28.49085 -4.1188,-31.72659 -17.83683,-3.70263 -18.59945,5.48251 -1.26237,6.09064 22.29047,18.37455 -11.578,21.58833 -24.08667,23.02749 21.85234,13.73046 11.61008,27.01339 -6.95375,29.35914 -44.25919,-8.36759 -57.46041,-38.98243 -37.33103,-53.85508 21.55567,-14.46017 12.62179,-40.74853 3.83246,-19.40889 -14.23148,21.08298 -52.45456,24.58299 -71.58289,11.00704 -10.11092,-30.99953 46.16958,-8.64481 50.0767,-36.47055 6.51536,-32.61506 -17.70252,37.55848 -28.45244,2.17597 -8.51404,-18.31691 17.47073,-36.58996 -8.6703,-42.60934 -19.53785,-20.12723 15.82272,-24.7825 21.26931,-15.81139 -2.45764,-16.47538 -36.53602,-33.13106 -32.57218,-6.86303 -0.3927,24.52031 -5.66821,48.64757 -14.48078,71.60836 -7.09877,29.67214 -9.93241,61.65313 1.21161,90.70384 7.65889,18.72103 20.35248,38.23132 36.24298,52.47718 13.10558,17.2213 31.5667,27.35497 48.71742,44.2395 -159.78473,0.54585 -159.91633,0.38014 -254.88374,1.12521 -4.14785,-1.58758 -2.02332,0.50311 -7.65836,-3.85002 z"
     id="path4180"
     inkscape:connector-curvature="0"
     sodipodi:nodetypes="ccccscccccccccscsccccsccccccccccccccccccccccccccccccccccccccccccccccccccccc" />
  <g
     inkscape:groupmode="layer"
     id="layer6"
     inkscape:label="Trace"
     style="display:inline"
     transform="translate(115.6932,-87.359404)" />
  <flowRoot
     xml:space="preserve"
     id="flowRoot56087"
     style="font-style:normal;font-weight:normal;font-size:40px;line-height:125%;font-family:sans-serif;letter-spacing:0px;word-spacing:0px;fill:#000000;fill-opacity:1;stroke:none;stroke-width:1px;stroke-linecap:butt;stroke-linejoin:miter;stroke-opacity:1"
     transform="translate(-181.90912,-256.37539)"><flowRegion
       id="flowRegion56089"><rect
         id="rect56091"
         width="33.928471"
         height="50.892708"
         x="-390.17743"
         y="-124.59406" /></flowRegion><flowPara
       id="flowPara56093" /></flowRoot>  <g
     inkscape:groupmode="layer"
     id="layer2"
     inkscape:label="laurel 2"
     transform="translate(-181.90912,-256.37539)"
     style="display:inline">
    <g
       id="g54209"
       transform="matrix(2.5684117,0,0,2.8787875,-519.97437,-205.75997)"
       style="fill:#000000;fill-opacity:1">
      <g
         id="g54211"
         style="fill:#000000;fill-opacity:1">
        <path
           id="path54213"
           d="m 569.38574,394.10938 c -10.77441,2.88525 -22.27148,3.81298 -32.73535,7.38134 17.72266,-15.1958 16.71094,-38.70849 28.53516,-56.60595 3.7666,-5.06739 6.87988,-10.37891 11.2705,-15.1875 -7.19238,14.42773 -4.07324,33.14648 -12.33593,47.14746 -3.18067,5.56152 -7.72949,10.95703 -12.75977,15.32519 1.64356,-0.0615 3.08203,-1.48437 4.52735,-2.43457 13.42089,-13.39258 30.9541,-17.13769 45.47168,-28.01855 5.81542,-4.63379 11.1416,-10.70606 13.69824,-17.27344 -2.74707,22.21973 -24.85254,43.0459 -45.67188,49.66602 l 0,0 z"
           inkscape:connector-curvature="0"
           style="fill:#000000;fill-opacity:1" />
        <path
           id="path54215"
           d="m 617.73535,304.14551 c -6.5664,9.34375 -14.50976,18.04199 -20.57617,27.53808 0.67676,-7.51855 1.56738,-16.76367 -1.36133,-23.88574 -5.07519,-15.33691 -9.53418,-30.90918 -10.97265,-47.74121 l 0.19824,-6.43652 c 3.81933,17.18945 20.70508,29.00586 19.63965,48.28711 0.38671,4.67285 -1.0586,8.6455 -1.9336,12.75488 l 0.29004,0.30371 0.76074,-0.85254 c 2.50391,-9.45801 3.76758,-19.40332 7.66114,-28.22754 5.5332,-12.69824 12.44238,-25.51367 9.62695,-40.8457 8.41602,18.07617 5.86621,42.22754 -3.33301,59.10547 l 0,0 z"
           inkscape:connector-curvature="0"
           style="fill:#000000;fill-opacity:1" />
        <path
           id="path54217"
           d="m 607.37109,206.75781 c 11.07227,15.00537 13.49903,38.91797 5.43457,56.12989 -3.00586,7.29394 -5.1289,15.0664 -6.30957,23.13964 -0.56347,-1.39257 -0.69238,-3.26464 -1.19531,-4.8164 -4.4043,-16.84766 -20.33789,-28.85449 -26.89062,-44.73877 -2.07813,-5.19434 -3.84961,-10.56153 -4.83203,-16.2002 7.00195,12.9502 24.25781,19.63916 28.96093,33.91065 1.92676,3.60937 1.81836,8.11914 3.01367,12 0.25098,0 0.50196,-0.18653 0.50196,-0.44141 -2.07031,-14.70117 -1.43848,-30.0874 0.55664,-44.60596 -0.11524,-7.86425 -0.88281,-15.49267 -5.25195,-21.58007 2.80175,1.63232 4.06347,4.76757 6.01171,7.20263 l 0,0 z"
           inkscape:connector-curvature="0"
           style="fill:#000000;fill-opacity:1" />
        <path
           id="path54219"
           d="m 599.56445,203.87744 c 2.90821,13.14893 -1.33984,25.95459 1.33203,39.22998 l -0.0996,0.11426 c -7.15333,-14.06641 -22.33985,-20.70508 -32.78907,-31.96338 -6.05566,-6.68066 -8.68847,-14.82275 -10.20312,-23.44385 5.9873,14.43457 22.14355,17.61524 31.41894,29.77881 3.10352,2.8042 4.11621,6.68897 6.11719,9.86914 l 0.32715,-0.31592 c -5.33399,-11.38671 -7.1211,-24.20117 -10.84277,-36.34521 -1.86329,-5.26221 -5.56153,-10.43262 -10.52344,-13.75049 12.17578,2.48828 22.72851,15.19971 25.26269,26.82666 l 0,0 z"
           inkscape:connector-curvature="0"
           style="fill:#000000;fill-opacity:1" />
        <path
           id="path54221"
           d="m 567.01172,173.72168 c 9.16992,8.20703 13.31738,18.8335 15.99512,29.84375 l 1.51464,3.49658 c -13.30957,-9.57226 -25.40039,-22.43994 -33.89941,-36.02978 l -10.37988,-10.50098 c 9.125,3.86914 18.96289,6.17871 26.76953,13.19043 l 0,0 z"
           inkscape:connector-curvature="0"
           style="fill:#000000;fill-opacity:1" />
        <path
           id="path54223"
           d="m 356.80566,162.27393 c -9.20019,8.06543 -15.58105,18.26562 -22.40625,27.77734 -6.11816,7.57519 -13.94433,12.57031 -20.87988,19.08447 3.74414,-7.76172 3.88086,-17.0332 9.19141,-24.16308 7.55664,-13.1836 21.56933,-17.82178 34.09472,-22.69873 l 0,0 z"
           inkscape:connector-curvature="0"
           style="fill:#000000;fill-opacity:1" />
        <path
           id="path54225"
           d="m 306.49219,190.35986 c 4.47461,-5.5625 10.14746,-9.42822 16.53125,-11.06054 -12.39551,8.51513 -11.58887,23.7749 -15.51856,36.46045 -1.25293,4.69091 -3.42871,9.01269 -4.51269,13.82128 l 0.31543,0.25098 c 2.0625,-5.43603 5.6875,-10.57226 10.21191,-15.00781 8.80371,-8.12695 21.82715,-13.1919 26.1416,-25.21387 -0.19726,16.70606 -14.13379,29.83985 -27.46875,39.22901 -5.49902,4.82421 -10.80175,10.32226 -13.83008,16.52392 -0.29687,-4.21484 0.62305,-8.44678 0.32325,-12.96191 -1.4502,-14.5835 -2.50391,-31.22901 7.80664,-42.04151 l 0,0 z"
           inkscape:connector-curvature="0"
           style="fill:#000000;fill-opacity:1" />
        <path
           id="path54227"
           d="m 281.41211,240.22754 c -0.37305,-14.77832 5.76074,-26.8418 14.4043,-37.85303 0.25097,-0.12549 0.42968,-0.37646 0.75293,-0.31592 -9.51465,14.4585 -1.64356,32.67041 -2.07715,49.11036 l -1.25489,16.83203 c 0.18653,0.12207 0.18653,0.62793 0.62793,0.43359 0.5625,-1.87598 0.68457,-3.88086 1.06055,-5.81055 2.24121,-13.57714 14.03223,-23.21093 24.33106,-32.59375 2.19921,-2.4541 4.14355,-4.9458 5.27343,-7.82568 -0.84082,6.76025 -2.95996,13.57861 -5.76464,19.83057 -8.01563,15.63183 -22.82325,28.458 -25.52833,46.35449 -1.3125,-17.15039 -12.98925,-29.97266 -11.82519,-48.16211 l 0,0 z"
           inkscape:connector-curvature="0"
           style="fill:#000000;fill-opacity:1" />
        <path
           id="path54229"
           d="m 274.21387,261.24316 c 1.06543,-4.62207 1.87988,-9.40527 3.8916,-13.64648 -3.81152,19.53711 9.3291,33.61426 13.63965,50.54883 1.80371,6.33398 2.24511,13.13672 4.82422,19.08008 0.24023,0.12988 0.44921,-0.1211 0.59765,-0.31153 -6.41797,-17.98926 2.84668,-34.70605 12.15625,-48.79101 2.26367,-3.81641 3.56836,-8.06641 4.69434,-12.45313 0.98926,8.1416 -1.06934,17.51758 -2.25195,25.97071 -2.26368,10.75585 -5.64258,20.95605 -8.58399,31.39257 -1.93555,6.52149 -1.42676,13.87891 -0.43262,20.71192 L 301.81641,333 c -6.8252,-12.58594 -20.33985,-22.40234 -24.35352,-36.15234 -3.30273,-10.96192 -5.49805,-23.66016 -3.24902,-35.6045 l 0,0 z"
           inkscape:connector-curvature="0"
           style="fill:#000000;fill-opacity:1" />
        <path
           id="path54231"
           d="m 273.59766,299.40137 c 1.50293,20.70801 23.77148,31.65039 34.09375,48.79394 2.44238,3.50782 4.56152,7.38867 7.82519,10.3252 -0.50976,-2.20606 -2.56836,-4.0625 -3.32422,-6.32227 -3.61133,-7.19043 -4.92773,-15.75879 -4.05957,-24.44922 1,-10.57714 5.43653,-20.39257 3.74317,-31.51757 9.07031,19.55664 6.31543,43.96679 11.38672,65.1582 1.32812,4.63476 4.01074,8.77344 5.76855,13.20312 -18.63574,-12.69238 -44.04687,-24.76855 -52.31445,-48.03027 -3.48438,-8.02051 -3.87305,-17.9502 -3.11914,-27.16113 l 0,0 z"
           inkscape:connector-curvature="0"
           style="fill:#000000;fill-opacity:1" />
        <path
           id="path54233"
           d="m 284.72949,346.95508 c 10.39063,23.50586 36.41406,25.45312 53.86231,39.7666 3.21093,2.8457 6.57519,5.26562 10.20019,6.9541 l 0.18653,-0.18945 c -4.00586,-3.62207 -8.63965,-7.74707 -11.44434,-12.44141 -10.21191,-14.19922 -6.62012,-34.08984 -14.27148,-49.36133 6.95214,8.31641 13.27441,16.96094 17.47168,26.39551 6.24316,15.40137 8.6289,32.79688 23.07519,44.43897 -15.63379,-5.15235 -33.94922,-3.71289 -47.74805,-13.33936 -15.0664,-9.25976 -28.51269,-24.96582 -31.33203,-42.22363 l 0,0 z"
           inkscape:connector-curvature="0"
           style="fill:#000000;fill-opacity:1" />
        <path
           id="path54235"
           d="m 311.43457,390.80664 c 16.66016,18.94775 43.88281,12.62549 66.0752,17.58447 3.13476,0.42774 6.0039,1.6836 9.32617,1.17383 -2.64551,-1.67383 -6.31641,-1.49219 -9.2041,-3.01367 -17.39551,-6.11133 -19.94727,-24.94385 -29.39063,-37.64307 12.06445,8.01172 22.20703,18.81739 33.33692,29.2876 8,7.00781 17.62988,10.24219 27.77636,12.30469 -2.43847,0.89062 -5.63476,0.64648 -8.25195,1.33203 -18.22852,4.48242 -38.48047,11.80859 -57.81152,5.25 -12.56739,-3.95703 -25.53321,-13.89453 -31.85645,-26.27588 l 0,0 z"
           inkscape:connector-curvature="0"
           style="fill:#000000;fill-opacity:1" />
        <path
           id="path54237"
           d="m 537.55664,434.97314 c -18.77344,7.00586 -38.36621,-0.32031 -53.0293,-11.43945 -5.93652,-3.77344 -11.16992,-9.20703 -18.84863,-8.72656 -2.78516,-0.0527 -5.4707,0.084 -7.83789,0.76758 14.24512,6.6289 27.47754,15.76758 39.57617,27.45508 -2.03906,2.32812 -4.67969,4.50585 -7.16699,6.51367 -11.65918,-12.5625 -24.57129,-24.6543 -39.02832,-31.7168 -2.83105,0.36719 -5.52441,2.07031 -8.07715,3.44141 -11.76953,7.4414 -23.40723,17.01367 -32.15723,28.73242 l -7.51855,-6.20899 c 12,-12.13867 25.27344,-21.58789 39.79395,-28.33789 -14.26856,-4.51953 -23.58204,7.4336 -34.41309,13.51368 -12.62109,8.8125 -30.77246,12.95117 -46.02539,6.87109 -8.20313,-3.11133 -16.15039,-7.69336 -22.08984,-15.14063 12.0039,8.26954 29.88183,9.13672 43.5332,3.76563 18.31836,-7.94531 37.35351,-18.01758 59.43652,-13.20117 3.44629,0.0605 6.79492,3.49218 10.05078,0.57031 16.41309,-4.26172 34.99512,-1.33203 49.12598,6.16992 l 14.56445,5.83789 c 13.53711,5.00586 31.03907,3.6211 42.64258,-4.62695 -5.96582,7.42578 -14.11523,12.74609 -22.53125,15.75976 l 0,0 z"
           inkscape:connector-curvature="0"
           style="fill:#000000;fill-opacity:1" />
        <path
           id="path54239"
           d="m 557.6748,415.57471 c -21.07812,7.95898 -42.2832,-1.81055 -62.47949,-5.07422 l -3.88867,-0.49414 0,-0.12305 c 9.65723,-2.19141 19.03125,-5.06641 26.71777,-12.00586 11.32129,-10.88232 21.39551,-22.08349 33.96778,-30.65869 -9.32324,11.9541 -10.31153,28.96924 -25.71289,36.65479 -3.81153,2.49414 -8.62207,2.93554 -12.55567,4.82421 5.60938,0.1211 10.74512,-1.88867 16.29981,-2.45117 20.65234,-3.24219 44.27832,0.084 58.7666,-17.50928 -5.37891,12.25928 -18.84961,22.52491 -31.11524,26.83741 l 0,0 z"
           inkscape:connector-curvature="0"
           style="fill:#000000;fill-opacity:1" />
        <path
           id="path54241"
           d="m 595.97266,356.26855 c -8.32422,5.44825 -16.76172,10.50098 -24.76075,16.69532 l 0,-0.76074 c 12.25196,-20.36231 6.2627,-48.33497 13.81153,-70.74415 l 2.81543,-7.50683 c -1.5752,13.95996 4.48828,25.78515 4.0625,39.79297 -0.42578,8.46191 -3.1875,15.96484 -7.63086,22.72168 l 0.75293,0 c 6.00293,-7.88379 10.69043,-16.26856 17.70605,-23.77832 10.88965,-10.50098 21.96094,-21.26856 23.39063,-35.84082 3.69824,24.32714 -9.95215,45.64843 -30.14746,59.42089 l 0,0 z"
           inkscape:connector-curvature="0"
           style="fill:#000000;fill-opacity:1" />
      </g>
    </g>
    <path
       style="font-style:normal;font-variant:normal;font-weight:normal;font-stretch:normal;font-size:medium;line-height:125%;font-family:Andalus;-inkscape-font-specification:'Andalus, Normal';text-align:start;letter-spacing:0px;word-spacing:0px;writing-mode:lr-tb;text-anchor:start;fill:#000000;fill-opacity:1;stroke:none;stroke-width:1px;stroke-linecap:butt;stroke-linejoin:miter;stroke-opacity:1"
       d="m 572.85672,298.532 c -16.19536,1.2466 -32.24642,6.76049 -48.15444,16.54271 -17.61905,10.89451 -28.714,23.51594 -33.28134,37.86297 -1.60003,5.02604 -1.9334,9.73086 -1.00335,14.11643 0.99538,5.09369 3.05456,9.12536 6.1803,12.09391 4.61838,4.3691 12.05155,9.94761 22.29663,16.73619 12.16419,8.06713 19.72993,13.68031 22.69815,16.83926 7.27147,7.90892 9.32249,16.84317 6.15153,26.80387 -3.05459,9.59514 -8.82709,17.52851 -17.31683,23.79798 -8.46065,6.17812 -17.95809,9.67268 -28.49005,10.48337 -13.31398,1.02481 -22.53509,-3.34685 -27.66409,-13.11438 -4.72444,-8.90724 -5.07972,-19.66633 -1.0651,-32.2771 l -10.58099,0.81441 -15.70933,49.34655 c 14.3626,4.5105 28.05188,6.26519 41.06779,5.26333 17.18894,-1.32312 34.58118,-7.69837 52.17606,-19.12589 18.92054,-12.24268 30.82425,-26.04044 35.71158,-41.39269 3.20006,-10.05207 1.79245,-18.7248 -4.2214,-26.01736 -2.92209,-3.60824 -9.90092,-9.08861 -20.93593,-16.44039 -12.54463,-8.39443 -20.38468,-14.20929 -23.52251,-17.44436 -8.50005,-8.61661 -11.26717,-17.584 -8.29985,-26.90501 2.38549,-7.49336 7.18177,-13.88008 14.38701,-19.15928 7.0186,-4.99742 14.64986,-7.81298 22.89659,-8.44774 11.32683,-0.87191 19.15139,2.71453 23.47122,10.76149 3.91526,7.18666 4.48879,16.19127 1.72241,27.01224 l 10.87963,-0.83741 13.70205,-43.04124 c -13.22133,-3.52863 -24.25285,-4.95254 -33.09572,-4.27188 z m -164.75975,16.55919 -2.09474,6.58003 c 8.88405,-0.50555 14.38703,0.63059 16.50712,3.40913 2.12006,2.77855 1.85526,8.32599 -0.79204,16.64177 l -46.77866,146.94224 c -9.65831,30.33895 -21.98782,46.08663 -36.99088,47.24144 -6.95505,0.53532 -11.34924,-2.55839 -13.1829,-9.28129 -1.42188,-4.97171 -1.25333,-11.13533 0.50694,-18.49143 l -10.43253,0.80302 -13.83277,43.45184 c 5.33845,1.19365 10.29311,1.61385 14.86358,1.26204 10.92938,-0.84122 23.10153,-6.5022 36.51846,-16.98412 30.41834,-24.00317 50.51527,-51.35649 60.28995,-82.06099 l 36.61156,-115.00509 c 2.61822,-8.22441 5.94799,-13.96291 9.98812,-17.2156 4.16854,-3.35174 10.7024,-5.45926 19.60345,-6.32268 l 2.09473,-6.58003 -72.87938,5.60972 z"
       id="path4188"
       inkscape:connector-curvature="0" />
  </g>
</svg>
