<?xml version="1.0" encoding="UTF-8" standalone="no"?>
<!-- Created with Inkscape (http://www.inkscape.org/) -->

<svg
   xmlns:dc="http://purl.org/dc/elements/1.1/"
   xmlns:cc="http://creativecommons.org/ns#"
   xmlns:rdf="http://www.w3.org/1999/02/22-rdf-syntax-ns#"
   xmlns:svg="http://www.w3.org/2000/svg"
   xmlns="http://www.w3.org/2000/svg"
   xmlns:xlink="http://www.w3.org/1999/xlink"
   xmlns:sodipodi="http://sodipodi.sourceforge.net/DTD/sodipodi-0.dtd"
   xmlns:inkscape="http://www.inkscape.org/namespaces/inkscape"
   id="svg4170"
   version="1.1"
   inkscape:version="0.91 r13725"
   width="1196.0918"
   height="1217.4537"
   viewBox="0 0 1196.0918 1217.4537"
   sodipodi:docname="201610_JS_profile_v3_logo.svg">
  <metadata
     id="metadata4176">
    <rdf:RDF>
      <cc:Work
         rdf:about="">
        <dc:format>image/svg+xml</dc:format>
        <dc:type
           rdf:resource="http://purl.org/dc/dcmitype/StillImage" />
        <dc:title></dc:title>
      </cc:Work>
    </rdf:RDF>
  </metadata>
  <defs
     id="defs4174" />
  <sodipodi:namedview
     pagecolor="#ffffff"
     bordercolor="#666666"
     borderopacity="1"
     objecttolerance="10"
     gridtolerance="10"
     guidetolerance="10"
     inkscape:pageopacity="0"
     inkscape:pageshadow="2"
     inkscape:window-width="1280"
     inkscape:window-height="1024"
     id="namedview4172"
     showgrid="false"
     inkscape:zoom="0.66691529"
     inkscape:cx="333.79699"
     inkscape:cy="624.84815"
     inkscape:window-x="-8"
     inkscape:window-y="-30"
     inkscape:window-maximized="1"
     inkscape:current-layer="layer2"
     showguides="false"
     fit-margin-top="0"
     fit-margin-left="0"
     fit-margin-right="0"
     fit-margin-bottom="0" />
  <g
     inkscape:groupmode="layer"
     id="layer2"
     inkscape:label="circ"
     style="display:inline"
     transform="translate(264.46953,270.66419)">
    <circle
       style="fill:none;fill-opacity:0;fill-rule:evenodd;stroke:none;stroke-width:1.09725678px;stroke-linecap:butt;stroke-linejoin:miter;stroke-opacity:1"
       id="path3334"
       cx="-337.37421"
       cy="-343.61465"
       r="439.28751"
       transform="scale(-1,-1)" />
    <text
       xml:space="preserve"
       style="font-style:normal;font-variant:normal;font-weight:normal;font-stretch:normal;font-size:225px;line-height:120.00000477%;font-family:Berylium;-inkscape-font-specification:'Berylium, Normal';text-align:start;letter-spacing:0px;word-spacing:0px;writing-mode:lr-tb;text-anchor:start;fill:#000000;fill-opacity:1;stroke:none;stroke-width:1px;stroke-linecap:butt;stroke-linejoin:miter;stroke-opacity:1"
       id="text5574"
       sodipodi:linespacing="120%"
       transform="matrix(0.99999633,-0.00271075,0.00271075,0.99999633,-0.91517941,0.90548591)"><textPath
         xlink:href="#path3334"
         id="textPath5582"><tspan
   id="tspan5578"
   style="font-style:normal;font-variant:normal;font-weight:normal;font-stretch:normal;font-size:225px;line-height:120.00000477%;font-family:Berylium;-inkscape-font-specification:'Berylium, Normal';text-align:start;writing-mode:lr-tb;text-anchor:start">She Who Must Be Obeyed!!</tspan></textPath></text>
  </g>
  <path
     style="fill:#000000"
     d="m 451.20056,915.37211 c -12.90637,-40.53297 -46.92305,-15.06868 -74.54965,-7.3591 -30.84136,8.26394 -51.33117,13.44312 -89.05684,-62.42854 -9.97047,-14.33718 -5.24886,-19.5163 3.20367,-27.23066 -9.81998,-8.07504 -12.54291,-20.2114 -5.48593,-29.20726 7.99961,-10.19748 4.56219,-18.62327 -14.45614,-23.05965 -22.52043,-16.88806 27.66514,-52.48777 24.25433,-83.1822 -8.83478,-30.30375 -14.71283,-61.94049 -2.82018,-93.09759 7.01316,-30.36945 29.3434,-52.75315 43.08789,-79.82394 14.23278,-16.30065 24.46763,-34.22972 41.09615,-46.8557 16.57532,-21.25761 40.49547,-33.05152 66.15499,-39.96545 30.68343,-11.68206 65.27356,-16.98643 97.10341,-6.91336 37.23699,6.05419 26.27837,-63.18385 -9.39569,-46.64136 -16.01603,6.79485 -60.15505,13.96742 -42.92727,-17.11858 10.86478,-10.61729 41.89543,-23.83732 58.46276,-18.01519 17.49761,6.14906 36.01768,4.55755 21.00051,-16.00562 2.91059,17.7871 -17.97266,13.26173 -20.99307,9.46773 -14.45161,-18.15296 -0.24455,-46.46225 18.95143,-43.92964 14.10863,1.9567 42.62897,-16.1641 56.68792,-9.5023 28.19613,32.52249 -25.28563,23.00881 -28.63726,43.21419 -1.37167,29.9232 8.86284,56.48508 23.40219,43.05944 21.53273,-21.55503 -6.53737,-34.12733 -6.30748,-38.14033 1.48454,-25.9148 31.80195,6.38899 38.7655,-11.57029 3.65161,-4.20233 20.56008,-15.74725 41.80522,-2.62704 16.45262,36.2485 -52.93148,5.15869 -31.07749,49.72766 1.64661,18.39874 33.24226,-20.74417 36.76963,-31.57414 13.92695,-45.99592 -40.65196,-25.13748 -63.13905,-24.04604 -8.06033,-38.25444 48.00186,-32.90582 69.51873,-19.86588 28.31766,5.33552 18.3643,61.91318 25.05456,61.83376 20.14622,-10.01563 40.73893,-25.25542 8.51567,-45.23594 -8.49545,-37.44907 59.07432,-9.54701 53.81606,20.44338 11.13115,22.21648 -36.47236,34.56942 -27.7135,39.64085 -1.42339,29.26924 29.78886,-16.98229 38.54608,-13.29394 -10.42324,-13.80892 4.45236,-27.63014 20.09964,-21.32596 -23.66099,-18.52209 -12.64179,-22.16494 -10.0893,-23.89254 8.38703,-10.05153 45.77595,-6.46047 50.62397,17.65668 18.95636,21.39537 -20.53593,46.97787 -9.34258,59.57772 25.66763,-6.86086 45.92725,12.54003 48.84696,37.82782 -8.80836,19.37931 -29.91482,25.71889 -27.6844,-3.66237 -28.10238,22.64991 -32.83428,26.19722 -79.20357,36.05497 18.39841,2.65583 57.49391,13.73466 54.2257,-11.60472 35.11253,-20.28473 35.99509,56.93029 -0.63072,52.76497 -3.97887,6.37379 30.60505,16.5111 32.19456,3.86521 2.6777,-44.6219 47.27353,5.53307 25.58169,27.59049 -14.75382,25.08682 -53.63792,7.56377 -64.84956,1.24091 15.25299,25.69765 55.02516,10.62682 58.03904,47.43574 37.26119,15.07931 -3.02381,45.2694 -11.15357,17.06989 -6.92848,-14.72256 -36.77109,-29.96398 -21.83586,-1.76977 4.21298,14.65838 45.18202,41.20227 6.14071,38.48142 -19.00049,0.62155 -45.18866,-54.3242 -50.68255,-46.53616 14.35077,12.17469 6.52164,35.32057 11.02596,40.07604 39.67487,-0.0719 23.74994,40.45213 -12.91676,35.31684 16.21819,6.98771 34.77683,-5.25947 47.08493,10.98124 14.72964,32.6194 -64.84656,-2.80342 -39.16609,19.44639 18.72555,19.94991 60.2167,-22.40999 55.34802,19.95441 -11.03756,10.494 -28.64272,12.25272 -10.68516,26.87523 21.72277,26.87614 -31.04672,79.52807 -42.12534,37.91585 2.04775,-13.72381 25.72994,-34.7764 -4.7139,-38.72599 -20.41389,-4.51951 -21.2867,6.69203 -1.44474,7.43433 25.511,22.42827 -13.2508,26.35107 -27.56673,28.10773 25.00959,16.75962 13.28753,32.97297 -7.95843,35.83623 -50.65376,-10.21362 -65.76231,-47.58257 -42.72461,-65.73637 24.67003,-17.65032 14.44539,-49.73833 4.38619,-23.6908 -16.28768,25.73422 -60.03323,30.00638 -81.92523,13.43536 -11.57172,-37.83852 52.84018,-10.55199 57.3118,-44.51653 7.45668,-39.81047 -20.26019,45.84447 -32.56326,2.65602 -9.74416,-22.35793 19.9949,-44.66231 -9.92299,-52.00965 -22.36068,-24.56763 18.10879,-30.24992 24.34232,-19.29964 -2.81273,-20.11012 -41.81477,-40.44031 -37.27823,-8.37713 -0.44944,29.92989 -6.48713,59.38001 -16.57296,87.40633 -8.1244,36.21829 -11.36747,75.2548 1.38667,110.71456 8.76543,22.8512 23.293,46.66577 41.47936,64.05449 14.99909,21.0206 36.12747,33.38992 55.75614,53.99946 -182.87047,0.66627 -183.0211,0.464 -291.70944,1.37344 -4.74711,-1.93782 -2.31564,0.6141 -8.76483,-4.69941 z"
     id="path4180"
     inkscape:connector-curvature="0"
     sodipodi:nodetypes="ccccscccccccccscsccccsccccccccccccccccccccccccccccccccccccccccccccccccccccc" />
  <g
     inkscape:groupmode="layer"
     id="layer6"
     inkscape:label="Trace"
     style="display:inline"
     transform="translate(264.46953,270.66419)" />
</svg>
