<?xml version="1.0" encoding="UTF-8" standalone="no"?>
<!-- Created with Inkscape (http://www.inkscape.org/) -->

<svg
   xmlns:dc="http://purl.org/dc/elements/1.1/"
   xmlns:cc="http://creativecommons.org/ns#"
   xmlns:rdf="http://www.w3.org/1999/02/22-rdf-syntax-ns#"
   xmlns:svg="http://www.w3.org/2000/svg"
   xmlns="http://www.w3.org/2000/svg"
   xmlns:sodipodi="http://sodipodi.sourceforge.net/DTD/sodipodi-0.dtd"
   xmlns:inkscape="http://www.inkscape.org/namespaces/inkscape"
   id="svg4170"
   version="1.1"
   inkscape:version="0.91 r13725"
   width="778.44684"
   height="778.63361"
   viewBox="0 0 778.44684 778.63363"
   sodipodi:docname="201702_JS_Coin_edge.svg"
   inkscape:export-filename="C:\Users\l501665\Documents\JS_Profile\20161110_JS_profile_wax_stamp.png"
   inkscape:export-xdpi="90"
   inkscape:export-ydpi="90">
  <metadata
     id="metadata4176">
    <rdf:RDF>
      <cc:Work
         rdf:about="">
        <dc:format>image/svg+xml</dc:format>
        <dc:type
           rdf:resource="http://purl.org/dc/dcmitype/StillImage" />
        <dc:title></dc:title>
      </cc:Work>
    </rdf:RDF>
  </metadata>
  <defs
     id="defs4174" />
  <sodipodi:namedview
     pagecolor="#ffffff"
     bordercolor="#ffffff"
     borderopacity="1"
     objecttolerance="10"
     gridtolerance="10"
     guidetolerance="10"
     inkscape:pageopacity="1"
     inkscape:pageshadow="2"
     inkscape:window-width="1600"
     inkscape:window-height="848"
     id="namedview4172"
     showgrid="false"
     inkscape:zoom="7.5452851"
     inkscape:cx="305.66486"
     inkscape:cy="762.54486"
     inkscape:window-x="1272"
     inkscape:window-y="116"
     inkscape:window-maximized="1"
     inkscape:current-layer="svg4170"
     fit-margin-top="0"
     fit-margin-left="0"
     fit-margin-right="0"
     fit-margin-bottom="0" />
  <g
     inkscape:groupmode="layer"
     id="layer6"
     inkscape:label="Profile"
     style="display:inline"
     transform="translate(33.673327,-31.117214)" />
  <flowRoot
     xml:space="preserve"
     id="flowRoot56087"
     style="font-style:normal;font-weight:normal;font-size:40px;line-height:125%;font-family:sans-serif;letter-spacing:0px;word-spacing:0px;opacity:1;fill:#000000;fill-opacity:1;stroke:#000000;stroke-width:1px;stroke-linecap:butt;stroke-linejoin:miter;stroke-opacity:1"
     transform="translate(-263.92898,-200.1332)"><flowRegion
       id="flowRegion56089"><rect
         id="rect56091"
         width="33.928471"
         height="50.892708"
         x="-390.17743"
         y="-124.59406"
         style="stroke:#000000;stroke-opacity:1" /></flowRegion><flowPara
       id="flowPara56093" /></flowRoot>  <g
     inkscape:groupmode="layer"
     id="layer2"
     inkscape:label="Inits"
     transform="translate(-263.92898,-200.1332)"
     style="display:inline" />
  <path
     style="opacity:1;fill:#000000;fill-opacity:1;stroke:#000000;stroke-width:1;stroke-linejoin:miter;stroke-miterlimit:0;stroke-dasharray:none;stroke-dashoffset:0;stroke-opacity:1"
     d="m 388.29688,4.9902344 c -7.12816,0.9266117 -12.63622,6.0209366 -18.67579,9.4531246 -8.00556,-5.2874711 -19.29191,-10.8752883 -28.07031,-4.103515 -4.80118,3.018263 -9.94515,11.079553 -16.24414,6.185547 -8.27018,-4.22113 -19.64379,-4.898088 -25.88281,3.007812 -3.28844,3.413215 -7.1169,9.074587 -12.27735,5.488281 -7.99837,-2.958326 -18.46648,-3.12211 -24.04492,4.238282 -3.79472,3.730562 -6.84918,12.257689 -13.59179,8.77539 -8.43967,-2.30493 -19.22714,-1.281298 -24.19336,6.898438 -2.72451,3.907296 -5.17522,11.383616 -11.36329,9.298828 -8.88842,-1.411441 -19.61862,0.957525 -23.46484,9.951172 -2.61487,4.362551 -4.13037,12.621034 -11.01562,10.580078 -8.5046,-0.332346 -18.55699,2.425406 -21.85547,11.066406 -2.17114,4.870259 -3.06067,13.431944 -10.41797,12.271484 -8.01887,0.524513 -17.78371,4.848278 -19.77149,13.789058 -1.85757,4.99123 -1.24825,13.82828 -8.78906,13.36133 -8.68264,1.47927 -18.11698,6.59593 -19.265623,16.15625 -0.81894,4.8383 -0.299397,13.16011 -7.472656,13.38672 -8.492931,2.3415 -16.562555,9.03044 -16.56836,18.39063 -0.119527,5.19893 1.049816,13.16564 -6.007812,14.23633 -8.038707,3.1702 -16.018168,10.20215 -15.1875,19.6914 0.355135,5.15598 2.300432,12.83753 -4.515625,14.62891 -7.771783,4.13495 -14.354431,12.08444 -12.369141,21.375 0.653928,5.10248 4.026314,12.56938 -2.669922,15.03906 -7.402992,4.83406 -13.777481,13.43637 -11.037109,22.60937 1.439342,4.95518 4.992831,12.09612 -1.369141,15.25391 -6.731609,5.60506 -11.549007,14.92786 -7.638672,23.48242 1.553861,4.85816 6.648736,11.43651 0.541016,15.2168 -6.1501878,6.20198 -10.8420504,15.97778 -6.0996094,24.28906 1.1433064,3.93655 5.4878234,7.92717 4.5468754,11.69336 -5.9899235,7.23101 -11.9568202,17.86081 -6.0800785,26.8711 2.3556726,5.09024 9.8320315,10.64293 4.4042965,16.18945 -4.7466658,7.42827 -7.1439813,17.88901 -0.86914,25.12109 3.202691,4.01305 9.468382,9.02479 4.949219,14.48633 -3.886395,7.7485 -4.467692,18.42427 2.613281,24.625 3.461284,3.7849 10.542655,7.7817 6.628906,13.6582 -3.28005,8.44457 -3.192922,19.55425 4.888672,25.17188 2.471307,2.90183 7.847558,4.67507 8.332031,8.31055 -2.554227,9.01788 -3.605971,21.19927 5.355469,27.00195 4.213732,3.69458 13.309489,5.76471 10.630859,13.01367 -1.197073,8.42173 0.44813,18.66943 8.699219,22.88281 4.617085,2.69957 13.082789,4.41886 11.136719,11.66797 -0.387689,8.77805 3.443759,18.61038 12.40039,21.39844 4.691072,2.11212 12.7676,2.82603 11.607422,9.75781 0.447421,9.03667 4.993794,19.2382 14.718754,21.04688 3.44058,1.63802 9.05659,1.07808 10.98242,4.19726 1.32195,9.27935 5.28817,20.81066 15.87305,22.49805 5.27482,1.65002 14.57694,-0.20559 15.00585,7.56055 2.34544,8.1713 7.9817,16.88858 17.26563,17.35937 5.30313,0.58353 13.75072,-1.23408 14.91406,6.14063 3.2479,8.10606 10.61692,15.63045 19.9668,14.5 5.16989,0.0362 12.88555,-2.65291 14.64648,4.21289 4.08113,7.72265 11.81486,15.32554 21.25196,13.29297 4.06295,0.16653 9.18086,-2.78483 12.48046,-0.70508 5.03628,7.96837 13.30578,16.84307 23.66797,14.09179 5.53044,-0.66924 13.19264,-6.09642 16.77344,0.8086 5.61349,6.81287 14.77616,12.31744 23.61524,8.60547 4.75759,-1.94069 11.55129,-6.16013 15.33203,-0.22657 6.29996,6.08299 16.07135,9.93044 24.16406,5.1211 4.72509,-2.02202 10.67019,-7.78106 15.07812,-2.09766 7.05438,5.69742 17.63428,9.14379 25.5,3.09961 4.24348,-1.65416 8.43923,-8.40543 12.82114,-3.89121 7.31963,4.62127 17.5653,7.90703 24.99136,1.78379 4.72435,-2.83001 9.60261,-10.88865 15.61719,-6.05664 7.90952,3.96472 18.50899,5.17996 25.08399,-1.7461 3.61509,-3.64619 7.94118,-10.40811 13.875,-6.45703 8.2082,3.01423 18.73371,2.54589 24.16992,-5.10742 3.44606,-3.78154 6.69831,-11.49734 12.9082,-8.08594 8.25225,2.20164 19.33404,1.45011 24.12891,-6.90429 2.86116,-2.87039 4.09442,-8.73087 7.80078,-9.73828 9.25581,1.60939 21.46043,1.39403 26.32617,-8.15821 3.2368,-4.45276 4.29323,-13.95505 11.82617,-11.91992 8.50976,0.29982 18.52378,-2.38663 21.85352,-11.06445 2.18838,-4.51365 2.81984,-12.93551 9.54883,-12.17578 9.011,-0.4088 18.91024,-5.09579 20.86718,-14.60157 1.58574,-4.8554 1.36876,-13.19653 8.55078,-12.64648 8.68135,-1.46819 18.13361,-6.61075 19.2754,-16.16211 0.80595,-4.9126 0.33624,-13.14031 7.47851,-13.38281 8.41609,-2.40622 16.65629,-8.98836 16.51758,-18.40039 0.52209,-5.10069 -1.26483,-13.04517 5.71484,-14.07032 8.20478,-3.22543 16.3431,-10.25317 15.51172,-19.8164 -0.21168,-5.13175 -2.34941,-12.90439 4.53906,-14.66602 7.74279,-4.10066 14.36969,-12.2094 12.35352,-21.38476 -0.60861,-5.09169 -4.0424,-12.56199 2.64844,-15.00391 7.25985,-4.81088 13.95672,-13.3968 11.04687,-22.63476 -1.36006,-4.97229 -4.94145,-12.08546 1.38672,-15.24805 6.75523,-5.62245 11.52032,-14.96029 7.62891,-23.5293 -1.6131,-4.82813 -6.6047,-11.44081 -0.49219,-15.2168 6.22915,-6.25627 10.68661,-16.00859 6.09375,-24.38867 -2.41491,-4.52481 -7.35546,-10.7837 -1.86328,-15.17383 5.39307,-6.89277 8.23561,-17.03769 2.60937,-24.5957 -2.57103,-4.46683 -8.73836,-9.87164 -3.65429,-14.82812 4.71289,-7.33686 7.1692,-17.87173 0.88086,-25.12305 -3.05821,-3.88534 -9.56111,-9.01316 -4.97071,-14.4668 3.85153,-7.85585 4.52606,-18.36878 -2.54101,-24.59765 -3.3898,-3.83287 -10.75944,-7.73674 -6.6875,-13.69922 3.03983,-8.18922 3.42172,-19.05804 -4.34375,-24.69141 -2.59515,-3.12638 -8.23938,-4.9773 -8.87696,-8.79883 2.62868,-9.01729 3.52368,-21.19487 -5.35937,-27.03125 -4.24525,-3.61184 -13.3216,-5.71169 -10.625,-12.99218 1.35862,-8.74109 -0.7775,-19.21239 -9.39649,-23.3125 -4.62791,-2.31256 -12.35318,-4.36767 -10.43554,-11.24414 0.42947,-8.77807 -3.44529,-18.60199 -12.39844,-21.40039 -4.71916,-2.04983 -12.82366,-2.79802 -11.61914,-9.78907 -0.51695,-8.72391 -4.62874,-18.76828 -14.00781,-20.77148 -3.69717,-1.75892 -9.52098,-1.23012 -11.68946,-4.4336 -1.30708,-9.2819 -5.32903,-20.82327 -15.89062,-22.49804 -5.31506,-1.625562 -14.51501,0.1734 -14.98633,-7.546878 -2.31954,-8.542518 -8.53851,-17.304151 -18.12109,-17.478515 -5.12024,-0.212276 -13.03569,0.946281 -14.06055,-6.03125 -3.27092,-8.10119 -10.57503,-15.647698 -19.9668,-14.5 -5.1473,-0.10262 -12.92552,2.767556 -14.64843,-4.216797 -4.08946,-7.714458 -11.82816,-15.316772 -21.25391,-13.285156 -4.04226,-0.236671 -9.22798,2.804283 -12.45508,0.732422 -4.96977,-7.836924 -13.14591,-16.842351 -23.4707,-14.16211 -5.55598,0.589154 -13.37712,6.206357 -16.98633,-0.765625 -5.58884,-6.709627 -14.74709,-12.432117 -23.51953,-8.544922 -4.02004,0.721034 -8.42462,4.614762 -12.05664,3.28711 -6.47575,-6.673258 -16.51176,-13.7442597 -25.97852,-8.8613284 -4.50287,1.3129414 -8.81344,5.8815854 -13.3457,5.1796874 -5.87861,-3.977173 -12.01682,-9.1454552 -19.51562,-9.0585936 z"
     id="path4144"
     inkscape:connector-curvature="0"
     sodipodi:nodetypes="ccccccccccccccccccccccccccccccccccccccccccccccccccccccccccccccccccccccccccccccccccccccccccccccccccccccccccccccccccccccccc" />
</svg>
