<?xml version="1.0" encoding="UTF-8" standalone="no"?>
<!-- Created with Inkscape (http://www.inkscape.org/) -->

<svg
   xmlns:dc="http://purl.org/dc/elements/1.1/"
   xmlns:cc="http://creativecommons.org/ns#"
   xmlns:rdf="http://www.w3.org/1999/02/22-rdf-syntax-ns#"
   xmlns:svg="http://www.w3.org/2000/svg"
   xmlns="http://www.w3.org/2000/svg"
   xmlns:sodipodi="http://sodipodi.sourceforge.net/DTD/sodipodi-0.dtd"
   xmlns:inkscape="http://www.inkscape.org/namespaces/inkscape"
   id="svg4170"
   version="1.1"
   inkscape:version="0.91 r13725"
   width="778.44684"
   height="778.63361"
   viewBox="0 0 778.44684 778.63363"
   sodipodi:docname="201610_JS_profile_v3_inits_v2.svg"
   inkscape:export-filename="C:\Users\l501665\Documents\JS_Profile\20161110_JS_profile_wax_stamp.png"
   inkscape:export-xdpi="90"
   inkscape:export-ydpi="90">
  <metadata
     id="metadata4176">
    <rdf:RDF>
      <cc:Work
         rdf:about="">
        <dc:format>image/svg+xml</dc:format>
        <dc:type
           rdf:resource="http://purl.org/dc/dcmitype/StillImage" />
        <dc:title />
      </cc:Work>
    </rdf:RDF>
  </metadata>
  <defs
     id="defs4174" />
  <sodipodi:namedview
     pagecolor="#ffffff"
     bordercolor="#ffffff"
     borderopacity="1"
     objecttolerance="10"
     gridtolerance="10"
     guidetolerance="10"
     inkscape:pageopacity="1"
     inkscape:pageshadow="2"
     inkscape:window-width="1600"
     inkscape:window-height="848"
     id="namedview4172"
     showgrid="false"
     inkscape:zoom="0.66691528"
     inkscape:cx="339.96545"
     inkscape:cy="416.93294"
     inkscape:window-x="1272"
     inkscape:window-y="116"
     inkscape:window-maximized="1"
     inkscape:current-layer="svg4170"
     fit-margin-top="0"
     fit-margin-left="0"
     fit-margin-right="0"
     fit-margin-bottom="0" />
  <path
     style="opacity:1;fill:#000000;stroke:#000000;stroke-width:1.00890374;stroke-opacity:1"
     d="m 445.58398,109.55859 c -9.42097,-0.0339 -22.68264,2.77577 -24.43359,13.90625 0.0496,2.15196 -1.48138,7.57802 2.25,6.14258 15.16519,-1.49843 30.9521,-7.21972 46.06445,-2.5332 8.28974,2.63303 10.65406,12.54813 8.48047,20.13867 -2.39755,11.98696 -11.84919,20.9325 -19.96679,29.4375 -4.00813,3.28675 -9.77152,9.51802 -15.32227,6.05273 -2.44615,-3.4845 -3.45807,-7.91713 -5.05273,-11.91406 -2.40219,-6.26355 0.70444,-13.96644 7.4375,-15.77929 7.77322,-3.38896 17.759,-1.46843 24.16601,-7.54102 1.91134,-4.34135 -0.24749,-10.59616 -5.37891,-11.35547 -9.31942,-3.99374 -21.6658,-3.06578 -29.0996,4.4707 -3.71182,7.62233 -13.49409,4.96707 -19.77906,2.87923 -4.48977,-1.54104 -12.96029,-3.83405 -13.29516,3.49187 0.26207,3.81734 5.5708,5.42681 7.57617,8.69531 6.17751,5.93664 6.29812,16.21643 0.31055,22.35938 -3.59641,5.47191 -11.84984,9.75852 -17.38086,4.39648 -8.90624,-9.35106 -9.49281,-23.51335 -9.65625,-35.7207 -0.56815,-9.71604 10.51534,-13.61136 18.05327,-15.979 4.80108,-2.18217 13.95691,-3.05623 14.07368,-9.83936 -1.4903,-5.60237 -5.65134,-12.44597 -12.36328,-11.26953 -15.85268,1.00322 -30.27432,10.77272 -46.42188,9.08398 -14.58798,2.4126 -20.80397,23.89046 -9.68945,33.57031 4.7824,2.68748 14.84379,2.45129 13.98437,-5.17773 -1.13894,-6.51624 -2.09389,-12.06605 3.01928,-3.66411 3.68815,4.45773 8.71911,12.60604 2.81666,17.35356 -9.15677,5.39096 -19.87971,-0.81985 -29.18164,-1.63476 -15.34696,0.1761 -30.49265,5.89201 -42.55859,15.27929 -3.11734,4.43711 -5.32038,12.90933 1.99219,14.58399 13.29866,3.44227 26.4722,-1.52781 39.07812,-5.47071 11.66112,-2.76161 22.50652,7.09073 24.41797,18.19922 2.82322,10.13298 -1.63344,23.69073 -13.0293,25.8418 -9.67454,1.9494 -18.78565,-3.72724 -28.46289,-3.69336 -23.46444,-2.52317 -47.01634,3.4503 -69.2073,10.88129 -20.06045,5.46705 -39.14513,15.85562 -52.67209,31.84651 -13.96877,10.54157 -23.63473,25.50733 -35.04362,38.49429 -12.206,21.98316 -31.27687,40.79612 -37.32113,65.73299 -9.63228,24.16263 -4.20112,51.13768 3.12695,75.29687 0.67339,17.34297 -12.63134,30.79249 -20.76171,44.8086 -3.65202,6.01197 -9.092004,15.55242 -2.05664,21.13476 6.71153,2.14576 17.03075,4.48484 17.73242,13.13086 0.1961,7.95583 -10.14414,12.92444 -6.31055,21.41992 1.40607,4.54872 4.96927,7.97544 8.69336,10.73047 -4.88639,3.8261 -11.95186,9.75039 -7.29492,16.57813 11.84362,19.38913 21.46115,41.99127 41.24023,54.79297 14.26989,8.54108 31.40046,2.50463 45.92563,-2.03146 13.75749,-4.40154 28.4481,-12.88028 43.28531,-8.31034 7.83724,2.7294 12.70644,10.29038 15.2207,17.83008 6.57769,5.93832 16.37355,1.85285 24.30025,2.96111 76.98107,-0.62486 153.96511,-0.67904 230.9478,-0.97674 -15.43028,-14.23351 -33.4681,-25.78943 -46.50391,-42.4707 -18.94018,-18.42982 -33.80102,-41.9136 -39.79687,-67.81836 -5.56813,-26.20198 -2.73526,-53.67623 4.23242,-79.30078 8.97429,-24.31251 14.09684,-50.03062 13.36328,-75.88477 0.28829,-7.41799 8.68435,-10.97054 15.00781,-8.43164 12.07201,3.73759 23.15836,14.84317 22.14454,28.28711 -2.96491,-5.35246 -8.12255,-9.36944 -14.47852,-8.67969 -5.80555,-0.301 -15.81485,3.14675 -12.33008,10.64258 1.44913,5.46792 6.48185,6.42315 10.87891,8.35742 7.07581,3.14563 7.15474,11.97259 4.59179,18.16993 -3.1678,8.41773 -5.37138,17.97009 -0.83984,26.36523 0.91975,3.62972 4.81916,8.24972 8.57617,4.70899 7.3535,-5.06989 9.95761,-14.61732 16.70508,-20.06446 4.64152,-0.60294 3.18498,5.69567 2.67773,8.41797 -0.32892,8.19026 -5.81975,15.62634 -13.77539,17.89844 -11.49357,4.55098 -25.19701,1.82265 -35.66796,8.86133 -3.66864,3.87269 -3.06463,12.10004 2.72851,13.5 19.08536,8.74171 43.96849,6.21833 59.70899,-8.14258 5.37513,-3.64789 5.43655,-13.38851 12.79492,-14.13281 6.01681,1.46542 5.06376,9.60613 3.67773,14.16992 -2.37827,9.09029 -10.20429,14.77775 -16.91601,20.54297 -9.23389,10.11 -2.87361,25.22021 6.69336,32.55273 9.81633,7.95726 22.04216,13.05869 34.49023,14.35547 6.67146,-1.09785 16.78336,-4.72893 15.71289,-13.25977 -2.28757,-7.68134 -9.81953,-11.30725 -15.88086,-15.42773 11.34379,-1.9463 24.52804,-1.0627 34.10547,-8.47656 3.16323,-4.29651 -2.39167,-9.87998 -6.07617,-11.44727 -4.47149,-0.55856 -12.32399,-1.01706 -12.77344,-6.86523 1.8986,-5.46828 9.49129,-4.03319 13.93887,-3.54873 6.65869,0.86877 16.82042,2.42575 17.26816,10.9081 -0.10397,8.77413 -7.66048,15.28866 -9.18554,23.58203 1.33355,6.94048 8.3993,12.80201 15.51562,9.91993 12.70441,-4.72992 23.19588,-18.5852 21.23828,-32.50586 -0.35232,-7.98721 -11.12212,-10.21467 -10.84766,-18.23828 1.797,-7.82721 12.46244,-8.60221 16.16602,-14.59376 0.99484,-4.98555 -0.15795,-13.5718 -7.23047,-12.42578 -12.35659,0.83045 -26.07552,8.66043 -37.90039,1.40235 -2.87819,-2.73857 -8.77308,-5.53152 -7.42969,-10.25196 3.73431,-3.97088 10.22162,-0.79957 14.8739,-0.86006 7.83091,0.4798 16.93257,3.64652 24.1886,-0.53837 3.06149,-6.45595 -4.77421,-12.14871 -10.60937,-12.94141 -11.40595,-1.89576 -24.92056,3.21475 -34.49219,-5.45898 9.33722,-0.92224 19.8274,0.96023 27.9043,-5.24024 6.31033,-3.38313 10.15638,-13.95229 2.1914,-17.80078 -4.53846,-3.23476 -10.96492,-1.66193 -15.34765,-3.7832 -3.59285,-7.18192 -0.21624,-15.89746 -3.10938,-23.41016 -1.1722,-4.23095 -3.96765,-7.846 -7.52148,-10.37305 1.98159,-4.66573 7.45242,-2.67453 9.7168,0.5293 11.30619,11.57737 19.04988,27.69037 33.90625,35.01758 5.07983,0.8688 11.49434,1.78959 15.88671,-1.14648 -2.10542,-7.87102 -10.01801,-12.70462 -14.66601,-19.1543 -4.27017,-5.50731 -8.11991,-12.04237 -8.80469,-19.07813 0.23075,-6.11125 7.90828,-5.44542 11.64063,-2.99218 7.62846,3.73436 13.83017,10.20801 16.78125,18.16406 4.76156,8.86357 21.33059,1.69982 16.57617,-7.68164 -2.688,-4.49945 -7.8572,-6.6463 -12.51953,-8.49414 0.23021,-10.31527 -7.36671,-19.07488 -17.15039,-21.54883 -12.50124,-3.89699 -27.60637,-6.84316 -34.34113,-19.55256 -6.43616,-7.62 1.32798,-2.31021 5.77081,-0.14471 13.44717,6.04665 29.84481,12.20505 44.35743,5.68164 6.64026,-4.58991 13.74242,-12.14865 12.16406,-21.04492 -1.50606,-8.7782 -7.29951,-19.32848 -16.93164,-20.44336 -6.79114,1.82854 -5.16935,10.51637 -7.26953,15.56446 -5.07379,6.403 -14.75675,4.07932 -21.54493,2.36132 -3.8711,-1.34818 -11.22996,-3.66007 -9.49609,-9.10547 1.96413,-2.62014 6.82028,-0.12314 9.91992,-2.02734 13.12771,-5.18413 16.57474,-23.14276 11.36914,-35.08008 -2.55503,-6.6297 -11.05966,-8.17639 -16.73242,-4.53125 1.28254,8.09237 -6.47955,13.90639 -13.90234,14.02539 -13.65459,0.86605 -27.43093,-1.96249 -40.54426,-5.10848 -0.48944,-1.79279 8.44708,-3.17307 11.8216,-3.92863 18.37874,-3.48422 36.99038,-8.65366 51.68377,-20.83174 4.3327,-3.20208 8.59971,-6.49174 12.89436,-9.74443 -0.14775,6.064 -2.39338,15.71502 4.61328,18.75782 7.0416,0.32018 12.53869,-6.31613 15.10351,-12.13672 -1.82315,-17.01446 -17.52942,-32.0559 -35.12109,-29.48633 -3.18854,0.37338 -6.97889,2.34937 -8.25977,-1.75977 -3.19425,-8.55056 4.80797,-16.01633 8.32719,-23.04916 4.72708,-7.07401 8.39171,-17.75303 0.89938,-24.43326 -3.22286,-14.32465 -20.44561,-19.30716 -33.37696,-17.44336 -4.30396,0.62545 -8.58702,3.16567 -11.07617,6.50586 1.87222,8.20558 11.69559,11.23352 16.02149,17.875 -6.96798,-1.1818 -15.90648,-4.45932 -21.51758,1.84375 -5.25041,5.63265 0.77853,12.8068 4.65039,17.15039 -3.69072,-1.87292 -7.96191,-3.60775 -11.26953,-0.11523 -8.2834,5.1594 -14.43956,14.77217 -24.39844,16.97461 -5.2238,0.30039 -5.59431,-6.12886 -6.10938,-9.625 -1.95782,-5.00401 5.302,-7.17468 8.28125,-9.48633 7.12553,-4.70862 18.14355,-9.53523 17.6836,-19.57617 -2.08784,-4.76183 -0.0963,-10.3433 -3.40039,-14.90625 -7.31562,-11.33335 -20.97199,-19.23333 -34.58008,-18.72461 -5.83952,0.0134 -8.77129,7.46913 -5.92188,11.79101 7.50076,4.4352 17.11114,12.43739 13.43164,22.2461 -4.38712,9.2748 -14.62978,14.37232 -23.57226,17.97461 -4.9435,-1.73777 -3.43937,-8.71573 -4.30078,-12.75977 -1.24501,-12.54017 -0.9381,-28.35953 -12.47266,-36.46094 -10.77829,-4.63583 -21.61778,-9.09371 -33.5664,-9.59961 -1.91969,-0.13305 -3.84533,-0.19055 -5.76954,-0.16211 z m -78.08007,192.08399 c 13.54603,0.22405 26.58831,4.63254 39.20117,9.19336 0,18.77604 0,37.55208 0,56.32812 -4.74109,-1.41711 -15.09755,3.13548 -15.51606,-2.87704 -1.11129,-17.7661 -9.02813,-37.68405 -26.40777,-45.10147 -14.42442,-5.89794 -33.5893,0.47444 -38.63281,15.87695 -6.00899,15.85162 3.07144,32.6676 14.65625,43.44531 19.42851,18.40884 44.11094,30.56814 62.52343,50.09961 15.71847,17.28058 15.70876,44.52344 3.83817,63.86243 -16.07778,25.90612 -47.47095,42.39795 -78.06403,37.89431 -13.02813,-1.54276 -25.62894,-5.5894 -37.6921,-10.63955 0,-21.3405 0,-42.68099 0,-64.02149 4.63975,1.40912 15.2001,-3.16046 15.15417,2.98043 0.074,20.5824 9.26814,43.38386 28.37499,53.45512 17.10334,8.34761 41.26427,2.15552 48.7599,-16.34765 7.00131,-16.06056 1.95703,-35.63902 -10.02468,-47.61612 -19.98387,-19.61772 -45.85492,-32.25129 -65.48313,-52.29404 -13.38141,-15.26212 -15.50302,-38.42957 -6.22572,-56.30022 12.39105,-23.46493 39.23612,-38.16968 65.53822,-37.93806 z m -172.20313,4.88867 c 26.25391,0 52.50781,0 78.76172,0 -0.7829,5.02191 2.92508,14.26458 -5.22461,12.25391 -7.52989,0.0301 -16.4334,3.65465 -17.41566,12.1036 -2.68198,16.67015 -0.52742,33.73409 -1.22106,50.55265 -0.30317,38.3334 0.58369,76.696 -0.39615,115.0133 -2.20155,35.98863 -18.34184,71.39717 -45.47494,95.36365 -10.56673,9.23939 -25.6036,13.01893 -39.10938,8.70508 -3.50825,-0.86391 -7.6501,-1.49772 -5.98242,-6.25977 0,-17.47721 0,-34.95443 0,-52.43164 4.75003,1.47504 15.4182,-3.44895 15.11133,3.49414 1.30724,11.41124 4.17908,25.19558 14.95117,31.4043 9.14667,4.56496 19.32278,-2.5012 22.10156,-11.45117 8.66193,-23.38011 4.82557,-48.80183 5.75782,-73.18164 -0.20444,-51.85422 0.40558,-103.7331 -0.29883,-155.57227 -0.12546,-7.09643 -3.37876,-15.42373 -11.26188,-16.61213 -4.00296,-1.08335 -8.17579,-1.25075 -12.29867,-1.36248 1.02439,-3.36921 -2.2299,-11.98674 2,-12.01953 z"
     id="path4180"
     inkscape:connector-curvature="0" />
  <g
     inkscape:groupmode="layer"
     id="layer6"
     inkscape:label="Profile"
     style="display:inline"
     transform="translate(33.673327,-31.117214)" />
  <flowRoot
     xml:space="preserve"
     id="flowRoot56087"
     style="font-style:normal;font-weight:normal;font-size:40px;line-height:125%;font-family:sans-serif;letter-spacing:0px;word-spacing:0px;opacity:1;fill:#000000;fill-opacity:1;stroke:#000000;stroke-width:1px;stroke-linecap:butt;stroke-linejoin:miter;stroke-opacity:1"
     transform="translate(-263.92898,-200.1332)"><flowRegion
       id="flowRegion56089"><rect
         id="rect56091"
         width="33.928471"
         height="50.892708"
         x="-390.17743"
         y="-124.59406"
         style="stroke:#000000;stroke-opacity:1" /></flowRegion><flowPara
       id="flowPara56093" /></flowRoot>  <g
     inkscape:groupmode="layer"
     id="layer2"
     inkscape:label="Inits"
     transform="translate(-263.92898,-200.1332)"
     style="display:inline" />
  <path
     style="opacity:1;fill:#000000;fill-opacity:1;stroke:#000000;stroke-width:5.87265253;stroke-linejoin:miter;stroke-miterlimit:4;stroke-dasharray:none;stroke-dashoffset:0;stroke-opacity:1"
     d="m 388.29688,4.9902344 c -7.12816,0.9266117 -12.63622,6.0209366 -18.67579,9.4531246 -8.00556,-5.2874711 -19.29191,-10.8752883 -28.07031,-4.103515 -4.80118,3.018263 -9.94515,11.079553 -16.24414,6.185547 -8.27018,-4.22113 -19.64379,-4.898088 -25.88281,3.007812 -3.28844,3.413215 -7.1169,9.074587 -12.27735,5.488281 -7.99837,-2.958326 -18.46648,-3.12211 -24.04492,4.238282 -3.79472,3.730562 -6.84918,12.257689 -13.59179,8.77539 -8.43967,-2.30493 -19.22714,-1.281298 -24.19336,6.898438 -2.72451,3.907296 -5.17522,11.383616 -11.36329,9.298828 -8.88842,-1.411441 -19.61862,0.957525 -23.46484,9.951172 -2.61487,4.362551 -4.13037,12.621034 -11.01562,10.580078 -8.5046,-0.332346 -18.55699,2.425406 -21.85547,11.066406 -2.17114,4.870259 -3.06067,13.431944 -10.41797,12.271484 -8.01887,0.524513 -17.78371,4.848278 -19.77149,13.789058 -1.85757,4.99123 -1.24825,13.82828 -8.78906,13.36133 -8.68264,1.47927 -18.11698,6.59593 -19.265623,16.15625 -0.81894,4.8383 -0.299397,13.16011 -7.472656,13.38672 -8.492931,2.3415 -16.562555,9.03044 -16.56836,18.39063 -0.119527,5.19893 1.049816,13.16564 -6.007812,14.23633 -8.038707,3.1702 -16.018168,10.20215 -15.1875,19.6914 0.355135,5.15598 2.300432,12.83753 -4.515625,14.62891 -7.771783,4.13495 -14.354431,12.08444 -12.369141,21.375 0.653928,5.10248 4.026314,12.56938 -2.669922,15.03906 -7.402992,4.83406 -13.777481,13.43637 -11.037109,22.60937 1.439342,4.95518 4.992831,12.09612 -1.369141,15.25391 -6.731609,5.60506 -11.549007,14.92786 -7.638672,23.48242 1.553861,4.85816 6.648736,11.43651 0.541016,15.2168 -6.1501878,6.20198 -10.8420504,15.97778 -6.0996094,24.28906 1.1433064,3.93655 5.4878234,7.92717 4.5468754,11.69336 -5.9899235,7.23101 -11.9568202,17.86081 -6.0800785,26.8711 2.3556726,5.09024 9.8320315,10.64293 4.4042965,16.18945 -4.7466658,7.42827 -7.1439813,17.88901 -0.86914,25.12109 3.202691,4.01305 9.468382,9.02479 4.949219,14.48633 -3.886395,7.7485 -4.467692,18.42427 2.613281,24.625 3.461284,3.7849 10.542655,7.7817 6.628906,13.6582 -3.28005,8.44457 -3.192922,19.55425 4.888672,25.17188 2.471307,2.90183 7.847558,4.67507 8.332031,8.31055 -2.554227,9.01788 -3.605971,21.19927 5.355469,27.00195 4.213732,3.69458 13.309489,5.76471 10.630859,13.01367 -1.197073,8.42173 0.44813,18.66943 8.699219,22.88281 4.617085,2.69957 13.082789,4.41886 11.136719,11.66797 -0.387689,8.77805 3.443759,18.61038 12.40039,21.39844 4.691072,2.11212 12.7676,2.82603 11.607422,9.75781 0.447421,9.03667 4.993794,19.2382 14.718754,21.04688 3.44058,1.63802 9.05659,1.07808 10.98242,4.19726 1.32195,9.27935 5.28817,20.81066 15.87305,22.49805 5.27482,1.65002 14.57694,-0.20559 15.00585,7.56055 2.34544,8.1713 7.9817,16.88858 17.26563,17.35937 5.30313,0.58353 13.75072,-1.23408 14.91406,6.14063 3.2479,8.10606 10.61692,15.63045 19.9668,14.5 5.16989,0.0362 12.88555,-2.65291 14.64648,4.21289 4.08113,7.72265 11.81486,15.32554 21.25196,13.29297 4.06295,0.16653 9.18086,-2.78483 12.48046,-0.70508 5.03628,7.96837 13.30578,16.84307 23.66797,14.09179 5.53044,-0.66924 13.19264,-6.09642 16.77344,0.8086 5.61349,6.81287 14.77616,12.31744 23.61524,8.60547 4.75759,-1.94069 11.55129,-6.16013 15.33203,-0.22657 6.29996,6.08299 16.07135,9.93044 24.16406,5.1211 4.72509,-2.02202 10.67019,-7.78106 15.07812,-2.09766 7.05438,5.69742 17.63428,9.14379 25.5,3.09961 4.24348,-1.65416 8.43923,-8.40543 12.82114,-3.89121 7.31963,4.62127 17.5653,7.90703 24.99136,1.78379 4.72435,-2.83001 9.60261,-10.88865 15.61719,-6.05664 7.90952,3.96472 18.50899,5.17996 25.08399,-1.7461 3.61509,-3.64619 7.94118,-10.40811 13.875,-6.45703 8.2082,3.01423 18.73371,2.54589 24.16992,-5.10742 3.44606,-3.78154 6.69831,-11.49734 12.9082,-8.08594 8.25225,2.20164 19.33404,1.45011 24.12891,-6.90429 2.86116,-2.87039 4.09442,-8.73087 7.80078,-9.73828 9.25581,1.60939 21.46043,1.39403 26.32617,-8.15821 3.2368,-4.45276 4.29323,-13.95505 11.82617,-11.91992 8.50976,0.29982 18.52378,-2.38663 21.85352,-11.06445 2.18838,-4.51365 2.81984,-12.93551 9.54883,-12.17578 9.011,-0.4088 18.91024,-5.09579 20.86718,-14.60157 1.58574,-4.8554 1.36876,-13.19653 8.55078,-12.64648 8.68135,-1.46819 18.13361,-6.61075 19.2754,-16.16211 0.80595,-4.9126 0.33624,-13.14031 7.47851,-13.38281 8.41609,-2.40622 16.65629,-8.98836 16.51758,-18.40039 0.52209,-5.10069 -1.26483,-13.04517 5.71484,-14.07032 8.20478,-3.22543 16.3431,-10.25317 15.51172,-19.8164 -0.21168,-5.13175 -2.34941,-12.90439 4.53906,-14.66602 7.74279,-4.10066 14.36969,-12.2094 12.35352,-21.38476 -0.60861,-5.09169 -4.0424,-12.56199 2.64844,-15.00391 7.25985,-4.81088 13.95672,-13.3968 11.04687,-22.63476 -1.36006,-4.97229 -4.94145,-12.08546 1.38672,-15.24805 6.75523,-5.62245 11.52032,-14.96029 7.62891,-23.5293 -1.6131,-4.82813 -6.6047,-11.44081 -0.49219,-15.2168 6.22915,-6.25627 10.68661,-16.00859 6.09375,-24.38867 -2.41491,-4.52481 -7.35546,-10.7837 -1.86328,-15.17383 5.39307,-6.89277 8.23561,-17.03769 2.60937,-24.5957 -2.57103,-4.46683 -8.73836,-9.87164 -3.65429,-14.82812 4.71289,-7.33686 7.1692,-17.87173 0.88086,-25.12305 -3.05821,-3.88534 -9.56111,-9.01316 -4.97071,-14.4668 3.85153,-7.85585 4.52606,-18.36878 -2.54101,-24.59765 -3.3898,-3.83287 -10.75944,-7.73674 -6.6875,-13.69922 3.03983,-8.18922 3.42172,-19.05804 -4.34375,-24.69141 -2.59515,-3.12638 -8.23938,-4.9773 -8.87696,-8.79883 2.62868,-9.01729 3.52368,-21.19487 -5.35937,-27.03125 -4.24525,-3.61184 -13.3216,-5.71169 -10.625,-12.99218 1.35862,-8.74109 -0.7775,-19.21239 -9.39649,-23.3125 -4.62791,-2.31256 -12.35318,-4.36767 -10.43554,-11.24414 0.42947,-8.77807 -3.44529,-18.60199 -12.39844,-21.40039 -4.71916,-2.04983 -12.82366,-2.79802 -11.61914,-9.78907 -0.51695,-8.72391 -4.62874,-18.76828 -14.00781,-20.77148 -3.69717,-1.75892 -9.52098,-1.23012 -11.68946,-4.4336 -1.30708,-9.2819 -5.32903,-20.82327 -15.89062,-22.49804 -5.31506,-1.625562 -14.51501,0.1734 -14.98633,-7.546878 -2.31954,-8.542518 -8.53851,-17.304151 -18.12109,-17.478515 -5.12024,-0.212276 -13.03569,0.946281 -14.06055,-6.03125 -3.27092,-8.10119 -10.57503,-15.647698 -19.9668,-14.5 -5.1473,-0.10262 -12.92552,2.767556 -14.64843,-4.216797 -4.08946,-7.714458 -11.82816,-15.316772 -21.25391,-13.285156 -4.04226,-0.236671 -9.22798,2.804283 -12.45508,0.732422 -4.96977,-7.836924 -13.14591,-16.842351 -23.4707,-14.16211 -5.55598,0.589154 -13.37712,6.206357 -16.98633,-0.765625 -5.58884,-6.709627 -14.74709,-12.432117 -23.51953,-8.544922 -4.02004,0.721034 -8.42462,4.614762 -12.05664,3.28711 -6.47575,-6.673258 -16.51176,-13.7442597 -25.97852,-8.8613284 -4.50287,1.3129414 -8.81344,5.8815854 -13.3457,5.1796874 -5.87861,-3.977173 -12.01682,-9.1454552 -19.51562,-9.0585936 z m 21.43945,19.8164066 c 5.11406,1.454128 8.53666,6.650782 13.98633,7.835937 7.64757,3.756111 15.15418,-0.847659 22.29882,-3.259766 5.31853,-0.545952 7.39265,5.90093 11.98829,7.53125 7.16508,5.027119 16.14654,3.420522 23.64453,0.150391 6.12428,-1.704264 8.12262,5.860081 12.46679,8.396485 6.29061,5.799826 15.29126,6.35513 23.12305,3.759765 4.09954,-1.31223 7.08352,2.099876 8.65039,5.410156 5.41881,7.765018 15.23048,12.371078 24.59766,9.523438 4.27353,-1.282162 8.47922,1.439091 9.46289,5.693359 4.3517,8.319645 12.97422,14.710529 22.7168,13.457032 3.952,-0.770917 8.82876,0.9863 9.15429,5.537109 3.44373,9.286053 12.30792,16.883303 22.77344,15.958983 4.43201,-0.34732 7.99669,3.1529 8.06641,7.52149 2.5512,9.01586 9.61065,17.09023 19.40039,17.89453 3.99867,0.0661 8.42278,2.73987 7.80859,7.25 1.4459,9.92275 8.59411,19.13471 18.98828,20.40234 4.43594,0.57536 7.1265,4.76346 6.3125,9.04297 0.60011,9.35949 5.90062,18.72361 15.29102,21.52734 3.94698,0.91686 7.62123,4.54307 6.09961,8.83594 -0.63482,9.95994 4.47738,20.39182 14.30273,23.7832 4.21525,1.46684 6.04356,6.14204 4.32422,10.16797 -1.35525,9.27905 1.8869,19.50511 10.46094,24.23633 3.66845,1.70154 6.57311,6.00817 4.14648,9.88867 -2.70093,9.5717 0.12154,20.62662 8.79883,26.16602 3.81913,2.33919 4.97671,7.27776 2.37695,10.95312 -3.51981,8.984 -2.0051,19.77555 5.54822,26.21336 3.55584,2.63729 4.29651,7.61218 1.28772,10.94875 -4.29937,8.67528 -3.57263,19.64659 3.51953,26.66211 3.2475,3.10271 3.30606,8.17533 0.0156,11.24219 -5.29029,8.05524 -6.06289,18.91991 0.0143,26.76963 2.8999,3.31745 2.57124,8.28108 -1.00457,10.93545 -6.05495,7.64098 -7.69729,18.75329 -1.9375,27.05078 2.52595,3.68097 1.21843,8.47007 -2.49219,10.73633 -6.54512,6.70743 -9.98007,16.90177 -5.77929,25.76562 1.96795,3.54133 1.75494,8.71515 -2.47266,10.44336 -7.79403,6.23146 -12.19629,16.93395 -8.11328,26.55274 1.72302,4.10702 -0.5034,8.55634 -4.62109,9.98437 -7.80811,5.18797 -13.34834,14.46533 -11.03711,24.02344 1.1778,3.86483 -0.0983,8.86491 -4.57618,9.6914 -8.96355,4.41038 -15.4904,14.11502 -13.45507,24.30079 0.84607,4.40955 -2.32803,8.2657 -6.65625,8.8164 -8.72831,3.45386 -15.97665,11.38452 -15.75,21.19336 0.32885,4.00304 -1.93688,8.62977 -6.47071,8.51758 -9.51759,2.43774 -18.10641,10.49304 -18.26953,20.96094 -0.1121,4.45763 -3.9581,7.60644 -8.30468,7.25781 -9.22051,1.60212 -18.03923,7.76359 -19.81836,17.44922 -0.50487,4.02987 -3.7335,8.06605 -8.17188,6.99414 -9.52775,0.49815 -19.17404,5.99241 -21.78516,15.67187 -0.97987,4.09183 -4.7355,7.91404 -9.21289,6.42969 -9.42357,-0.57592 -19.57318,3.38545 -23.54297,12.48633 -1.37293,3.91532 -5.33943,7.57943 -9.67382,5.58008 -9.87826,-1.72025 -20.67573,2.39764 -25.16797,11.72461 -1.89541,3.94947 -6.61107,5.36902 -10.42188,3.30664 -9.60383,-2.62723 -20.75006,0.10733 -26.16015,8.98047 -2.47398,3.5577 -7.25608,3.92015 -10.67578,1.5625 -9.01883,-3.34453 -19.7702,-1.19972 -25.80274,6.57226 -2.67852,3.5099 -7.65554,3.92932 -10.96289,1.05664 -8.44828,-4.254 -19.26974,-4.27881 -26.43164,2.5 -2.76362,2.89871 -7.67956,4.1929 -10.60742,0.80274 -8.30423,-5.49041 -19.88692,-6.34241 -27.72461,0.48242 -3.35777,2.92974 -8.31718,2.19787 -10.94336,-1.29883 -7.7408,-6.15606 -19.03552,-8.33505 -27.53906,-2.34766 -3.53942,2.35109 -7.94297,0.73998 -10.02735,-2.69335 -6.90386,-6.77829 -17.87868,-9.55499 -26.51172,-4.75 -3.73673,1.91503 -8.80115,0.9024 -10.40039,-3.29688 -6.07838,-7.74111 -16.70298,-12.2962 -26.22851,-8.25586 -3.85729,1.34661 -8.49488,-0.44083 -9.53516,-4.59961 -5.47711,-8.64833 -16.27926,-13.14479 -26.1914,-10.10742 -4.10337,1.08348 -7.63653,-1.94537 -8.42188,-5.83789 -4.42432,-8.85885 -13.93135,-14.97738 -24.01367,-13.38281 -4.17364,0.75931 -7.69435,-2.29365 -8.14649,-6.34961 -3.58484,-9.0881 -12.39018,-15.94929 -22.43164,-15.18555 -4.42121,0.32632 -7.96139,-3.15529 -8.06054,-7.50586 -2.56422,-9.00234 -9.59834,-17.11401 -19.40625,-17.88672 -4.01539,-0.0405 -8.44876,-2.73749 -7.80469,-7.25976 -1.43814,-9.91868 -8.59974,-19.14116 -18.98242,-20.39453 -4.44107,-0.56176 -7.14638,-4.76801 -6.31836,-9.05274 -0.62892,-9.35218 -5.84865,-18.73374 -15.289064,-21.5332 -3.940563,-0.91496 -7.622003,-4.53227 -6.101563,-8.82227 0.677728,-9.99147 -4.532798,-20.35265 -14.304687,-23.80664 -4.212473,-1.47622 -6.022882,-6.12956 -4.31836,-10.15234 1.349806,-9.13073 -1.830826,-19.55643 -10.474609,-24.23242 -3.650906,-1.71881 -6.515176,-6.01228 -4.134766,-9.89063 2.65502,-9.45696 -0.08935,-20.60707 -8.794922,-26.16602 -3.831789,-2.3444 -4.990208,-7.30665 -2.36914,-10.99023 3.22577,-8.61472 2.306076,-19.0692 -4.863281,-25.44531 -3.322984,-2.50426 -5.621715,-7.43475 -2.324219,-10.93164 4.598339,-8.84362 4.200143,-20.47244 -3.414063,-27.54883 -3.278888,-3.06175 -2.980549,-8.06089 0.207032,-11.04297 5.00668,-7.91664 6.240427,-18.6013 0.300781,-26.40039 -2.657264,-3.04148 -3.558828,-8.13508 0.216797,-10.70313 6.299787,-7.53898 8.454538,-19.15522 2.439453,-27.69531 -2.537885,-3.65999 -1.284562,-8.48322 2.457031,-10.73047 6.566302,-6.72208 10.001666,-16.90528 5.796875,-25.79687 -1.92053,-3.52328 -1.736354,-8.66873 2.449219,-10.41211 7.607002,-6.1333 12.201218,-16.60994 8.253906,-26.12305 -1.557405,-3.9932 -0.173868,-9.15163 4.326172,-10.36328 8.516705,-5.27583 13.667488,-15.49892 11.048828,-25.45117 -1.166876,-4.0739 1.515929,-7.87939 5.494141,-8.76563 8.795991,-4.60546 14.751039,-14.33561 12.693359,-24.41992 -0.66046,-4.57251 2.937706,-8.14249 7.292969,-8.57812 9.028293,-3.53523 15.756251,-12.29023 15.246091,-22.23047 -0.33182,-4.25517 3.09173,-7.39139 7.16797,-7.4375 9.37921,-2.63478 17.21757,-10.60951 17.44727,-20.71094 0.12177,-4.43693 3.95387,-7.60907 8.29883,-7.23633 9.26511,-1.55273 18.01473,-7.81324 19.82421,-17.46679 0.50182,-4.01655 3.72501,-8.02394 8.14258,-6.98633 9.95938,-0.45355 19.82011,-6.536323 22.16016,-16.718752 1.02701,-4.323305 5.458,-6.634052 9.63086,-5.349609 9.21701,0.423262 19.31571,-3.87334 23.03906,-12.951172 1.33137,-3.818152 5.3059,-7.107533 9.41797,-5.152344 9.88988,1.686706 20.70656,-2.348663 25.1875,-11.742187 1.92976,-3.99212 6.7107,-5.319188 10.5293,-3.230469 9.09041,2.346001 19.60634,0.179165 25.19531,-7.875 2.07645,-3.490111 6.67488,-5.900676 10.28711,-3.083985 9.29472,3.691053 20.70332,1.961379 27.04687,-6.214843 2.69707,-3.52239 7.64342,-3.862485 10.95117,-1.021485 8.4216,4.156954 19.19117,4.304897 26.33985,-2.458984 2.75257,-2.958959 7.7379,-4.357168 10.67969,-0.875 8.41238,5.666066 20.01892,6.16892 28.01367,-0.533203 1.56564,-0.995257 3.32596,-1.959277 5.24414,-1.847656 z"
     id="path4144"
     inkscape:connector-curvature="0" />
</svg>
