<?xml version="1.0" encoding="UTF-8" standalone="no"?>
<!-- Created with Inkscape (http://www.inkscape.org/) -->

<svg
   xmlns:dc="http://purl.org/dc/elements/1.1/"
   xmlns:cc="http://creativecommons.org/ns#"
   xmlns:rdf="http://www.w3.org/1999/02/22-rdf-syntax-ns#"
   xmlns:svg="http://www.w3.org/2000/svg"
   xmlns="http://www.w3.org/2000/svg"
   xmlns:sodipodi="http://sodipodi.sourceforge.net/DTD/sodipodi-0.dtd"
   xmlns:inkscape="http://www.inkscape.org/namespaces/inkscape"
   id="svg4170"
   version="1.1"
   inkscape:version="0.91 r13725"
   width="676.21924"
   height="698.94965"
   viewBox="0 0 676.21924 698.94967"
   sodipodi:docname="201702_JS_Coin_Heads.svg"
   inkscape:export-filename="C:\Users\l501665\Documents\JS_Profile\20161110_JS_profile_wax_stamp.png"
   inkscape:export-xdpi="90"
   inkscape:export-ydpi="90">
  <metadata
     id="metadata4176">
    <rdf:RDF>
      <cc:Work
         rdf:about="">
        <dc:format>image/svg+xml</dc:format>
        <dc:type
           rdf:resource="http://purl.org/dc/dcmitype/StillImage" />
        <dc:title />
      </cc:Work>
    </rdf:RDF>
  </metadata>
  <defs
     id="defs4174" />
  <sodipodi:namedview
     pagecolor="#ffffff"
     bordercolor="#0d0404"
     borderopacity="1"
     objecttolerance="10"
     gridtolerance="10"
     guidetolerance="10"
     inkscape:pageopacity="1"
     inkscape:pageshadow="2"
     inkscape:window-width="1600"
     inkscape:window-height="848"
     id="namedview4172"
     showgrid="false"
     inkscape:zoom="0.64"
     inkscape:cx="237.56484"
     inkscape:cy="347.30042"
     inkscape:window-x="1272"
     inkscape:window-y="116"
     inkscape:window-maximized="1"
     inkscape:current-layer="svg4170"
     fit-margin-top="0"
     fit-margin-left="0"
     fit-margin-right="0"
     fit-margin-bottom="0"
     borderlayer="false" />
  <path
     style="opacity:1;fill:#000000;stroke:#000000;stroke-width:0.96862477;stroke-opacity:1"
     d="m 421.00727,97.277343 c -9.0947,-0.0324 -21.89708,2.65034 -23.58739,13.277877 0.0479,2.05473 -1.43008,7.23561 2.17207,5.86503 14.63999,-1.43072 29.88016,-6.89349 44.46913,-2.41874 8.00265,2.51406 10.2851,11.98114 8.18678,19.2287 -2.31451,11.44532 -11.43883,19.98665 -19.27529,28.10735 -3.86932,3.13823 -9.43311,9.08794 -14.79163,5.77923 -2.36144,-3.32705 -3.3383,-7.55939 -4.87774,-11.37572 -2.319,-5.98053 0.68004,-13.33536 7.17992,-15.06629 7.50401,-3.23583 17.14396,-1.40208 23.32908,-7.20028 1.84515,-4.14518 -0.23892,-10.11736 -5.19262,-10.84236 -8.99667,-3.81328 -20.91547,-2.92725 -28.09182,4.26869 -3.58327,7.27791 -13.02675,4.74263 -19.09406,2.74913 -4.33428,-1.47141 -12.51144,-3.66081 -12.83472,3.33408 0.253,3.64486 5.37787,5.1816 7.31379,8.30241 5.96357,5.66839 6.08,15.48368 0.2998,21.34906 -3.47186,5.22466 -11.43945,9.31758 -16.77892,4.19782 -8.5978,-8.92852 -9.16404,-22.45088 -9.32183,-34.10664 -0.54847,-9.27701 10.15117,-12.99632 17.42805,-15.25698 4.63481,-2.08356 13.47354,-2.91813 13.58627,-9.39476 -1.43868,-5.34922 -5.45562,-11.883587 -11.93511,-10.760307 -15.30366,0.95789 -29.22584,10.285947 -44.81417,8.673517 -14.08277,2.30358 -20.08348,22.81095 -9.35389,32.05341 4.61678,2.56605 14.32972,2.34053 13.50006,-4.94377 -1.09949,-6.2218 -2.02137,-11.52084 2.91472,-3.49854 3.56042,4.2563 8.41714,12.03643 2.71911,16.56943 -8.83965,5.14736 -19.19123,-0.78281 -28.17101,-1.5609 -14.81546,0.16815 -29.43662,5.62578 -41.08468,14.58889 -3.00938,4.23662 -5.13613,12.32601 1.92319,13.925 12.8381,3.28673 25.55541,-1.45877 37.72474,-5.22351 11.25727,-2.63682 21.72708,6.77033 23.57232,17.37688 2.72545,9.67511 -1.57687,22.62025 -12.57806,24.67412 -9.33949,1.86132 -18.13506,-3.55882 -27.47716,-3.52647 -22.65181,-2.40916 -45.38805,3.2944 -66.81048,10.38961 -19.36571,5.22002 -37.78944,15.13918 -50.84793,30.40751 -13.485,10.06524 -22.8162,24.35477 -33.82997,36.7549 -11.78328,20.98984 -30.19368,38.95273 -36.0286,62.76281 -9.2987,23.07083 -4.05564,48.827 3.01865,71.89454 0.65007,16.55932 -12.19388,29.40111 -20.042685,42.7839 -3.52554,5.74031 -8.77712,14.84967 -1.98541,20.17977 6.47909,2.0488 16.440935,4.28219 17.118305,12.53754 0.18931,7.59634 -9.792825,12.34044 -6.092,20.45205 1.35737,4.34318 4.79717,7.61506 8.39229,10.2456 -4.71717,3.65322 -11.537945,9.30982 -7.04228,15.82904 11.43345,18.51302 20.71789,40.09387 39.81198,52.31712 13.77568,8.15515 30.31299,2.39146 44.3351,-1.93967 13.28104,-4.20265 27.46288,-12.29827 41.78625,-7.93483 7.56581,2.60607 12.26639,9.8254 14.69357,17.02442 6.34989,5.66999 15.8065,1.76913 23.45868,2.82731 74.31503,-0.59663 148.63292,-0.64836 222.94952,-0.93261 -14.89589,-13.59036 -32.30902,-24.62412 -44.89337,-40.55163 -18.28424,-17.59706 -32.63041,-40.01971 -38.41861,-64.75395 -5.37529,-25.01803 -2.64053,-51.25084 4.08584,-75.71753 8.66349,-23.21394 13.60863,-47.76996 12.90048,-72.45588 0.27831,-7.0828 8.38359,-10.47483 14.48805,-8.05065 11.65393,3.56871 22.35633,14.17247 21.37762,27.00894 -2.86222,-5.1106 -7.84124,-8.94607 -13.97709,-8.28749 -5.60449,-0.2874 -15.26714,3.00456 -11.90306,10.16169 1.39894,5.22085 6.25737,6.13291 10.50215,7.97978 6.83076,3.0035 6.90695,11.4316 4.43276,17.34891 -3.05809,8.03737 -5.18535,17.15811 -0.81075,25.17391 0.8879,3.46571 4.65226,7.87695 8.27916,4.49621 7.09883,-4.84081 9.61275,-13.95683 16.12654,-19.15784 4.48077,-0.57569 3.07466,5.43831 2.58498,8.0376 -0.31753,7.82018 -5.6182,14.92026 -13.29831,17.08969 -11.09552,4.34534 -24.32438,1.74029 -34.4327,8.46093 -3.54158,3.6977 -2.95849,11.55329 2.63402,12.88999 18.42439,8.34671 42.44575,5.93735 57.64112,-7.77465 5.18898,-3.48306 5.24828,-12.78354 12.3518,-13.49421 5.80845,1.3992 4.88839,9.17207 3.55038,13.52964 -2.29592,8.67954 -9.8509,14.11001 -16.33017,19.61473 -8.9141,9.65317 -2.77409,24.08062 6.46155,31.08181 9.47637,7.59771 21.27879,12.46863 33.29575,13.70681 6.44041,-1.04824 16.20211,-4.51525 15.16872,-12.66062 -2.20835,-7.33425 -9.47946,-10.79632 -15.33087,-14.73062 10.95093,-1.85835 23.67857,-1.01468 32.92431,-8.09354 3.05368,-4.10237 -2.30884,-9.43355 -5.86573,-10.93002 -4.31663,-0.53332 -11.89718,-0.9711 -12.33107,-6.55502 1.83285,-5.22119 9.16259,-3.85095 13.45614,-3.38838 6.42808,0.82952 16.23788,2.31614 16.67012,10.41521 -0.10037,8.37767 -7.39518,14.59784 -8.86743,22.51647 1.28737,6.62687 8.10842,12.22354 14.97828,9.47169 12.26443,-4.5162 22.39255,-17.74542 20.50275,-31.03706 -0.34012,-7.62631 -10.73694,-9.75312 -10.47198,-17.41418 1.73476,-7.47353 12.03083,-8.21351 15.60615,-13.93433 0.96039,-4.76028 -0.15248,-12.95855 -6.98006,-11.86431 -11.92865,0.79292 -25.17246,8.2691 -36.58781,1.33898 -2.77851,-2.61483 -8.46925,-5.28158 -7.17238,-9.78872 3.60498,-3.79145 9.86762,-0.76344 14.35878,-0.8212 7.55971,0.45812 16.34615,3.48175 23.35089,-0.51404 2.95546,-6.16424 -4.60887,-11.59976 -10.24194,-12.35665 -11.01094,-1.8101 -24.0575,3.06949 -33.29764,-5.21231 9.01385,-0.88057 19.14073,0.91684 26.9379,-5.00346 6.09179,-3.23026 9.80464,-13.32184 2.11551,-16.99644 -4.38128,-3.08859 -10.58518,-1.58683 -14.81612,-3.61225 -3.46842,-6.8574 -0.20876,-15.17913 -3.0017,-22.35236 -1.1316,-4.03977 -3.83024,-7.49147 -7.26099,-9.90434 1.91296,-4.4549 7.19432,-2.55368 9.38028,0.50539 10.91463,11.05424 18.39014,26.43916 32.732,33.43529 4.9039,0.82954 11.09626,1.70872 15.33651,-1.09468 -2.0325,-7.51536 -9.67106,-12.13055 -14.15809,-18.2888 -4.12228,-5.25846 -7.8387,-11.49823 -8.49976,-18.21608 0.22276,-5.83511 7.6344,-5.19936 11.23749,-2.85697 7.36426,3.56562 13.35119,9.74675 16.20007,17.3433 4.59666,8.46307 20.59186,1.62302 16.0021,-7.33454 -2.59491,-4.29614 -7.58509,-6.34598 -12.08595,-8.11032 0.22224,-9.84917 -7.11158,-18.21297 -16.55643,-20.57514 -12.06829,-3.7209 -26.6503,-6.53395 -33.15182,-18.66906 -6.21326,-7.27569 1.28199,-2.20583 5.57096,-0.13818 12.98146,5.77343 28.81121,11.65356 42.82122,5.42492 6.4103,-4.38252 13.26649,-11.59971 11.74279,-20.094 -1.4539,-8.38155 -7.04671,-18.45511 -16.34525,-19.51961 -6.55595,1.74591 -4.99033,10.04118 -7.01777,14.86117 -4.89807,6.11368 -14.24569,3.89499 -20.79878,2.25462 -3.73703,-1.28726 -10.84104,-3.49469 -9.16722,-8.69403 1.89611,-2.50175 6.58408,-0.11758 9.57637,-1.93574 12.67307,-4.94988 16.00072,-22.09704 10.9754,-33.49496 -2.46654,-6.33014 -10.67664,-7.80694 -16.15293,-4.32651 1.23812,7.72672 -6.25515,13.27803 -13.42087,13.39165 -13.1817,0.82692 -26.48093,-1.87382 -39.14012,-4.87765 -0.47249,-1.71178 8.15454,-3.0297 11.41219,-3.75111 17.74224,-3.32679 35.70932,-8.26264 49.89384,-19.89045 4.18265,-3.05739 8.30188,-6.19841 12.4478,-9.30412 -0.14264,5.78999 -2.3105,15.00492 4.45351,17.91023 6.79773,0.30572 12.10444,-6.03073 14.58044,-11.58831 -1.76001,-16.24565 -16.92234,-30.60744 -33.90477,-28.15397 -3.07811,0.3565 -6.73719,2.24321 -7.97371,-1.68026 -3.08363,-8.1642 4.64146,-15.29262 8.0388,-22.00767 4.56337,-6.75437 8.10108,-16.95085 0.86823,-23.32923 -3.11124,-13.67738 -19.73753,-18.43475 -32.22103,-16.65517 -4.15491,0.59719 -8.28964,3.02263 -10.69258,6.21189 1.80738,7.8348 11.29054,10.72593 15.46663,17.06731 -6.72667,-1.1284 -15.3556,-4.25783 -20.77238,1.76044 -5.06857,5.37813 0.75157,12.22811 4.48934,16.37544 -3.5629,-1.7883 -7.68617,-3.44474 -10.87924,-0.11003 -7.99653,4.92627 -13.93948,14.10468 -23.55346,16.2076 -5.04289,0.28682 -5.40057,-5.85192 -5.8978,-9.19008 -1.89002,-4.77791 5.11838,-6.85049 7.99445,-9.05769 6.87875,-4.49586 17.51519,-9.10437 17.07117,-18.69161 -2.01553,-4.54666 -0.093,-9.87593 -3.28262,-14.2327 -7.06227,-10.82125 -20.24568,-18.36426 -33.38249,-17.87853 -5.63729,0.0128 -8.46752,7.13163 -5.71679,11.25823 7.24099,4.23479 16.51854,11.8754 12.96647,21.24089 -4.23519,8.85572 -14.12312,13.7229 -22.7559,17.16242 -4.77229,-1.65925 -3.32026,-8.3219 -4.15183,-12.18321 -1.20189,-11.97354 -0.90561,-27.07809 -12.0407,-34.81343 -10.40502,-4.42636 -20.86911,-8.682807 -32.40392,-9.165847 -1.85321,-0.12704 -3.71216,-0.18194 -5.56973,-0.15478 z M 345.6313,280.6819 c 13.07691,0.21393 25.66751,4.42322 37.84355,8.77796 0,17.92763 0,35.85526 0,53.7829 -4.57689,-1.35308 -14.57468,2.9938 -14.9787,-2.74704 -1.0728,-16.96333 -8.71547,-35.98128 -25.49321,-43.06354 -13.92487,-5.63143 -32.42602,0.45301 -37.29487,15.15954 -5.80088,15.13536 2.96508,31.1915 14.14867,41.48221 18.75566,17.57703 42.58327,29.18691 60.3581,47.83584 15.1741,16.49974 15.16472,42.51162 3.70524,60.97677 -15.52097,24.73553 -45.82692,40.48217 -75.36048,36.18203 -12.57694,-1.47305 -24.74135,-5.33684 -36.38674,-10.1588 0,-20.37621 0,-40.75242 0,-61.12864 4.47907,1.34545 14.67369,-3.01765 14.62935,2.84576 0.0714,19.65237 8.94716,41.42353 27.39229,51.03972 16.51101,7.97042 39.83519,2.05812 47.07123,-15.60897 6.75884,-15.33486 1.88926,-34.02865 -9.6775,-45.46456 -19.29178,-18.73128 -44.26685,-30.794 -63.21529,-49.93111 -12.91798,-14.57249 -14.96611,-36.69311 -6.01011,-53.75626 11.96192,-22.40465 37.87728,-36.44496 63.26847,-36.22381 z m -166.23932,4.66778 c 25.34469,0 50.68934,0 76.03401,0 -0.75578,4.79499 2.82378,13.62002 -5.04366,11.70021 -7.26911,0.0287 -15.86428,3.48951 -16.81252,11.55669 -2.58909,15.9169 -0.50914,32.20979 -1.17876,48.2684 -0.29267,36.60128 0.56348,73.23045 -0.38243,109.81636 -2.12532,34.36246 -17.70662,68.17105 -43.90004,91.05459 -10.20078,8.8219 -24.71689,12.43066 -37.75493,8.31173 -3.38675,-0.82487 -7.38516,-1.43004 -5.77524,-5.97692 0,-16.68749 0,-33.37499 0,-50.06248 4.58553,1.40839 14.88423,-3.29311 14.58799,3.33625 1.26197,10.89562 4.03435,24.05711 14.43338,29.98528 8.8299,4.35869 18.65358,-2.38818 21.33613,-10.93374 8.36194,-22.32367 4.65845,-46.59669 5.55841,-69.87489 -0.19736,-49.51116 0.39153,-99.04586 -0.28848,-148.54265 -0.12111,-6.77577 -3.26175,-14.7268 -10.87185,-15.8615 -3.86432,-1.0344 -7.89265,-1.19423 -11.87273,-1.30091 0.98891,-3.21697 -2.15268,-11.44512 1.93073,-11.47642 z"
     id="path4180"
     inkscape:connector-curvature="0" />
  <g
     inkscape:groupmode="layer"
     id="layer6"
     inkscape:label="Profile"
     style="display:inline"
     transform="translate(-7.435168,-67.365181)" />
  <flowRoot
     xml:space="preserve"
     id="flowRoot56087"
     style="font-style:normal;font-weight:normal;font-size:40px;line-height:125%;font-family:sans-serif;letter-spacing:0px;word-spacing:0px;opacity:1;fill:#000000;fill-opacity:1;stroke:#000000;stroke-width:1px;stroke-linecap:butt;stroke-linejoin:miter;stroke-opacity:1;"
     transform="translate(-305.03748,-236.38117)"><flowRegion
       id="flowRegion56089"><rect
         id="rect56091"
         width="33.928471"
         height="50.892708"
         x="-390.17743"
         y="-124.59406"
         style="stroke:#000000;stroke-opacity:1;" /></flowRegion><flowPara
       id="flowPara56093" /></flowRoot>  <g
     inkscape:groupmode="layer"
     id="layer2"
     inkscape:label="Inits"
     transform="translate(-305.03748,-236.38117)"
     style="display:inline" />
  <g
     style="font-style:normal;font-variant:normal;font-weight:bold;font-stretch:condensed;font-size:72.09145355px;line-height:125%;font-family:Arial;-inkscape-font-specification:'Arial, Bold Condensed';text-align:start;letter-spacing:0px;word-spacing:0px;writing-mode:lr-tb;text-anchor:start;fill:#000000;fill-opacity:1;stroke:#000000;stroke-width:1px;stroke-linecap:butt;stroke-linejoin:miter;stroke-opacity:1"
     id="text4160-7"
     transform="translate(-41.108495,-36.247967)">
    <path
       d="m 113.83834,509.91779 -49.142688,15.74877 -3.899594,-12.16834 31.179707,-18.0504 -35.842032,3.50202 -3.910337,-12.20187 49.142684,-15.74877 2.4171,7.54236 -38.683937,12.39706 41.251437,-4.3854 2.51379,7.84406 -36.137922,20.34168 38.683942,-12.39706 2.42785,7.57589 z"
       id="path4267"
       inkscape:connector-curvature="0"
       style="stroke:#000000;stroke-opacity:1" />
    <path
       d="m 84.896008,447.25995 0.1772,-8.22713 q 5.831563,0.57955 9.14673,3.44435 3.28054,2.87114 4.160821,7.68423 1.222261,6.68292 -2.579603,11.13566 -4.408695,5.24363 -13.757861,6.95353 -9.21066,1.68457 -15.542526,-1.63048 -5.345877,-2.81546 -6.409813,-8.63272 -1.184263,-6.47516 2.922907,-11.01952 4.698373,-5.22505 15.363347,-7.1756 l 1.114383,-0.16803 3.654115,19.97952 q 4.350278,-0.86721 6.39753,-3.17402 2.040919,-2.34143 1.553281,-5.00767 -0.702958,-3.84355 -6.200511,-4.16212 z m -9.916267,1.34841 q -4.274692,0.88917 -6.10489,3.01314 -1.864824,2.1303 -1.42785,4.51953 0.462306,2.52774 3.029679,3.84743 2.608332,1.34797 6.687931,0.56606 l -2.18487,-11.94616 z"
       id="path4269"
       inkscape:connector-curvature="0"
       style="stroke:#000000;stroke-opacity:1" />
    <path
       d="m 94.51765,430.09033 -51.333884,5.27821 -0.831696,-8.08877 51.333885,-5.2782 0.831695,8.08876 z"
       id="path4271"
       inkscape:connector-curvature="0"
       style="stroke:#000000;stroke-opacity:1" />
    <path
       d="m 50.655711,415.80369 -9.140796,0.45744 -0.40642,-8.12124 9.140797,-0.45744 0.406419,8.12124 z m 42.399233,-2.12182 -37.336638,1.86847 -0.406419,-8.12125 37.336637,-1.86847 0.40642,8.12125 z"
       id="path4273"
       inkscape:connector-curvature="0"
       style="stroke:#000000;stroke-opacity:1" />
    <path
       d="m 72.901766,398.46027 q -5.488173,-0.18652 -9.917156,-2.52077 -4.428984,-2.33424 -6.560974,-5.92882 -2.131989,-3.59459 -1.982529,-7.99216 0.251093,-7.38793 6.199372,-11.41231 5.913099,-4.02558 13.65283,-3.76253 5.769617,0.19609 10.338127,2.5703 4.569706,2.33903 6.804846,6.00756 2.201155,3.63215 2.056478,7.88901 -0.231962,6.82503 -5.591737,11.15118 -5.359775,4.32616 -14.999257,3.99854 z m 0.809889,-8.28468 q 5.664076,0.1925 8.659393,-1.92463 2.960136,-2.11833 3.066552,-5.24941 0.104024,-3.06071 -2.741833,-5.34115 -2.845857,-2.28043 -8.545113,-2.47414 -5.558533,-0.18891 -8.55385,1.92822 -2.995317,2.11714 -3.100537,5.21303 -0.104025,3.06071 2.740637,5.37633 2.845857,2.28044 8.474751,2.47175 z"
       id="path4275"
       inkscape:connector-curvature="0"
       style="stroke:#000000;stroke-opacity:1" />
    <path
       d="m 95.113153,353.36832 -1.040893,8.06451 -37.075809,-4.78541 0.964291,-7.47102 5.271607,0.68041 q -3.452766,-2.39776 -4.445992,-4.05215 -1.02363,-1.69381 -0.766786,-3.68375 0.355976,-2.758 2.53071,-5.03279 l 8.228836,3.61759 q -1.862764,1.78267 -2.092572,3.56315 -0.216289,1.67574 0.873795,3.12967 1.059678,1.41452 4.234334,2.39216 3.174655,0.97765 11.86757,2.09965 l 11.450909,1.47798 z"
       id="path4277"
       inkscape:connector-curvature="0"
       style="stroke:#000000;stroke-opacity:1" />
    <path
       d="m 93.850481,301.88185 3.747543,-7.32619 q 4.994976,3.06484 6.728826,7.08867 1.69992,4.01443 0.39295,8.72957 -1.81472,6.54692 -7.177926,8.89577 -6.254213,2.79591 -15.413118,0.25718 -9.023217,-2.50111 -13.275381,-8.24577 -3.582768,-4.86508 -2.003116,-10.56396 1.758302,-6.34339 7.436204,-8.64154 6.506783,-2.65284 16.954719,0.24319 l 1.076097,0.3348 -5.425349,19.57292 q 4.292961,1.1169 7.141315,-0.0661 2.857757,-1.21692 3.581763,-3.8289 1.043698,-3.76533 -3.764527,-6.44964 z m -9.511576,-3.11135 q -4.234519,-1.06417 -6.80781,0.049 -2.607212,1.10372 -3.255997,3.44433 -0.686396,2.4763 1.048391,4.78357 1.759307,2.35059 5.77149,3.42618 l 3.243926,-11.70304 z"
       id="path4279"
       inkscape:connector-curvature="0"
       style="stroke:#000000;stroke-opacity:1" />
    <path
       d="m 98.835721,289.28662 1.579289,-8.11892 q 5.85547,1.17731 7.87273,-3.93008 1.07328,-2.7174 0.55579,-4.47353 -0.5175,-1.75612 -2.18722,-2.41561 -1.14589,-0.45259 -2.03345,-0.1219 -0.90048,0.36343 -2.11572,2.00289 -6.127929,8.32824 -9.349929,9.96988 -4.024266,2.04387 -8.869744,0.13006 -4.845478,-1.91381 -6.543785,-6.14222 -1.698307,-4.2284 0.616369,-10.08881 2.211227,-5.59849 5.55566,-7.64594 3.311694,-2.06038 8.622693,-1.3252 l -1.201813,7.73815 q -4.565687,-0.70574 -6.311392,3.71412 -1.099148,2.78288 -0.746177,4.28479 0.320232,1.48897 1.597081,1.99329 1.14589,0.45259 2.325632,-0.33041 1.212481,-0.77006 5.008145,-5.78059 4.263657,-5.62049 7.67686,-6.88383 3.40028,-1.2306 7.59096,0.42459 5.04192,1.99139 6.94519,6.75492 1.9162,4.73078 -0.48899,10.82037 -2.18537,5.53301 -6.2864,7.96288 -4.13377,2.41693 -9.811779,1.4611 z"
       id="path4281"
       inkscape:connector-curvature="0"
       style="stroke:#000000;stroke-opacity:1" />
    <path
       d="m 95.254366,230.97384 7.061414,3.50853 -2.459106,4.94929 13.492336,6.7038 q 4.38186,2.17716 5.18503,2.30108 1.48025,0.18518 2.15376,-1.17035 0.50122,-1.00878 0.58985,-3.32313 l 7.18553,2.78407 q 0.071,3.17978 -1.511,6.36372 -1.37835,2.77412 -3.53251,3.78705 -2.15416,1.01293 -4.9265,0.34299 -2.04768,-0.46712 -7.65898,-3.25515 l -14.595684,-7.252 -1.660285,3.34156 -7.06141,-3.50853 1.660285,-3.34156 -6.651596,-3.3049 -1.551792,-9.85082 11.821556,5.87365 2.459102,-4.9493 z"
       id="path4283"
       inkscape:connector-curvature="0"
       style="stroke:#000000;stroke-opacity:1" />
    <path
       d="m 139.96463,206.94288 5.92068,-5.71512 q 3.73126,4.51893 4.06662,8.88756 0.30633,4.34874 -2.45898,8.3853 -3.8396,5.60471 -9.67466,6.08754 -6.82289,0.61681 -14.66368,-4.75466 -7.72464,-5.29189 -9.88424,-12.10498 -1.8116,-5.76397 1.53065,-10.64268 3.72024,-5.43048 9.83655,-5.7633 7.01542,-0.39957 15.95973,5.72788 l 0.90939,0.66566 -11.47903,16.75606 q 3.69883,2.44861 6.77688,2.25316 3.09794,-0.22449 4.62981,-2.46057 2.20827,-3.22344 -1.46972,-7.32185 z m -7.98872,-6.02751 q -3.66064,-2.37978 -6.45583,-2.16123 -2.82424,0.19866 -4.19695,2.20242 -1.45228,2.11991 -0.5594,4.86504 0.90203,2.79407 4.34864,5.11256 l 6.86354,-10.01879 z"
       id="path4285"
       inkscape:connector-curvature="0"
       style="stroke:#000000;stroke-opacity:1" />
    <path
       d="m 176.95555,180.30092 -5.32909,6.14171 -14.41041,-12.50376 q -4.33376,-3.76036 -6.06939,-4.66049 -1.73563,-0.90012 -3.33718,-0.61199 -1.57847,0.26154 -2.61661,1.45797 -1.33804,1.54208 -1.41199,3.66834 -0.10054,2.10319 1.21591,4.13095 1.31645,2.02776 6.18196,6.24951 l 12.78858,11.09651 -5.32909,6.14171 -28.23591,-24.49999 4.93691,-5.68972 4.14765,3.59886 q -1.0779,-3.59175 -0.63639,-6.5176 0.46458,-2.95243 2.47164,-5.26554 2.33004,-2.68534 5.33098,-3.29718 2.99743,-0.6615 5.804,0.56201 2.80305,1.17385 6.9507,4.77272 l 17.54773,15.22598 z"
       id="path4287"
       inkscape:connector-curvature="0"
       style="stroke:#000000;stroke-opacity:1" />
    <path
       d="m 153.4876,144.04464 -6.36128,-6.58009 5.84615,-5.65175 6.36128,6.58008 -5.84615,5.65176 z m 29.50656,30.52147 -25.98339,-26.87712 5.84615,-5.65175 25.98339,26.87711 -5.84615,5.65176 z"
       id="path4289"
       inkscape:connector-curvature="0"
       style="stroke:#000000;stroke-opacity:1" />
    <path
       d="m 171.29531,133.36259 5.92787,-4.53328 3.10059,4.05444 q -0.22377,-3.59559 0.77952,-6.22405 1.00329,-2.62846 3.21226,-4.31775 2.34878,-1.79621 4.95254,-1.9262 2.63173,-0.15138 5.53982,1.39141 -0.19581,-3.61698 0.75156,-6.20268 0.97533,-2.60707 3.07245,-4.21083 2.48859,-1.90312 5.19762,-2.0693 2.71561,-0.21553 5.32763,1.28778 2.63999,1.48194 6.14686,6.06765 l 14.51933,18.98597 -6.45915,4.93956 -12.97972,-16.97272 q -3.39995,-4.44591 -5.29482,-5.30118 -1.91624,-0.88323 -3.76171,0.52807 -2.15305,1.64652 -1.88488,4.7207 0.24679,3.04622 4.82284,9.03002 l 10.90553,14.26045 -6.45915,4.93956 -12.44513,-16.27369 q -3.69933,-4.83736 -5.29977,-5.82916 -2.11034,-1.31089 -4.23543,0.31425 -1.42604,1.09055 -1.90136,2.96074 -0.47532,1.87018 0.40472,4.12193 0.85865,2.22379 4.19445,6.58581 l 11.03383,14.42822 -6.45914,4.93956 -22.70916,-29.69528 z"
       id="path4291"
       inkscape:connector-curvature="0"
       style="stroke:#000000;stroke-opacity:1" />
    <path
       d="m 241.19932,107.0483 q -2.3859,-4.94594 -2.37788,-9.952385 0.008,-5.006449 2.19967,-8.564978 2.19163,-3.558529 6.15472,-5.470313 6.65799,-3.211797 12.98611,0.184168 6.31283,3.36426 9.67757,10.339298 2.50826,5.199573 2.52971,10.34813 0.0532,5.13327 -2.15601,8.8175 -2.19276,3.63724 -6.02903,5.48784 -6.15071,2.96709 -12.47247,0.23246 -6.32176,-2.73463 -10.51239,-11.42172 z m 7.71173,-3.13388 q 2.46238,5.10446 5.7292,6.77241 3.25153,1.63625 6.07325,0.27506 2.75831,-1.3306 3.45458,-4.91034 0.69626,-3.57973 -1.78141,-8.715899 -2.41649,-5.009345 -5.68332,-6.677297 -3.26682,-1.667952 -6.05683,-0.322056 -2.75831,1.330602 -3.48629,4.925632 -0.69626,3.579737 1.75082,8.65249 z"
       id="path4293"
       inkscape:connector-curvature="0"
       style="stroke:#000000;stroke-opacity:1" />
    <path
       d="m 283.72199,108.39033 -16.72388,-48.819448 7.69256,-2.63521 6.02333,17.582995 q 0.92078,-3.068899 2.59666,-5.019734 1.70919,-1.962243 4.14017,-2.795015 5.12837,-1.756807 10.24398,1.662819 5.14891,3.408218 8.24043,12.432824 3.08012,8.991304 1.11584,15.096722 -1.97569,6.072117 -6.87095,7.749067 -2.49759,0.85559 -5.45333,0.15651 -2.95574,-0.69908 -5.65799,-3.04778 l 1.77962,5.19498 -7.12644,2.44127 z m 1.30602,-21.061215 q 1.56287,4.562254 3.25007,6.663332 1.68719,2.101077 3.71914,2.818944 2.02055,0.684565 3.78551,0.07995 2.53088,-0.866995 3.42792,-4.113807 0.88564,-3.280114 -1.07651,-9.007907 -2.06482,-6.027504 -4.80901,-8.064163 -2.72229,-2.081369 -5.51959,-1.12311 -2.66409,0.912626 -3.63914,4.148953 -0.97505,3.236327 0.86161,8.597808 z"
       id="path4295"
       inkscape:connector-curvature="0"
       style="stroke:#000000;stroke-opacity:1" />
    <path
       d="m 312.64467,78.609551 q -1.14148,-5.371391 0.0567,-10.232353 1.19818,-4.860961 4.17308,-7.796328 2.9749,-2.935367 7.2789,-3.850016 7.23072,-1.53661 12.56989,3.266607 5.33186,4.768785 6.94164,12.343824 1.20002,5.646848 -0.003,10.652855 -1.16892,4.998689 -4.19073,8.051986 -2.9947,3.011548 -7.16097,3.896928 -6.67981,1.419535 -12.17005,-2.7398 -5.49024,-4.159336 -7.49515,-13.593703 z m 8.23571,-1.210377 q 1.17807,5.543552 3.95461,7.940425 2.76923,2.362441 5.83368,1.711211 2.99558,-0.636596 4.52304,-3.948117 1.52745,-3.311522 0.34207,-8.889506 -1.15612,-5.440255 -3.93266,-7.837128 -2.77654,-2.396873 -5.80656,-1.75296 -2.99558,0.636595 -4.55747,3.955434 -1.52746,3.311522 -0.35671,8.820641 z"
       id="path4297"
       inkscape:connector-curvature="0"
       style="stroke:#000000;stroke-opacity:1" />
    <path
       d="m 370.61146,76.562879 8.18016,0.895471 q -1.08693,5.758608 -4.23048,8.810744 -3.14683,3.017089 -8.01843,3.473399 -6.76417,0.63358 -10.86764,-3.542852 -4.83831,-4.850057 -5.72467,-14.312881 -0.87322,-9.322634 2.98247,-15.340583 3.27185,-5.079389 9.15983,-5.6309 6.55389,-0.613884 10.72195,3.874694 4.79447,5.137002 5.80558,15.931631 l 0.07,1.124802 -20.22241,1.894177 q 0.48373,4.409419 2.60281,6.650425 2.15413,2.237723 4.85278,1.984947 3.89027,-0.364391 4.68805,-5.813074 z m -0.4767,-9.996165 q -0.51221,-4.336041 -2.46812,-6.344846 -1.95919,-2.043852 -4.37747,-1.817339 -2.55847,0.239645 -4.09746,2.681872 -1.57076,2.480558 -1.14834,6.61288 l 12.09139,-1.132567 z"
       id="path4299"
       inkscape:connector-curvature="0"
       style="stroke:#000000;stroke-opacity:1" />
    <path
       d="m 414.99783,88.020776 -7.56631,-0.168538 0.12228,-5.489979 q -1.93573,3.125749 -4.50484,4.652957 -2.56912,1.527207 -5.24372,1.467631 -5.13806,-0.114449 -8.86034,-5.302759 -3.68631,-5.222719 -3.47465,-14.724606 0.21322,-9.572272 4.05176,-14.345699 3.83934,-4.80862 9.29412,-4.687116 2.56903,0.05723 4.75714,1.408721 2.22329,1.35228 4.03047,3.998047 l 0.41389,-18.581468 8.1294,0.18108 -1.1492,51.591729 z m -21.2089,-19.978562 q -0.11289,5.067674 0.67607,7.585132 0.82493,2.483049 2.38036,3.785243 1.5914,1.267785 3.59736,1.312468 2.6746,0.05958 4.70964,-2.782284 2.03504,-2.841861 2.16439,-8.64857 0.14345,-6.440168 -1.72941,-9.298656 -1.83688,-2.892897 -4.79302,-2.958744 -2.81538,-0.06271 -4.84807,2.673572 -2.03269,2.736283 -2.15732,8.331839 z"
       id="path4301"
       inkscape:connector-curvature="0"
       style="stroke:#000000;stroke-opacity:1" />
    <path
       d="m 427.67154,46.808913 1.00271,-9.097141 8.08246,0.890875 -1.00271,9.097141 -8.08246,-0.890875 z m -4.65107,42.196737 4.09571,-37.158321 8.08246,0.890875 -4.09571,37.158321 -8.08246,-0.890875 z"
       id="path4303"
       inkscape:connector-curvature="0"
       style="stroke:#000000;stroke-opacity:1" />
    <path
       d="m 459.12013,82.522679 7.59977,3.156022 q -2.65994,5.221851 -6.53394,7.26869 -3.86731,2.012279 -8.67109,1.082544 -6.67,-1.290928 -9.43591,-6.451432 -3.28208,-6.013341 -1.47612,-15.344427 1.77921,-9.192847 7.16936,-13.886287 4.56629,-3.956536 10.3723,-2.832827 6.46264,1.250795 9.20291,6.729024 3.15945,6.27644 1.09931,16.92079 l -0.24859,1.099217 -19.94088,-3.859405 q -0.77366,4.367885 0.63103,7.113688 1.43925,2.752491 4.10034,3.267525 3.83611,0.74245 6.13151,-4.263122 z m 2.34888,-9.727967 q 0.72572,-4.305453 -0.58756,-6.782584 -1.30658,-2.511691 -3.69119,-2.973214 -2.52285,-0.488279 -4.6856,1.423657 -2.204,1.939806 -2.95871,6.024525 l 11.92306,2.307616 z"
       id="path4305"
       inkscape:connector-curvature="0"
       style="stroke:#000000;stroke-opacity:1" />
    <path
       d="m 498.29422,105.82332 -7.75855,-2.43409 5.71115,-18.204033 q 1.71756,-5.474645 1.84993,-7.425314 0.13238,-1.95067 -0.77116,-3.304024 -0.86996,-1.342818 -2.38137,-1.816991 -1.94803,-0.611156 -3.92702,0.169895 -1.96846,0.747464 -3.30206,2.763985 -1.3336,2.016521 -3.2619,8.162902 l -5.06838,16.155241 -7.75855,-2.434087 11.19048,-35.669159 7.18757,2.254954 -1.6438,5.239538 q 2.86279,-2.422192 5.72163,-3.185458 2.89242,-0.752728 5.81447,0.164005 3.39226,1.064255 5.15128,3.571419 1.80314,2.484114 1.80181,5.545783 0.0428,3.03862 -1.601,8.278157 l -6.95453,22.167277 z"
       id="path4307"
       inkscape:connector-curvature="0"
       style="stroke:#000000;stroke-opacity:1" />
    <path
       d="m 533.27935,79.902232 -3.03026,7.279478 -5.10213,-2.123887 -5.78996,13.909002 q -1.88038,4.517175 -1.95052,5.326815 -0.0861,1.4893 1.31125,2.071 1.03993,0.4329 3.35504,0.36714 l -2.29913,7.35505 q -3.16799,0.28267 -6.45026,-1.08366 -2.85979,-1.19046 -4.01399,-3.27234 -1.15421,-2.08188 -0.67046,-4.8927 0.32966,-2.07426 2.73763,-7.858842 l 6.26344,-15.04642 -3.44475,-1.433962 3.03025,-7.279478 3.44476,1.433962 2.85439,-6.857008 9.72555,-2.204663 -5.07298,12.186626 5.10213,2.123887 z"
       id="path4309"
       inkscape:connector-curvature="0"
       style="stroke:#000000;stroke-opacity:1" />
    <path
       d="m 542.62846,78.701587 4.00304,-8.230376 7.31237,3.556547 -4.00304,8.230376 -7.31237,-3.556547 z m -18.56795,38.176283 16.35088,-33.617921 7.31237,3.556546 -16.35087,33.617925 -7.31238,-3.55655 z"
       id="path4311"
       inkscape:connector-curvature="0"
       style="stroke:#000000;stroke-opacity:1" />
    <path
       d="m 557.27488,104.78187 -5.51923,-5.126917 q 4.02725,-4.205869 7.91635,-4.776216 3.93729,-0.58283 8.91261,2.345163 4.42924,2.606627 6.03322,5.22519 1.60397,2.61855 1.3375,5.36167 -0.24862,2.71278 -3.5694,8.35552 l -5.91666,9.91493 q -2.4638,4.18655 -3.34413,6.44587 -0.86248,2.22899 -1.30924,5.07024 l -6.91691,-4.07063 1.1609,-4.05473 q -3.03965,1.07025 -5.72746,0.91801 -2.65748,-0.13439 -4.96311,-1.49127 -3.85284,-2.2674 -4.79261,-6.29222 -0.92191,-4.05515 1.61331,-8.36305 1.60682,-2.73035 3.80414,-4.17378 2.19733,-1.44344 4.73171,-1.58571 2.53438,-0.14228 7.09237,1.27394 5.51455,1.7341 7.99712,1.88809 1.57112,-2.66969 1.65878,-3.72089 0.13585,-1.06369 -0.5921,-2.18645 -0.67977,-1.13524 -2.53034,-2.22431 -1.88092,-1.10692 -3.47296,-0.90021 -1.56171,0.22457 -3.60386,2.16776 z m 5.27327,12.41582 q -1.65621,-0.23948 -4.90607,-1.17177 -3.74599,-1.0609 -5.35414,-0.6186 -1.60816,0.4423 -2.57225,2.08052 -1.08907,1.85057 -0.74678,3.76747 0.39048,1.90441 2.05903,2.88636 1.48653,0.87483 3.53189,0.73067 2.06321,-0.17449 3.43055,-1.24865 1.39768,-1.05629 3.55797,-4.72711 l 0.9998,-1.69889 z"
       id="path4313"
       inkscape:connector-curvature="0"
       style="stroke:#000000;stroke-opacity:1" />
  </g>
  <g
     style="font-style:normal;font-variant:normal;font-weight:bold;font-stretch:condensed;font-size:72.09145355px;line-height:125%;font-family:Arial;-inkscape-font-specification:'Arial, Bold Condensed';text-align:start;letter-spacing:0px;word-spacing:0px;writing-mode:lr-tb;text-anchor:start;fill:#000000;fill-opacity:1;stroke:#000000;stroke-width:1px;stroke-linecap:butt;stroke-linejoin:miter;stroke-opacity:1"
     id="text4172"
     transform="translate(-41.108495,-36.247967)">
    <path
       d="m 415.05097,735.1976 -0.13289,-18.79682 q -1.63599,2.6165 -4.01963,4.04142 -2.38365,1.42493 -5.02365,1.44359 -5.13921,0.0363 -8.90674,-5.07649 -3.73234,-5.11307 -3.80077,-14.79308 -0.0647,-9.15201 3.66661,-14.14184 3.76626,-5.02528 9.22226,-5.06385 2.92161,-0.0207 5.22081,1.54717 2.3344,1.56758 4.08185,4.75858 l -0.0391,-5.5264 7.46241,-0.0528 0.36483,51.60324 -8.09601,0.0572 z m 0.0457,-33.37162 q -0.0411,-5.808 -1.99647,-8.53992 -1.95566,-2.76711 -4.84206,-2.74671 -2.92161,0.0207 -4.87265,2.8858 -1.95129,2.82994 -1.907,9.09554 0.0435,6.16 1.96352,8.85697 1.95516,2.69671 4.70076,2.6773 2.78081,-0.0197 4.8714,-3.06179 2.1258,-3.04238 2.0825,-9.16719 z"
       style="font-style:normal;font-variant:normal;font-weight:bold;font-stretch:condensed;font-size:72.09145355px;line-height:125%;font-family:Arial;-inkscape-font-specification:'Arial, Bold Condensed';text-align:start;writing-mode:lr-tb;text-anchor:start;stroke:#000000;stroke-opacity:1"
       id="path4242"
       inkscape:connector-curvature="0" />
    <path
       d="m 451.10488,717.96608 -0.67273,-5.55636 q -1.31353,3.20842 -3.83197,5.25078 -2.52267,2.00741 -5.49306,2.36705 -3.00533,0.36387 -5.57203,-0.92098 -2.56671,-1.28484 -4.10604,-4.04148 -1.50438,-2.76087 -2.17289,-8.28229 l -2.84325,-23.48351 8.07245,-0.97737 2.06475,17.0535 q 0.88429,7.30365 1.47491,9.25325 0.62134,1.91042 2.01055,2.84142 1.38921,0.93099 3.17144,0.71521 2.02685,-0.2454 3.56995,-1.85055 1.53886,-1.64009 1.79649,-3.90514 0.28835,-2.30422 -0.62555,-9.85249 l -1.89551,-15.65567 8.03751,-0.97314 4.49336,37.11233 -7.47838,0.90544 z"
       style="font-style:normal;font-variant:normal;font-weight:bold;font-stretch:condensed;font-size:72.09145355px;line-height:125%;font-family:Arial;-inkscape-font-specification:'Arial, Bold Condensed';text-align:start;writing-mode:lr-tb;text-anchor:start;stroke:#000000;stroke-opacity:1"
       id="path4244"
       inkscape:connector-curvature="0" />
    <path
       d="m 466.94903,688.81313 -7.5324,0.10106 q 0.01,-5.82305 2.42994,-8.92055 2.44615,-3.13979 8.067,-4.45622 5.00393,-1.17194 7.97209,-0.38481 2.96817,0.78713 4.66911,2.95565 1.69291,2.13426 3.18594,8.50912 l 2.56431,11.25775 q 1.10773,4.72974 2.03058,6.97204 0.91482,2.20803 2.55307,4.572 l -7.81435,1.83016 -1.95934,-3.73491 q -1.46024,2.87273 -3.50989,4.61814 -2.01538,1.73738 -4.62016,2.34744 -4.35273,1.01943 -7.81118,-1.24363 -3.46647,-2.29733 -4.60631,-7.16416 -0.72243,-3.08461 -0.12922,-5.64583 0.59322,-2.56121 2.32855,-4.41377 1.73532,-1.85256 6.01058,-3.97461 5.18676,-2.55244 7.08912,-4.15489 -0.70637,-3.01606 -1.36866,-3.8371 -0.63604,-0.86333 -1.93779,-1.17306 -1.27551,-0.35203 -3.3662,0.13762 -2.12495,0.49767 -3.13404,1.7463 -0.97481,1.2406 -1.11075,4.05626 z m 12.38639,5.34203 q -1.36355,0.97011 -4.35833,2.53918 -3.44251,1.81855 -4.30061,3.24874 -0.85811,1.43019 -0.42465,3.28096 0.48965,2.09068 2.06063,3.24119 1.59722,1.10821 3.48226,0.66673 1.6794,-0.39333 3.05964,-1.90965 1.37221,-1.55059 1.61989,-3.27166 0.28195,-1.72909 -0.68932,-5.87618 l -0.44951,-1.91931 z"
       style="font-style:normal;font-variant:normal;font-weight:bold;font-stretch:condensed;font-size:72.09145355px;line-height:125%;font-family:Arial;-inkscape-font-specification:'Arial, Bold Condensed';text-align:start;writing-mode:lr-tb;text-anchor:start;stroke:#000000;stroke-opacity:1"
       id="path4246"
       inkscape:connector-curvature="0" />
    <path
       d="m 485.16792,673.36225 6.96767,-2.67245 1.82785,4.76562 q 0.80188,-3.51217 2.50734,-5.74976 1.70547,-2.23758 4.30191,-3.23345 2.76077,-1.05889 5.29506,-0.44746 2.56716,0.59882 4.92045,2.90083 0.83474,-3.52478 2.47447,-5.73716 1.6726,-2.22497 4.13758,-3.17042 2.9251,-1.12192 5.5706,-0.51544 2.66576,0.561 4.74621,2.74145 2.11332,2.16784 4.18068,7.55791 l 8.55939,22.31624 -7.59212,2.91196 -7.65177,-19.94986 q -2.00433,-5.22575 -3.58009,-6.58183 -1.58837,-1.38895 -3.75755,-0.55697 -2.53071,0.97066 -3.14259,3.99524 -0.62449,2.99172 2.07317,10.02511 l 6.429,16.76183 -7.59212,2.91196 -7.33663,-19.1282 q -2.18081,-5.68588 -3.43557,-7.08968 -1.65364,-1.85403 -4.15148,-0.89599 -1.67619,0.6429 -2.66084,2.30241 -0.98465,1.65951 -0.77712,4.0682 0.19492,2.37582 2.16144,7.50297 l 6.50463,16.95902 -7.59212,2.91196 -13.38745,-34.90404 z"
       style="font-style:normal;font-variant:normal;font-weight:bold;font-stretch:condensed;font-size:72.09145355px;line-height:125%;font-family:Arial;-inkscape-font-specification:'Arial, Bold Condensed';text-align:start;writing-mode:lr-tb;text-anchor:start;stroke:#000000;stroke-opacity:1"
       id="path4248"
       inkscape:connector-curvature="0" />
    <path
       d="m 569.41289,675.87937 -30.20827,-25.25143 7.23848,-4.49124 14.96431,13.16816 4.76497,4.54165 -1.89351,-6.32329 -5.09365,-19.29258 7.05902,-4.37989 9.36025,38.18694 -6.1916,3.84168 z"
       style="font-style:normal;font-variant:normal;font-weight:bold;font-stretch:condensed;font-size:72.09145355px;line-height:125%;font-family:Arial;-inkscape-font-specification:'Arial, Bold Condensed';text-align:start;writing-mode:lr-tb;text-anchor:start;stroke:#000000;stroke-opacity:1"
       id="path4250"
       inkscape:connector-curvature="0" />
    <path
       d="m 564.73825,628.19704 -5.42472,-7.37128 6.54909,-4.81966 5.42473,7.37128 -6.5491,4.81966 z m 25.16238,34.1914 -22.15791,-30.10884 6.54909,-4.81966 22.15792,30.10884 -6.5491,4.81966 z"
       style="font-style:normal;font-variant:normal;font-weight:bold;font-stretch:condensed;font-size:72.09145355px;line-height:125%;font-family:Arial;-inkscape-font-specification:'Arial, Bold Condensed';text-align:start;writing-mode:lr-tb;text-anchor:start;stroke:#000000;stroke-opacity:1"
       id="path4252"
       inkscape:connector-curvature="0" />
    <path
       d="m 606.12857,615.21314 -4.8875,6.562 q -4.51401,-3.86724 -8.02617,-0.82505 -2.26161,1.95898 -1.98582,5.07314 0.2758,3.11416 4.21681,7.664 4.35586,5.02877 7.5371,5.9057 3.18123,0.87693 5.49606,-1.12815 1.72947,-1.49805 1.83291,-3.63673 0.0804,-2.1653 -2.04497,-5.58676 l 7.12305,-3.9811 q 6.98749,11.83047 -1.87272,19.50507 -5.66735,4.90898 -12.14149,2.97244 -6.47414,-1.93655 -11.72882,-8.003 -6.2918,-7.26378 -6.47801,-13.71545 -0.18266,-6.50131 4.84611,-10.85717 4.07091,-3.52617 8.49201,-3.58349 4.44769,-0.0804 9.62145,3.63455 z"
       style="font-style:normal;font-variant:normal;font-weight:bold;font-stretch:condensed;font-size:72.09145355px;line-height:125%;font-family:Arial;-inkscape-font-specification:'Arial, Bold Condensed';text-align:start;writing-mode:lr-tb;text-anchor:start;stroke:#000000;stroke-opacity:1"
       id="path4254"
       inkscape:connector-curvature="0" />
    <path
       d="m 610.6361,594.44273 5.64969,5.50039 -3.85518,3.95983 10.79495,10.50967 q 3.50583,3.41319 4.2326,3.77685 1.35265,0.62911 2.40853,-0.45543 0.78576,-0.8071 1.57809,-2.98341 l 5.98947,4.84862 q -0.90511,3.04907 -3.38519,5.59648 -2.16087,2.21952 -4.52162,2.52495 -2.36075,0.30544 -4.79527,-1.18044 -1.80664,-1.0711 -6.29612,-5.44194 l -11.67771,-11.36911 -2.60286,2.67352 -5.6497,-5.50039 2.60287,-2.67351 -5.32181,-5.18117 1.53589,-9.85332 9.45819,9.20824 3.85518,-3.95983 z"
       style="font-style:normal;font-variant:normal;font-weight:bold;font-stretch:condensed;font-size:72.09145355px;line-height:125%;font-family:Arial;-inkscape-font-specification:'Arial, Bold Condensed';text-align:start;writing-mode:lr-tb;text-anchor:start;stroke:#000000;stroke-opacity:1"
       id="path4256"
       inkscape:connector-curvature="0" />
    <path
       d="m 609.08113,588.45256 -6.92111,-5.98847 5.32052,-6.14913 6.92111,5.98846 -5.32052,6.14914 z m 32.10327,27.77727 -28.27005,-24.46058 5.32053,-6.14914 28.27004,24.46059 -5.32052,6.14913 z"
       style="font-style:normal;font-variant:normal;font-weight:bold;font-stretch:condensed;font-size:72.09145355px;line-height:125%;font-family:Arial;-inkscape-font-specification:'Arial, Bold Condensed';text-align:start;writing-mode:lr-tb;text-anchor:start;stroke:#000000;stroke-opacity:1"
       id="path4258"
       inkscape:connector-curvature="0" />
    <path
       d="m 621.20998,583.48009 4.21542,-6.15796 4.21181,2.88319 q -1.3356,-3.34582 -1.20346,-6.15615 0.13214,-2.81033 1.70298,-5.10504 1.67027,-2.43995 4.10317,-3.37668 2.45278,-0.96579 5.69726,-0.40847 -1.31572,-3.37487 -1.22335,-6.12711 0.11226,-2.78128 1.60356,-4.9598 1.76968,-2.58518 4.29129,-3.58918 2.51243,-1.05292 5.46332,-0.44063 2.97077,0.58324 7.73448,3.84423 l 19.72291,13.50128 -4.59322,6.70985 -17.63153,-12.06962 q -4.61847,-3.16157 -6.68567,-3.38222 -2.09624,-0.24054 -3.40859,1.67656 -1.53107,2.23662 -0.31615,5.07325 1.18588,2.81674 7.40194,7.07193 l 14.81397,10.14087 -4.59322,6.70986 -16.90535,-11.57253 q -5.02513,-3.43994 -6.85528,-3.88225 -2.4142,-0.58617 -3.92539,1.6214 -1.01409,1.4814 -0.8815,3.40648 0.13258,1.92507 1.67189,3.78931 1.51025,1.84436 6.04158,4.94628 l 14.98825,10.26017 -4.59322,6.70986 -30.8479,-21.11688 z"
       style="font-style:normal;font-variant:normal;font-weight:bold;font-stretch:condensed;font-size:72.09145355px;line-height:125%;font-family:Arial;-inkscape-font-specification:'Arial, Bold Condensed';text-align:start;writing-mode:lr-tb;text-anchor:start;stroke:#000000;stroke-opacity:1"
       id="path4260"
       inkscape:connector-curvature="0" />
    <path
       d="m 660.39998,543.09308 -4.70983,5.87919 q -4.48896,-3.70909 -5.34202,-7.5461 -0.86904,-3.88416 1.68749,-9.06017 2.27593,-4.60791 4.77026,-6.39898 2.49432,-1.79107 5.24958,-1.7258 2.72369,0.0497 8.59405,2.94917 l 10.32084,5.17618 q 4.35543,2.15122 6.67305,2.86408 2.28607,0.69726 5.15237,0.93516 l -3.5542,7.19592 -4.12874,-0.86144 q 1.28954,2.9533 1.33416,5.64505 0.0602,2.66019 -1.12453,5.05883 -1.97976,4.00825 -5.92512,5.23967 -3.97693,1.21582 -8.45859,-0.99776 -2.8405,-1.40297 -4.44066,-3.48892 -1.60017,-2.08595 -1.9273,-4.60316 -0.32712,-2.5172 0.75218,-7.16651 1.32641,-5.62654 1.29854,-8.11372 -2.77737,-1.3718 -3.83217,-1.3824 -1.07077,-0.0577 -2.13732,0.75033 -1.08253,0.76092 -2.03343,2.68614 -0.96649,1.95678 -0.64397,3.52946 0.33811,1.54112 2.42536,3.43578 z m 11.9972,-6.1666 q -0.1178,1.66928 -0.81007,4.97858 -0.78427,3.81352 -0.22562,5.38504 0.55865,1.57153 2.26295,2.41331 1.92522,0.95091 3.81198,0.46943 1.87078,-0.52863 2.72815,-2.26448 0.76384,-1.5465 0.47058,-3.57585 -0.32482,-2.04494 -1.49604,-3.33012 -1.15562,-1.31673 -4.97451,-3.20295 l -1.76742,-0.87296 z"
       style="font-style:normal;font-variant:normal;font-weight:bold;font-stretch:condensed;font-size:72.09145355px;line-height:125%;font-family:Arial;-inkscape-font-specification:'Arial, Bold Condensed';text-align:start;writing-mode:lr-tb;text-anchor:start;stroke:#000000;stroke-opacity:1"
       id="path4262"
       inkscape:connector-curvature="0" />
    <path
       d="m 690.07436,509.49994 4.30797,-7.01131 q 4.7405,3.44538 6.15497,7.59228 1.38137,4.13487 -0.28966,8.7336 -2.32022,6.3853 -7.85041,8.30834 -6.45337,2.29919 -15.38617,-0.94672 -8.80045,-3.19781 -12.59122,-9.25686 -3.19208,-5.1299 -1.17241,-10.68809 2.24809,-6.18678 8.08806,-8.03471 6.694,-2.13685 16.884,1.56589 l 1.04668,0.41778 -6.93661,19.08971 q 4.19268,1.44859 7.12468,0.49154 2.94403,-0.99014 3.86971,-3.53764 1.33443,-3.67237 -3.24959,-6.72381 z m -9.23969,-3.84431 q -4.13854,-1.39146 -6.79086,-0.48259 -2.68541,0.89684 -3.51492,3.17966 -0.8776,2.41517 0.6718,4.85081 1.57045,2.48075 5.48643,3.86624 l 4.14755,-11.41412 z"
       style="font-style:normal;font-variant:normal;font-weight:bold;font-stretch:condensed;font-size:72.09145355px;line-height:125%;font-family:Arial;-inkscape-font-specification:'Arial, Bold Condensed';text-align:start;writing-mode:lr-tb;text-anchor:start;stroke:#000000;stroke-opacity:1"
       id="path4264"
       inkscape:connector-curvature="0" />
  </g>
</svg>
