<?xml version="1.0" encoding="UTF-8" standalone="no"?>
<!-- Created with Inkscape (http://www.inkscape.org/) -->

<svg
   xmlns:dc="http://purl.org/dc/elements/1.1/"
   xmlns:cc="http://creativecommons.org/ns#"
   xmlns:rdf="http://www.w3.org/1999/02/22-rdf-syntax-ns#"
   xmlns:svg="http://www.w3.org/2000/svg"
   xmlns="http://www.w3.org/2000/svg"
   xmlns:sodipodi="http://sodipodi.sourceforge.net/DTD/sodipodi-0.dtd"
   xmlns:inkscape="http://www.inkscape.org/namespaces/inkscape"
   width="315.32944mm"
   height="262.75565mm"
   viewBox="0 0 1117.309 931.02394"
   id="svg4710"
   version="1.1"
   inkscape:version="0.91 r13725"
   sodipodi:docname="GS.svg">
  <defs
     id="defs4712" />
  <sodipodi:namedview
     id="base"
     pagecolor="#ffffff"
     bordercolor="#666666"
     borderopacity="1.0"
     inkscape:pageopacity="0.0"
     inkscape:pageshadow="2"
     inkscape:zoom="0.7"
     inkscape:cx="576.6358"
     inkscape:cy="489.17319"
     inkscape:document-units="px"
     inkscape:current-layer="layer1"
     showgrid="false"
     fit-margin-top="0"
     fit-margin-left="0"
     fit-margin-right="0"
     fit-margin-bottom="0"
     inkscape:window-width="1600"
     inkscape:window-height="848"
     inkscape:window-x="1272"
     inkscape:window-y="116"
     inkscape:window-maximized="1" />
  <metadata
     id="metadata4715">
    <rdf:RDF>
      <cc:Work
         rdf:about="">
        <dc:format>image/svg+xml</dc:format>
        <dc:type
           rdf:resource="http://purl.org/dc/dcmitype/StillImage" />
        <dc:title></dc:title>
      </cc:Work>
    </rdf:RDF>
  </metadata>
  <g
     inkscape:label="Layer 1"
     inkscape:groupmode="layer"
     id="layer1"
     transform="translate(1299.6513,-193.71128)">
    <g
       style="font-style:italic;font-variant:normal;font-weight:bold;font-stretch:normal;font-size:180px;line-height:125%;font-family:'Book Antiqua';-inkscape-font-specification:'Book Antiqua, Bold Italic';text-align:start;letter-spacing:0px;word-spacing:0px;writing-mode:lr-tb;text-anchor:start;fill:#000000;fill-opacity:1;stroke:none;stroke-width:1px;stroke-linecap:butt;stroke-linejoin:miter;stroke-opacity:1"
       id="text5258"
       transform="matrix(5.0748437,0,0,7.3460362,5295.8759,-1229.2985)">
      <path
         d="m -1195.7645,309.81476 -0.088,0.61523 q -3.3399,0.61524 -17.5781,4.7461 -10.2832,2.98828 -17.8418,4.13086 -7.5586,1.14257 -15.2051,1.14257 -25.9278,0 -39.5508,-12.83203 -13.623,-12.83203 -13.623,-36.12304 0,-21.88477 9.4043,-38.14454 9.4921,-16.25976 29.707,-27.94921 20.3027,-11.68946 40.2539,-11.68946 11.4258,0 21.5332,2.02149 10.1074,1.93359 15.8203,4.83398 l 0.7031,1.23047 -2.1093,7.91016 q -3.4278,12.56836 -4.5704,21.26953 l -6.2402,0 q 0.1758,-5.00977 0.4395,-11.16211 l -0.088,-6.24024 q -6.1524,-4.30664 -13.8867,-6.41601 -7.7344,-2.10938 -17.0508,-2.10938 -16.084,0 -26.3672,6.50391 -10.2832,6.50391 -16.084,20.30273 -7.4707,17.8418 -7.4707,38.75977 0,20.74219 9.3164,30.9375 9.4043,10.19531 26.6309,10.19531 11.3379,0 20.7421,-3.95508 l 3.4278,-14.50195 q 2.5488,-11.16211 2.5488,-15.64453 0,-2.37305 -2.1094,-3.51563 -2.0214,-1.23046 -8.8769,-1.23046 l -7.9102,0 0.9668,-6.15235 q 6.3281,0.26367 31.1133,0.52735 l 22.5879,-0.52735 -1.0547,6.15235 -2.8125,0 q -4.1309,0 -6.6797,1.8457 -2.4609,1.75781 -3.3398,7.11914 l -1.4942,8.96484 -2.9004,14.67774 -0.2636,4.30664 z"
         id="path5263"
         inkscape:connector-curvature="0" />
      <path
         d="m -1165.9696,311.48468 q 2.6367,-12.12891 4.5703,-27.24609 l 5.8008,0 -0.2637,9.66797 0.088,5.625 q 4.043,4.83398 11.6016,8.08593 7.6465,3.25196 16.084,3.25196 12.7441,0 19.5996,-6.67969 6.8554,-6.76758 6.8554,-18.28125 0,-7.82227 -3.955,-11.68945 -4.043,-3.7793 -17.8418,-6.85547 -20.4786,-4.57032 -26.2793,-11.68946 -5.8008,-7.03125 -5.8008,-18.80859 0,-17.49023 13.9746,-30.32227 13.9746,-12.83203 34.541,-12.83203 7.8223,0 14.6777,1.84571 6.9434,1.8457 12.8321,5.53711 -3.3399,14.85351 -4.3946,26.45507 l -6.0644,0 0.2637,-9.3164 -0.088,-5.09766 q -3.252,-4.39453 -9.4922,-7.11914 -6.1524,-2.8125 -14.1504,-2.8125 -11.7774,0 -18.3692,6.32813 -6.5917,6.24023 -6.5917,17.13867 0,6.15234 2.7246,10.54687 2.7246,4.39453 7.6464,6.15235 7.295,2.54882 16.9629,4.6582 18.3692,4.13086 23.3789,10.45898 5.0098,6.32813 5.0098,16.78711 0,17.40235 -15.1172,31.28907 -15.0293,13.88671 -36.2988,13.88671 -9.4922,0 -17.4902,-2.28515 -7.9102,-2.19727 -14.4141,-6.67969 z"
         id="path5265"
         inkscape:connector-curvature="0" />
    </g>
  </g>
</svg>
